<svg width="25" height="24" viewBox="0 0 25 24" fill="none" xmlns="http://www.w3.org/2000/svg">
<path d="M4.27802 3.655C4.09702 4.015 4.00802 4.461 3.83002 5.351L3.23202 8.341C3.14727 8.74867 3.14662 9.16936 3.23009 9.5773C3.31357 9.98523 3.47943 10.3718 3.71751 10.7135C3.95559 11.0551 4.26089 11.3445 4.61471 11.564C4.96853 11.7835 5.36344 11.9285 5.77525 11.9901C6.18706 12.0518 6.6071 12.0287 7.00968 11.9223C7.41225 11.8159 7.78888 11.6285 8.11651 11.3715C8.44414 11.1145 8.71588 10.7934 8.91508 10.4277C9.11428 10.0621 9.23676 9.65963 9.27502 9.245L9.34502 8.555C9.30713 8.99384 9.36119 9.43576 9.50375 9.85252C9.64631 10.2693 9.87425 10.6517 10.173 10.9754C10.4717 11.2991 10.8347 11.5569 11.2387 11.7324C11.6427 11.9078 12.0789 11.9971 12.5194 11.9944C12.9598 11.9918 13.3949 11.8973 13.7968 11.717C14.1986 11.5366 14.5585 11.2745 14.8533 10.9472C15.1481 10.6199 15.3714 10.2348 15.5089 9.81634C15.6465 9.39789 15.6952 8.95535 15.652 8.517L15.725 9.245C15.7633 9.65963 15.8858 10.0621 16.085 10.4277C16.2842 10.7934 16.5559 11.1145 16.8835 11.3715C17.2112 11.6285 17.5878 11.8159 17.9904 11.9223C18.3929 12.0287 18.813 12.0518 19.2248 11.9901C19.6366 11.9285 20.0315 11.7835 20.3853 11.564C20.7392 11.3445 21.0445 11.0551 21.2825 10.7135C21.5206 10.3718 21.6865 9.98523 21.77 9.5773C21.8534 9.16936 21.8528 8.74867 21.768 8.341L21.17 5.351C20.992 4.461 20.903 4.016 20.722 3.655C20.5334 3.27904 20.2679 2.94694 19.9426 2.68025C19.6174 2.41356 19.2397 2.21826 18.834 2.107C18.444 2 17.99 2 17.082 2H7.91802C7.01002 2 6.55602 2 6.16602 2.107C5.76039 2.21826 5.38269 2.41356 5.05743 2.68025C4.73217 2.94694 4.46662 3.27904 4.27802 3.655ZM18.769 13.5C19.5504 13.502 20.3189 13.3018 21 12.919V14C21 17.771 21 19.657 19.828 20.828C18.885 21.772 17.48 21.955 15 21.991V18.5C15 17.565 15 17.098 14.799 16.75C14.6674 16.522 14.478 16.3326 14.25 16.201C13.902 16 13.435 16 12.5 16C11.565 16 11.098 16 10.75 16.201C10.522 16.3326 10.3327 16.522 10.201 16.75C10 17.098 10 17.565 10 18.5V21.991C7.52002 21.955 6.11502 21.771 5.17202 20.828C4.00002 19.657 4.00002 17.771 4.00002 14V12.919C4.68144 13.302 5.45036 13.5021 6.23202 13.5C7.38768 13.5008 8.50033 13.0618 9.34402 12.272C10.2039 13.0641 11.3309 13.5026 12.5 13.5C13.6691 13.5025 14.7961 13.064 15.656 12.272C16.4997 13.0618 17.6134 13.5008 18.769 13.5Z" fill="#64436E"/>
</svg>
