<svg width="32" height="32" viewBox="0 0 32 32" fill="none" xmlns="http://www.w3.org/2000/svg">
    <defs>
        <linearGradient id="paint0_linear_277_11473" x1="0" y1="16" x2="32" y2="16" gradientUnits="userSpaceOnUse">
            <stop stop-color="#F6F2F7"/>
            <stop offset="1" stop-color="#FCEEF3"/>
        </linearGradient>
        <linearGradient id="paint1_linear_277_11473" x1="0" y1="16" x2="32" y2="16" gradientUnits="userSpaceOnUse">
            <stop stop-color="#9D74AA"/>
            <stop offset="1" stop-color="#E67FA6"/>
        </linearGradient>
        <linearGradient id="paint2_linear_277_11473" x1="7" y1="16" x2="25" y2="16" gradientUnits="userSpaceOnUse">
            <stop stop-color="#9D74AA"/>
            <stop offset="1" stop-color="#E67FA6"/>
        </linearGradient>
    </defs>
    <rect x="0.15" y="0.15" width="31.7" height="31.7" rx="7.85" fill="url(#paint0_linear_277_11473)"/>
    <rect x="0.15" y="0.15" width="31.7" height="31.7" rx="7.85" stroke="url(#paint1_linear_277_11473)" stroke-width="0.3"/>
    <path d="M16.9197 22.6621L16.9195 22.6622L16.9263 22.6696C17.1256 22.8855 17.25 23.1756 17.25 23.5C17.25 23.8315 17.1183 24.1495 16.8839 24.3839C16.6495 24.6183 16.3315 24.75 16 24.75C13.6794 24.75 11.4538 23.8281 9.81282 22.1872C8.17187 20.5462 7.25 18.3206 7.25 16C7.25 13.6794 8.17187 11.4538 9.81282 9.81282C11.4538 8.17187 13.6794 7.25 16 7.25C20.8605 7.25 24.75 10.745 24.75 15C24.75 16.2598 24.2496 17.468 23.3588 18.3588C22.468 19.2496 21.2598 19.75 20 19.75H18.23C17.7659 19.75 17.3208 19.9344 16.9926 20.2626C16.6644 20.5908 16.48 21.0359 16.48 21.5C16.48 21.9468 16.6562 22.3528 16.9197 22.6621ZM20.2626 15.7374C20.5908 16.0656 21.0359 16.25 21.5 16.25C21.9641 16.25 22.4092 16.0656 22.7374 15.7374C23.0656 15.4092 23.25 14.9641 23.25 14.5C23.25 14.0359 23.0656 13.5908 22.7374 13.2626C22.4092 12.9344 21.9641 12.75 21.5 12.75C21.0359 12.75 20.5908 12.9344 20.2626 13.2626C19.9344 13.5908 19.75 14.0359 19.75 14.5C19.75 14.9641 19.9344 15.4092 20.2626 15.7374ZM17.2626 11.7374C17.5908 12.0656 18.0359 12.25 18.5 12.25C18.9641 12.25 19.4092 12.0656 19.7374 11.7374C20.0656 11.4092 20.25 10.9641 20.25 10.5C20.25 10.0359 20.0656 9.59075 19.7374 9.26256C19.4092 8.93437 18.9641 8.75 18.5 8.75C18.0359 8.75 17.5908 8.93437 17.2626 9.26256C16.9344 9.59075 16.75 10.0359 16.75 10.5C16.75 10.9641 16.9344 11.4092 17.2626 11.7374ZM12.2626 11.7374C12.5908 12.0656 13.0359 12.25 13.5 12.25C13.9641 12.25 14.4092 12.0656 14.7374 11.7374C15.0656 11.4092 15.25 10.9641 15.25 10.5C15.25 10.0359 15.0656 9.59075 14.7374 9.26256C14.4092 8.93437 13.9641 8.75 13.5 8.75C13.0359 8.75 12.5908 8.93437 12.2626 9.26256C11.9344 9.59075 11.75 10.0359 11.75 10.5C11.75 10.9641 11.9344 11.4092 12.2626 11.7374ZM9.26256 15.7374C9.59075 16.0656 10.0359 16.25 10.5 16.25C10.9641 16.25 11.4092 16.0656 11.7374 15.7374C12.0656 15.4092 12.25 14.9641 12.25 14.5C12.25 14.0359 12.0656 13.5908 11.7374 13.2626C11.4092 12.9344 10.9641 12.75 10.5 12.75C10.0359 12.75 9.59075 12.9344 9.26256 13.2626C8.93437 13.5908 8.75 14.0359 8.75 14.5C8.75 14.9641 8.93437 15.4092 9.26256 15.7374Z" stroke="url(#paint2_linear_277_11473)" stroke-width="0.5"/>
</svg>
