<svg width="32" height="32" viewBox="0 0 32 32" fill="none" xmlns="http://www.w3.org/2000/svg">
<rect width="32" height="32" rx="8" fill="#F6F2F7"/>
<path d="M12.625 17.125C12.4025 17.125 12.185 17.059 12 16.9354C11.815 16.8118 11.6708 16.6361 11.5856 16.4305C11.5005 16.225 11.4782 15.9988 11.5216 15.7805C11.565 15.5623 11.6722 15.3618 11.8295 15.2045C11.9868 15.0472 12.1873 14.94 12.4055 14.8966C12.6238 14.8532 12.85 14.8755 13.0555 14.9606C13.2611 15.0458 13.4368 15.19 13.5604 15.375C13.684 15.56 13.75 15.7775 13.75 16C13.75 16.2984 13.6315 16.5845 13.4205 16.7955C13.2095 17.0065 12.9234 17.125 12.625 17.125ZM19.375 14.875C19.1525 14.875 18.935 14.941 18.75 15.0646C18.565 15.1882 18.4208 15.3639 18.3356 15.5695C18.2505 15.775 18.2282 16.0012 18.2716 16.2195C18.315 16.4377 18.4222 16.6382 18.5795 16.7955C18.7368 16.9528 18.9373 17.06 19.1555 17.1034C19.3738 17.1468 19.6 17.1245 19.8055 17.0394C20.0111 16.9542 20.1868 16.81 20.3104 16.625C20.434 16.44 20.5 16.2225 20.5 16C20.5 15.7016 20.3815 15.4155 20.1705 15.2045C19.9595 14.9935 19.6734 14.875 19.375 14.875ZM18.2247 19.1153C17.5567 19.5299 16.7862 19.7496 16 19.7496C15.2138 19.7496 14.4433 19.5299 13.7753 19.1153C13.607 19.0091 13.4034 18.9742 13.2093 19.0181C13.0152 19.0621 12.8465 19.1814 12.7403 19.3497C12.6341 19.518 12.5992 19.7216 12.6431 19.9157C12.6871 20.1098 12.8064 20.2785 12.9747 20.3847C13.8823 20.9505 14.9304 21.2504 16 21.2504C17.0696 21.2504 18.1177 20.9505 19.0253 20.3847C19.1936 20.2785 19.3129 20.1098 19.3569 19.9157C19.4008 19.7216 19.3659 19.518 19.2597 19.3497C19.1535 19.1814 18.9848 19.0621 18.7907 19.0181C18.5966 18.9742 18.393 19.0091 18.2247 19.1153ZM25.75 16C25.75 17.9284 25.1782 19.8134 24.1068 21.4168C23.0355 23.0202 21.5127 24.2699 19.7312 25.0078C17.9496 25.7458 15.9892 25.9389 14.0979 25.5627C12.2066 25.1865 10.4693 24.2579 9.10571 22.8943C7.74215 21.5307 6.81355 19.7934 6.43735 17.9021C6.06114 16.0108 6.25422 14.0504 6.99218 12.2688C7.73013 10.4873 8.97982 8.96451 10.5832 7.89317C12.1866 6.82183 14.0716 6.25 16 6.25C18.585 6.25273 21.0634 7.28084 22.8913 9.10872C24.7192 10.9366 25.7473 13.415 25.75 16ZM24.25 16C24.2474 13.8762 23.4269 11.8351 21.9589 10.3004C20.4909 8.76565 18.4881 7.85533 16.3666 7.75844C15.28 9.28562 15.25 10.7387 15.25 10.75C15.25 10.9489 15.329 11.1397 15.4697 11.2803C15.6103 11.421 15.8011 11.5 16 11.5C16.1989 11.5 16.3897 11.421 16.5303 11.2803C16.671 11.1397 16.75 10.9489 16.75 10.75C16.75 10.5511 16.829 10.3603 16.9697 10.2197C17.1103 10.079 17.3011 10 17.5 10C17.6989 10 17.8897 10.079 18.0303 10.2197C18.171 10.3603 18.25 10.5511 18.25 10.75C18.25 11.3467 18.013 11.919 17.591 12.341C17.169 12.7629 16.5967 13 16 13C15.4033 13 14.831 12.7629 14.409 12.341C13.9871 11.919 13.75 11.3467 13.75 10.75C13.75 10.6816 13.7622 9.40937 14.5431 7.87844C12.9985 8.15557 11.5649 8.86752 10.4106 9.93074C9.25633 10.994 8.42926 12.3644 8.02643 13.8811C7.6236 15.3978 7.66173 16.998 8.13635 18.4939C8.61097 19.9897 9.50238 21.3191 10.706 22.3262C11.9096 23.3332 13.3755 23.9761 14.9316 24.1793C16.4877 24.3825 18.0695 24.1377 19.4914 23.4736C20.9132 22.8095 22.1162 21.7536 22.9591 20.4298C23.8019 19.106 24.2498 17.5693 24.25 16Z" fill="#64436E"/>
</svg>
