<svg width="80" height="93" viewBox="0 0 80 93" fill="none" xmlns="http://www.w3.org/2000/svg">
<path d="M6.04492 15.7573L17.2973 18.883" stroke="#C8E9A0" stroke-width="4" stroke-linecap="round"/>
<path d="M11.6035 2.31699L15.7348 12.0065" stroke="#595959" stroke-opacity="0.4" stroke-width="4" stroke-linecap="round"/>
<path d="M23.5488 2.31699L21.0483 11.3814" stroke="#595959" stroke-opacity="0.4" stroke-width="4" stroke-linecap="round"/>
<path d="M32.4647 14.4633C31.0661 14.1069 29.7292 14.6149 29.2355 15.9046L13.8153 56.1882C13.3216 57.4779 13.9669 58.9237 15.2566 59.4174C16.5464 59.9111 17.9921 59.2658 18.4858 57.976L32.4238 21.5647L71.3131 31.985C71.3131 31.985 54.4358 75.2424 52.3097 79.0979C50.1836 82.9533 47.1845 84.6887 42.9277 83.3494C38.471 81.9471 37.3015 76.8118 38.5518 73.8945L1.35644 60.7668C-1.14408 69.7687 -0.518927 73.2206 6.04493 76.7076C16.047 82.0212 38.0723 91.1773 45.4282 92.6485C53.2424 94.2113 56.6806 86.3972 57.9045 83.3494C59.1284 80.3016 79.0289 31.6395 79.749 29.8561C80.469 28.0727 79.5861 26.0455 77.7899 25.3579C75.9938 24.6704 33.8633 14.8196 32.4647 14.4633Z" fill="#595959" fill-opacity="0.4"/>
<path d="M32.0326 38.4133L43.2735 42.6135L47.4737 31.3725L36.2328 27.1724L32.0326 38.4133Z" fill="#F7F7F7"/>
<path d="M27.0306 50.9159L38.2715 55.1161L42.4717 43.8752L31.2308 39.675L27.0306 50.9159Z" fill="#F7F7F7"/>
<path d="M21.4046 63.4186L32.6456 67.6188L36.8458 56.3778L25.6048 52.1776L21.4046 63.4186Z" fill="#F7F7F7"/>
<path d="M46.7646 36.0716L47.2636 34.9558C47.6484 34.0953 48.5818 33.6203 49.504 33.8157L63.3101 36.7418C64.5562 37.0059 65.2412 38.352 64.7212 39.5148L64.2223 40.6306C63.8374 41.4911 62.904 41.9661 61.9818 41.7707L48.1757 38.8446C46.9296 38.5805 46.2446 37.2344 46.7646 36.0716Z" fill="#595959" fill-opacity="0.4"/>
<path d="M41.7636 48.5743L42.2626 47.4585C42.6474 46.5979 43.5808 46.1229 44.503 46.3184L58.3092 49.2444C59.5552 49.5085 60.2402 50.8546 59.7203 52.0174L59.2213 53.1332C58.8365 53.9938 57.903 54.4688 56.9808 54.2733L43.1747 51.3473C41.9286 51.0832 41.2436 49.7371 41.7636 48.5743Z" fill="#595959" fill-opacity="0.4"/>
<path d="M36.1376 61.0769L36.6366 59.9611C37.0214 59.1005 37.9549 58.6255 38.877 58.821L52.6832 61.747C53.9292 62.0111 54.6142 63.3572 54.0943 64.52L53.5953 65.6358C53.2105 66.4964 52.277 66.9714 51.3549 66.7759L37.5487 63.8499C36.3027 63.5858 35.6177 62.2397 36.1376 61.0769Z" fill="#595959" fill-opacity="0.4"/>
</svg>
