<svg width="32" height="32" viewBox="0 0 32 32" fill="none" xmlns="http://www.w3.org/2000/svg">
<rect x="0.15" y="0.15" width="31.7" height="31.7" rx="7.85" fill="#FCEEF3"/>
<rect x="0.15" y="0.15" width="31.7" height="31.7" rx="7.85" stroke="#64436E" stroke-width="0.3"/>
<g clip-path="url(#clip0_277_11486)">
<path d="M7.25 9.53503C8.35625 9.07253 9.9425 8.57378 11.485 8.41878C13.1475 8.25128 14.5575 8.49753 15.375 9.35878V21.5413C14.2063 20.8788 12.725 20.7875 11.3588 20.925C9.88375 21.075 8.39625 21.5013 7.25 21.9388V9.53503ZM16.625 9.35878C17.4425 8.49753 18.8525 8.25128 20.515 8.41878C22.0575 8.57378 23.6437 9.07253 24.75 9.53503V21.9388C23.6025 21.5013 22.1163 21.0738 20.6413 20.9263C19.2738 20.7875 17.7937 20.8775 16.625 21.5413V9.35878ZM16 8.22878C14.7688 7.17003 12.9838 7.01253 11.3588 7.17503C9.46625 7.36628 7.55625 8.01503 6.36625 8.55628C6.25706 8.60594 6.16447 8.68598 6.09953 8.78683C6.03458 8.88768 6.00003 9.00508 6 9.12503V22.875C6.00003 22.9796 6.0263 23.0825 6.0764 23.1743C6.1265 23.2661 6.19883 23.3438 6.28676 23.4004C6.3747 23.457 6.47543 23.4906 6.57973 23.4982C6.68403 23.5058 6.78856 23.4871 6.88375 23.4438C7.98625 22.9438 9.7625 22.3425 11.4838 22.1688C13.245 21.9913 14.7213 22.2775 15.5125 23.265C15.5711 23.338 15.6453 23.3969 15.7296 23.4374C15.814 23.4779 15.9064 23.4989 16 23.4989C16.0936 23.4989 16.186 23.4779 16.2704 23.4374C16.3547 23.3969 16.4289 23.338 16.4875 23.265C17.2788 22.2775 18.755 21.9913 20.515 22.1688C22.2375 22.3425 24.015 22.9438 25.1163 23.4438C25.2114 23.4871 25.316 23.5058 25.4203 23.4982C25.5246 23.4906 25.6253 23.457 25.7132 23.4004C25.8012 23.3438 25.8735 23.2661 25.9236 23.1743C25.9737 23.0825 26 22.9796 26 22.875V9.12503C26 9.00508 25.9654 8.88768 25.9005 8.78683C25.8355 8.68598 25.7429 8.60594 25.6337 8.55628C24.4438 8.01503 22.5338 7.36628 20.6413 7.17503C19.0163 7.01128 17.2312 7.17003 16 8.22878Z" fill="#64436E"/>
</g>
<defs>
<clipPath id="clip0_277_11486">
<rect width="20" height="20" fill="white" transform="translate(6 6)"/>
</clipPath>
</defs>
</svg>
