<svg width="80" height="93" viewBox="0 0 80 93" fill="none" xmlns="http://www.w3.org/2000/svg">
<path d="M6.04541 15.7573L17.2978 18.883" stroke="#E36E9A" stroke-width="4" stroke-linecap="round"/>
<path d="M11.603 2.31689L15.7343 12.0064" stroke="#595959" stroke-opacity="0.4" stroke-width="4" stroke-linecap="round"/>
<path d="M23.5483 2.31689L21.0478 11.3813" stroke="#595959" stroke-opacity="0.4" stroke-width="4" stroke-linecap="round"/>
<path d="M32.4647 14.4632C31.0661 14.1069 29.7292 14.6148 29.2355 15.9046L13.8153 56.1881C13.3216 57.4779 13.9669 58.9236 15.2566 59.4173C16.5464 59.911 17.9921 59.2657 18.4858 57.976L32.4238 21.5646L71.3131 31.985C71.3131 31.985 54.4358 75.2423 52.3097 79.0978C50.1836 82.9533 47.1845 84.6886 42.9277 83.3493C38.471 81.9471 37.3015 76.8118 38.5518 73.8945L1.35644 60.7667C-1.14408 69.7686 -0.518927 73.2205 6.04493 76.7076C16.047 82.0212 38.0723 91.1773 45.4282 92.6484C53.2424 94.2112 56.6806 86.3971 57.9045 83.3493C59.1284 80.3015 79.0289 31.6395 79.749 29.8561C80.469 28.0726 79.5861 26.0454 77.7899 25.3579C75.9938 24.6703 33.8633 14.8195 32.4647 14.4632Z" fill="#595959" fill-opacity="0.4"/>
<path d="M32.0326 38.4133L43.2735 42.6135L47.4737 31.3726L36.2328 27.1724L32.0326 38.4133Z" fill="#F7F7F7"/>
<path d="M27.0306 50.9158L38.2715 55.1159L42.4717 43.875L31.2308 39.6748L27.0306 50.9158Z" fill="#F7F7F7"/>
<path d="M21.4051 63.4184L32.6461 67.6186L36.8462 56.3777L25.6053 52.1775L21.4051 63.4184Z" fill="#F7F7F7"/>
<path d="M46.7646 36.0715L47.2636 34.9557C47.6484 34.0951 48.5818 33.6201 49.504 33.8156L63.3101 36.7416C64.5562 37.0057 65.2412 38.3518 64.7212 39.5146L64.2223 40.6304C63.8374 41.491 62.904 41.966 61.9818 41.7705L48.1757 38.8445C46.9296 38.5804 46.2446 37.2343 46.7646 36.0715Z" fill="#595959" fill-opacity="0.4"/>
<path d="M41.7641 48.5742L42.2631 47.4583C42.6479 46.5978 43.5813 46.1228 44.5035 46.3182L58.3096 49.2443C59.5557 49.5084 60.2407 50.8545 59.7207 52.0173L59.2218 53.1331C58.837 53.9936 57.9035 54.4687 56.9813 54.2732L43.1752 51.3472C41.9291 51.0831 41.2441 49.737 41.7641 48.5742Z" fill="#595959" fill-opacity="0.4"/>
<path d="M36.1376 61.0769L36.6366 59.961C37.0214 59.1005 37.9549 58.6255 38.877 58.8209L52.6832 61.747C53.9292 62.0111 54.6142 63.3572 54.0943 64.52L53.5953 65.6358C53.2105 66.4963 52.277 66.9713 51.3549 66.7759L37.5487 63.8498C36.3027 63.5857 35.6177 62.2396 36.1376 61.0769Z" fill="#595959" fill-opacity="0.4"/>
</svg>
