<svg width="17" height="17" viewBox="0 0 17 17" fill="none" xmlns="http://www.w3.org/2000/svg">
<path d="M5.16667 11.842L8.10867 11.832L14.53 5.47202C14.782 5.22002 14.9207 4.88535 14.9207 4.52935C14.9207 4.17335 14.782 3.83868 14.53 3.58668L13.4727 2.52935C12.9687 2.02535 12.0893 2.02802 11.5893 2.52735L5.16667 8.88868V11.842ZM12.53 3.47202L13.5893 4.52735L12.5247 5.58202L11.4673 4.52535L12.53 3.47202ZM6.50001 9.44468L10.52 5.46268L11.5773 6.52002L7.558 10.5007L6.50001 10.504V9.44468Z" fill="#252525"/>
<path d="M3.83333 14.5H13.1667C13.902 14.5 14.5 13.902 14.5 13.1667V7.388L13.1667 8.72133V13.1667H5.93867C5.92133 13.1667 5.90333 13.1733 5.886 13.1733C5.864 13.1733 5.842 13.1673 5.81933 13.1667H3.83333V3.83333H8.398L9.73133 2.5H3.83333C3.098 2.5 2.5 3.098 2.5 3.83333V13.1667C2.5 13.902 3.098 14.5 3.83333 14.5Z" fill="#252525"/>
</svg>
