<svg width="20" height="20" viewBox="0 0 20 20" fill="none" xmlns="http://www.w3.org/2000/svg">
<path d="M10 1.25C8.26942 1.25 6.57769 1.76318 5.13876 2.72464C3.69983 3.6861 2.57832 5.05267 1.91606 6.65152C1.25379 8.25037 1.08051 10.0097 1.41813 11.707C1.75575 13.4044 2.58911 14.9635 3.81282 16.1872C5.03653 17.4109 6.59563 18.2442 8.29296 18.5819C9.9903 18.9195 11.7496 18.7462 13.3485 18.0839C14.9473 17.4217 16.3139 16.3002 17.2754 14.8612C18.2368 13.4223 18.75 11.7306 18.75 10C18.75 7.67936 17.8281 5.45376 16.1872 3.81282C14.5462 2.17187 12.3206 1.25 10 1.25ZM10 17.5C8.51664 17.5 7.0666 17.0601 5.83323 16.236C4.59986 15.4119 3.63856 14.2406 3.07091 12.8701C2.50325 11.4997 2.35473 9.99168 2.64411 8.53682C2.9335 7.08197 3.64781 5.74559 4.6967 4.6967C5.7456 3.64781 7.08197 2.9335 8.53683 2.64411C9.99168 2.35472 11.4997 2.50325 12.8701 3.0709C14.2406 3.63856 15.4119 4.59985 16.236 5.83322C17.0601 7.06659 17.5 8.51664 17.5 10C17.5 11.9891 16.7098 13.8968 15.3033 15.3033C13.8968 16.7098 11.9891 17.5 10 17.5Z" fill="#252525"/>
<path d="M7.1875 6.875C6.87847 6.875 6.57637 6.96664 6.31942 7.13833C6.06247 7.31002 5.8622 7.55405 5.74394 7.83956C5.62568 8.12507 5.59473 8.43923 5.65502 8.74233C5.71531 9.04542 5.86413 9.32383 6.08265 9.54235C6.30117 9.76087 6.57958 9.90969 6.88267 9.96998C7.18577 10.0303 7.49993 9.99932 7.78544 9.88106C8.07095 9.7628 8.31498 9.56253 8.48667 9.30558C8.65836 9.04863 8.75 8.74653 8.75 8.4375C8.75 8.0231 8.58538 7.62567 8.29236 7.33265C7.99933 7.03962 7.6019 6.875 7.1875 6.875ZM12.8125 6.875C12.5035 6.875 12.2014 6.96664 11.9444 7.13833C11.6875 7.31002 11.4872 7.55405 11.3689 7.83956C11.2507 8.12507 11.2197 8.43923 11.28 8.74233C11.3403 9.04542 11.4891 9.32383 11.7076 9.54235C11.9262 9.76087 12.2046 9.90969 12.5077 9.96998C12.8108 10.0303 13.1249 9.99932 13.4104 9.88106C13.696 9.7628 13.94 9.56253 14.1117 9.30558C14.2834 9.04863 14.375 8.74653 14.375 8.4375C14.375 8.0231 14.2104 7.62567 13.9174 7.33265C13.6243 7.03962 13.2269 6.875 12.8125 6.875ZM6.25 12.5H13.75V13.75H6.25V12.5Z" fill="#252525"/>
</svg>
