<svg width="20" height="20" viewBox="0 0 20 20" fill="none" xmlns="http://www.w3.org/2000/svg">
<g clip-path="url(#clip0_243_4172)">
<path d="M10 0.625C4.82234 0.625 0.625 4.82234 0.625 10C0.625 15.1777 4.82234 19.375 10 19.375C15.1777 19.375 19.375 15.1777 19.375 10C19.375 4.82234 15.1777 0.625 10 0.625ZM15.7452 15.7452C14.3206 17.1656 12.4183 18.0047 10.4088 18.099C8.39935 18.1933 6.42675 17.5361 4.87536 16.2555C3.32398 14.9749 2.30495 13.1625 2.01683 11.1716C1.72871 9.18064 2.19215 7.15375 3.31684 5.48585C4.44153 3.81794 6.14691 2.62851 8.10067 2.14931C10.0544 1.6701 12.1166 1.93546 13.8854 2.89367C15.6542 3.85188 17.0029 5.43431 17.6687 7.3326C18.3345 9.2309 18.2698 11.3091 17.487 13.1622C17.079 14.1278 16.4875 15.0051 15.7452 15.7452Z" fill="#64436E"/>
<path d="M5.93753 7.8125H7.50003V9.375H5.93753V7.8125ZM12.5 7.8125H14.0625V9.375H12.5V7.8125ZM13.2144 12C12.9727 12.6101 12.5527 13.1332 12.0093 13.5011C11.4659 13.869 10.8242 14.0646 10.168 14.0625H9.83206C9.17581 14.0646 8.53413 13.869 7.99069 13.5011C7.44726 13.1332 7.02727 12.6101 6.7855 12L6.73554 11.875H5.3894L5.62503 12.4641C5.96135 13.3049 6.5419 14.0257 7.29178 14.5334C8.04166 15.0411 8.92647 15.3125 9.83206 15.3125H10.168C11.0736 15.3125 11.9584 15.0411 12.7083 14.5334C13.4582 14.0257 14.0387 13.3049 14.375 12.4641L14.6107 11.875H13.2644L13.2144 12Z" fill="#64436E"/>
</g>
<defs>
<clipPath id="clip0_243_4172">
<rect width="20" height="20" fill="white"/>
</clipPath>
</defs>
</svg>
