<svg width="20" height="20" viewBox="0 0 20 20" fill="none" xmlns="http://www.w3.org/2000/svg">
<path d="M7.5 8.75C8.19036 8.75 8.75 8.19036 8.75 7.5C8.75 6.80964 8.19036 6.25 7.5 6.25C6.80964 6.25 6.25 6.80964 6.25 7.5C6.25 8.19036 6.80964 8.75 7.5 8.75Z" fill="#252525"/>
<path d="M12.5 8.75C13.1904 8.75 13.75 8.19036 13.75 7.5C13.75 6.80964 13.1904 6.25 12.5 6.25C11.8096 6.25 11.25 6.80964 11.25 7.5C11.25 8.19036 11.8096 8.75 12.5 8.75Z" fill="#252525"/>
<path d="M10 18.75C5.175 18.75 1.25 14.825 1.25 10C1.25 5.175 5.175 1.25 10 1.25C14.825 1.25 18.75 5.175 18.75 10C18.75 14.825 14.825 18.75 10 18.75ZM10 2.5C5.8625 2.5 2.5 5.8625 2.5 10C2.5 14.1375 5.8625 17.5 10 17.5C14.1375 17.5 17.5 14.1375 17.5 10C17.5 5.8625 14.1375 2.5 10 2.5Z" fill="#252525"/>
<path d="M13.5374 14.375C13.2749 14.375 13.0374 14.2125 12.9499 13.9625C12.7349 13.3518 12.3356 12.8229 11.8073 12.4487C11.2789 12.0746 10.6474 11.8736 9.99992 11.8736C9.35247 11.8736 8.72097 12.0746 8.19258 12.4487C7.66418 12.8229 7.26493 13.3518 7.04992 13.9625C6.93742 14.2875 6.57492 14.4625 6.24992 14.3375C6.17208 14.3106 6.10043 14.2683 6.03921 14.2132C5.97798 14.1581 5.92843 14.0913 5.89347 14.0167C5.85851 13.9421 5.83885 13.8613 5.83567 13.779C5.83248 13.6967 5.84583 13.6146 5.87492 13.5375C6.48742 11.7875 8.14992 10.625 9.99992 10.625C11.8499 10.625 13.5124 11.8 14.1249 13.5375C14.1587 13.6319 14.1694 13.733 14.156 13.8323C14.1426 13.9317 14.1056 14.0263 14.0481 14.1084C13.9905 14.1905 13.9141 14.2575 13.8252 14.3039C13.7364 14.3503 13.6377 14.3747 13.5374 14.375Z" fill="#252525"/>
</svg>
