<svg width="40" height="41" viewBox="0 0 40 41" fill="none" xmlns="http://www.w3.org/2000/svg">
<path d="M35.4231 20.484C35.4231 20.13 35.2491 19.8188 34.9843 19.6236L34.9899 19.614L31.2603 17.4608L33.4071 13.7424L33.3999 13.738C33.4678 13.5848 33.4985 13.4177 33.4897 13.2504C33.4808 13.083 33.4327 12.9201 33.3491 12.7748C33.265 12.6297 33.1478 12.5065 33.007 12.4151C32.8663 12.3238 32.706 12.267 32.5391 12.2492V12.2388H28.2319V7.94402H28.2231C28.2052 7.7774 28.1483 7.61735 28.057 7.47683C27.9657 7.33631 27.8425 7.21928 27.6975 7.13522C27.5521 7.05141 27.3888 7.0032 27.2211 6.99451C27.0535 6.98582 26.8861 7.0169 26.7327 7.08522L26.7275 7.07602L22.9351 9.26562L20.8351 5.62802L20.8275 5.63242C20.7287 5.49712 20.5993 5.38699 20.45 5.31097C20.3007 5.23494 20.1355 5.19515 19.9679 5.19482C19.6139 5.19482 19.3023 5.36882 19.1075 5.63362L19.0979 5.62802L16.9631 9.32562L13.2871 7.20322L13.2827 7.21082C13.1295 7.14301 12.9624 7.11228 12.7951 7.1211C12.6277 7.12993 12.4648 7.17807 12.3195 7.26162C12.1743 7.34573 12.051 7.46292 11.9596 7.60366C11.8682 7.74441 11.8113 7.90475 11.7935 8.07162H11.7827V12.3412H7.53795V12.3496C7.37133 12.3675 7.21127 12.4245 7.07075 12.5158C6.93023 12.6071 6.8132 12.7302 6.72915 12.8752C6.64556 13.0206 6.59743 13.1837 6.58868 13.3512C6.57992 13.5187 6.61078 13.6859 6.67875 13.8392L6.66955 13.8448L8.76795 17.4796L5.01035 19.6492L5.01475 19.6568C4.87944 19.7557 4.76932 19.885 4.69329 20.0344C4.61727 20.1837 4.57748 20.3488 4.57715 20.5164C4.57715 20.8704 4.75115 21.182 5.01595 21.3768L5.01035 21.3864L8.73995 23.5396L6.59315 27.258L6.60035 27.262C6.53254 27.4153 6.5018 27.5823 6.51063 27.7497C6.51945 27.917 6.56759 28.08 6.65115 28.2252C6.73532 28.3704 6.85254 28.4936 6.99328 28.5849C7.13402 28.6762 7.29432 28.7331 7.46115 28.7508V28.7616H11.7679V33.056H11.7767C11.8135 33.3824 11.9963 33.688 12.3023 33.8648C12.4479 33.9485 12.6111 33.9967 12.7788 34.0054C12.9464 34.0141 13.1138 33.9831 13.2671 33.9148L13.2723 33.924L17.0647 31.7344L19.1647 35.372L19.1723 35.3676C19.2712 35.5029 19.4005 35.6131 19.5499 35.6891C19.6992 35.7651 19.8644 35.8049 20.0319 35.8052C20.3859 35.8052 20.6975 35.6312 20.8923 35.3668L20.9015 35.372L23.0363 31.6744L26.7127 33.7968L26.7171 33.7892C26.8704 33.857 27.0375 33.8878 27.2048 33.8789C27.3722 33.8701 27.5351 33.822 27.6803 33.7384C27.8256 33.6543 27.9489 33.5371 28.0403 33.3964C28.1317 33.2556 28.1886 33.0953 28.2063 32.9284H28.2171V28.6592H32.4623V28.6508C32.629 28.6329 32.789 28.576 32.9295 28.4847C33.0701 28.3933 33.1871 28.2702 33.2711 28.1252C33.3547 27.9797 33.4028 27.8166 33.4116 27.649C33.4203 27.4815 33.3895 27.3142 33.3215 27.1608L33.3307 27.1556L31.2323 23.5208L34.9899 21.3512L34.9855 21.3436C35.1209 21.2448 35.2311 21.1155 35.3071 20.9661C35.3831 20.8168 35.4229 20.6516 35.4231 20.484ZM17.4859 25.042L13.5475 23.302L15.2855 26.312L14.3031 26.8792L11.6383 22.2644L12.6483 21.6808L16.4603 23.3456L14.7863 20.4464L15.7691 19.8792L18.4331 24.494L17.4859 25.042ZM19.3467 23.9676L16.6823 19.3524L19.9483 17.4672L20.4475 18.332L18.1639 19.65L18.7231 20.6188L20.9579 19.3288L21.4571 20.1928L19.2223 21.4836L19.8295 22.5352L22.1131 21.2172L22.6123 22.082L19.3467 23.9676ZM26.9091 19.6016L24.2699 16.9L25.2967 20.532L24.2523 21.1352L20.2663 17.2836L21.3663 16.6484L24.1015 19.5156L23.0547 15.6736L23.8227 15.2304L26.6199 18.062L25.5039 14.2596L26.6039 13.6244L27.9539 18.9988L26.9091 19.6016Z" fill="#00C0B0"/>
</svg>
