<svg width="32" height="32" viewBox="0 0 32 32" fill="none" xmlns="http://www.w3.org/2000/svg">
<rect width="32" height="32" rx="8" fill="#EBFFFD"/>
<path d="M16.0001 9.24999L15.5526 9.02649V9.02799L15.5511 9.02999L15.5481 9.03649L15.5376 9.05799C15.4853 9.16977 15.437 9.28334 15.3926 9.39849C15.2823 9.68361 15.196 9.97747 15.1346 10.277C15.0026 10.9375 14.9591 11.916 15.6466 12.6035C15.9591 12.916 16.0026 13.4375 15.8846 14.027C15.8148 14.367 15.7057 14.6977 15.5596 15.0125L15.5536 15.025L15.5526 15.0265L16.0001 15.25C16.4471 15.4735 16.4476 15.473 16.4476 15.473V15.472L16.4491 15.47L16.4521 15.4635L16.4626 15.442L16.4976 15.367C16.6618 15.0005 16.7852 14.617 16.8656 14.2235C16.9976 13.5625 17.0411 12.584 16.3536 11.8965C16.0411 11.584 15.9976 11.0625 16.1156 10.473C16.1855 10.133 16.2945 9.80231 16.4406 9.48749L16.4466 9.47499L16.4476 9.47349L16.0001 9.24999Z" fill="#00C0B0"/>
<path fill-rule="evenodd" clip-rule="evenodd" d="M6 18.5C6 18.3674 6.05268 18.2402 6.14645 18.1464C6.24021 18.0527 6.36739 18 6.5 18H25.5C25.6326 18 25.7598 18.0527 25.8536 18.1464C25.9473 18.2402 26 18.3674 26 18.5C26 18.6326 25.9473 18.7598 25.8536 18.8536C25.7598 18.9473 25.6326 19 25.5 19H24C24 20.0609 23.5786 21.0783 22.8284 21.8284C22.0783 22.5786 21.0609 23 20 23H12C10.9391 23 9.92172 22.5786 9.17157 21.8284C8.42143 21.0783 8 20.0609 8 19H6.5C6.36739 19 6.24021 18.9473 6.14645 18.8536C6.05268 18.7598 6 18.6326 6 18.5ZM9 19H23C23 19.7956 22.6839 20.5587 22.1213 21.1213C21.5587 21.6839 20.7956 22 20 22H12C11.2044 22 10.4413 21.6839 9.87868 21.1213C9.31607 20.5587 9 19.7956 9 19Z" fill="#00C0B0"/>
<path d="M11.5849 10.2205L11.9999 10.5005C12.4144 10.78 12.4149 10.7795 12.4149 10.7795L12.4084 10.7895C12.3645 10.8594 12.3235 10.9312 12.2854 11.0045C12.1909 11.1839 12.1154 11.3728 12.0604 11.568C11.9404 12.014 11.9834 12.366 12.2974 12.598C13.1084 13.199 13.0654 14.0975 12.9044 14.693C12.8308 14.9576 12.7294 15.2137 12.6019 15.457C12.5497 15.5573 12.4933 15.6554 12.4329 15.751L12.4229 15.767L12.4204 15.7705L12.4164 15.7765L12.4154 15.7785L12.4149 15.779C12.4149 15.779 12.4144 15.78 11.9999 15.5C11.5854 15.22 11.5849 15.2205 11.5849 15.2205L11.5914 15.211L11.6184 15.168C11.652 15.1116 11.684 15.0542 11.7144 14.996C11.7919 14.847 11.8809 14.647 11.9394 14.432C12.0594 13.986 12.0164 13.6345 11.7024 13.402C10.8914 12.801 10.9344 11.903 11.0954 11.307C11.1779 11.001 11.2999 10.732 11.3979 10.543C11.4537 10.436 11.5143 10.3315 11.5794 10.23L11.5829 10.224L11.5844 10.2215L11.5849 10.2205ZM20.4999 10.5C20.0854 10.22 20.0849 10.2205 20.0849 10.2205V10.2215L20.0829 10.224L20.0789 10.23C20.0128 10.3308 19.9524 10.4353 19.8979 10.543C19.7999 10.732 19.6779 11.001 19.5954 11.307C19.4344 11.9025 19.3914 12.801 20.2024 13.402C20.5164 13.6345 20.5594 13.986 20.4389 14.432C20.3809 14.647 20.2919 14.847 20.2139 14.996C20.176 15.0693 20.1351 15.141 20.0914 15.211L20.0854 15.221L20.4999 15.5C20.9144 15.78 20.9149 15.779 20.9149 15.779V15.7785L20.9169 15.7765L20.9209 15.7705L20.9284 15.758L20.9334 15.751C20.9938 15.6554 21.0502 15.5573 21.1024 15.457C21.2295 15.2136 21.3307 14.9575 21.4044 14.693C21.5654 14.0975 21.6084 13.199 20.7974 12.598C20.4834 12.3655 20.4404 12.014 20.5609 11.568C20.6189 11.353 20.7079 11.153 20.7859 11.004C20.8238 10.9307 20.8647 10.8589 20.9084 10.789L20.9144 10.7795L20.4999 10.5Z" fill="#00C0B0"/>
</svg>
