<svg width="280" height="280" viewBox="0 0 280 280" fill="none" xmlns="http://www.w3.org/2000/svg">
<path d="M49.2798 141.68C47.8798 143.64 46.4798 145.6 44.5198 147C42.2798 148.68 30.2398 148.96 20.1598 146.72C19.5998 146.44 18.1998 150.08 17.6398 150.08C17.0798 150.36 16.2398 150.64 15.9598 151.2C15.6798 152.6 17.0798 154 18.1998 154C26.0398 155.4 34.1598 155.68 42.5598 155.68C43.9598 155.68 45.3598 155.68 46.7598 155.12C48.1598 154.56 49.5598 153.72 50.6798 152.88C53.4798 150.92 55.9998 148.4 58.2398 146.16C64.3998 140 70.5598 133.56 75.0398 126.56C76.1598 124.88 76.9998 123.48 77.2798 121.8C77.5598 120.4 76.9998 119 76.4398 117.88C75.0398 115.08 71.9598 113.12 68.0398 113.68C64.9598 113.96 62.7198 115.36 61.8798 118.16C61.0398 120.96 59.9198 123.76 58.5198 126.28C56.5598 131.32 52.9198 136.36 49.2798 141.68Z" fill="#ED7115"/>
<path d="M93.2398 61.6C100.8 57.4 109.76 55.72 118.44 54.6C157.08 49.28 196.56 48.72 234.36 57.68C239.4 58.8 244.44 60.2 248.36 63.84C253.68 68.6 255.08 76.72 253.96 84C252.84 91.28 249.48 97.72 246.4 104.44C232.68 134.12 224.84 168.56 235.48 199.64C237.44 205.24 239.68 210.84 239.4 216.72C238.56 225.4 231.84 232.12 224.84 236.88C215.04 243.6 203.84 248.36 192.08 251.16C189 251.72 185.92 252.28 183.12 251.72C180.04 251.16 177.24 249.76 174.72 248.08C159.6 238.84 147.56 225.12 137.76 210.56C127.96 195.72 119.84 180.04 110.88 164.64C103.32 151.76 94.9198 139.44 88.7598 125.72C79.5198 106.68 70.2798 74.48 93.2398 61.6Z" fill="#FFB133"/>
<path d="M86.2399 63.84C93.7999 59.64 102.76 57.96 111.44 56.84C150.08 51.52 189.56 50.96 227.36 59.92C232.4 61.04 237.44 62.72 241.36 66.08C246.68 71.12 248.08 78.96 246.96 86.24C245.84 93.52 242.48 99.96 239.4 106.68C225.68 136.64 217.84 171.36 228.48 202.72C230.44 208.32 232.68 213.92 232.4 219.8C231.56 228.48 224.84 235.2 217.84 240.24C207.76 247.24 196.56 252 184.8 254.8C181.72 255.36 178.64 255.92 175.84 255.36C172.76 254.8 169.96 253.4 167.44 251.72C152.32 242.48 140.28 228.76 130.48 213.92C120.68 199.08 112.56 183.12 103.6 167.72C96.0399 154.84 87.6399 142.24 81.4799 128.52C72.5199 109.2 63.2799 76.72 86.2399 63.84Z" fill="#FF931D"/>
<path d="M152.04 75.04L87.9199 69.16C81.7599 68.6 76.1599 71.96 73.6399 77.56C68.0399 89.88 59.3599 113.4 59.3599 139.72C59.3599 168.84 64.9599 212.52 67.7599 232.68C68.5999 239.12 73.6399 244.16 80.0799 245L177.52 256.76C187.04 257.88 194.88 249.48 193.2 240.24C189.84 220.36 185.64 188.44 187.6 162.4C189.56 138.04 196 112.84 201.04 96.88C203.84 88.2 197.68 79.24 188.44 78.4L152.04 75.04Z" fill="#FFB133"/>
<path d="M196.56 69.72C205.52 71.4 215.6 74.2 220.08 82.04C223.72 88.2 222.88 96.04 221.48 103.04C218.4 117.32 213.08 131.04 210 145.6C206.64 159.88 205.24 175.28 209.44 189.28C206.36 173.6 209.44 157.64 215.04 142.8C220.64 127.96 228.2 113.96 234.92 99.68C237.72 93.52 240.52 86.52 238.84 79.8C237.44 75.04 234.08 70.84 229.88 68.32C225.68 65.52 220.64 64.12 215.88 63C203.56 60.2 191.24 59.08 178.64 58.24C161 57.12 143.36 56.28 125.72 55.72C119.56 55.44 113.12 55.44 106.96 56.56C103.88 57.12 101.36 58.24 98.5599 59.36C96.5999 60.2 92.6799 61.32 90.1599 62.44C96.8799 62.72 104.44 62.16 111.16 62.16C118.16 62.16 125.16 62.16 132.16 62.44C145.88 63 159.6 64.4 173.32 66.08C180.88 66.92 188.72 68.32 196.56 69.72Z" fill="#AA4E0F"/>
<path d="M209.16 68.04C217.28 70.28 226.24 74.2 229.88 82.04C231.84 86.8 231.56 92.4 230.44 97.44C229.32 102.48 227.64 107.52 227.08 112.84C231.56 106.68 235.48 100.24 237.16 92.68C238.56 85.4 237.44 77 232.12 71.4C226.8 65.8 218.68 63.84 211.12 62.44C185.36 58.52 159.6 56.84 134.12 56C131.04 56 127.96 55.72 124.88 55.72C123.76 55.72 116.2 54.88 115.64 55.72C114.8 57.12 121.52 57.12 122.36 57.12C125.44 57.4 128.52 57.68 131.6 57.96C143.92 58.8 156.24 59.64 168.56 61.04C182.28 62.16 196 64.4 209.16 68.04Z" fill="#843D0D"/>
<path d="M107.52 56.2799C115.08 55.7199 122.64 55.7199 130.2 55.9999C138.32 56.2799 146.44 56.5599 154.56 57.1199C170.52 58.2399 186.48 59.9199 202.44 61.8799C210.56 62.9999 218.96 64.1199 225.96 68.3199C231.84 71.6799 236.88 76.9999 237.16 84.2799C237.16 88.7599 235.48 92.9599 233.8 97.1599C232.12 101.08 230.16 105 228.48 108.92C224.84 116.76 221.2 124.6 217.84 132.44C210.56 149.8 204.96 168 206.36 187.04C206.36 188.72 209.16 188.72 209.16 187.04C207.76 169.4 212.8 152.32 219.24 136.36C222.6 128.24 226.52 120.12 230.16 112C232.12 107.8 234.08 103.88 236.04 99.6798C238 95.7598 239.68 91.8399 240.24 87.6399C241.36 80.3599 238 73.9199 232.68 69.4399C226.8 64.3999 219.52 62.1599 211.96 61.0399C203.84 59.6399 195.72 58.7999 187.6 57.9599C179.2 57.3999 170.8 56.5599 162.4 55.9999C152.88 55.1599 143.36 54.5999 134.12 54.5999C125.44 54.5999 116.48 55.1599 107.52 55.9999C107.24 55.7199 107.24 56.2799 107.52 56.2799Z" fill="#ED7115"/>
<path d="M222.32 96.3199C221.76 98.8399 221.48 101.64 220.92 104.16C220.64 106.12 220.08 108.08 219.52 110.32L255.08 72.7999L246.4 66.3599L222.32 91.5599C222.88 92.9599 222.6 94.6399 222.32 96.3199Z" fill="#FF3627"/>
<path d="M222.32 96.3201C222.32 96.6001 222.32 96.8801 222.04 97.1601L248.92 68.88L246.68 65.8L222.6 91.28C222.88 92.96 222.6 94.6401 222.32 96.3201Z" fill="#E22924"/>
<path d="M256.2 71.12C255.64 71.96 255.08 72.8 254.24 73.08C253.4 73.36 252.28 72.8 252.28 71.96C251.72 72.24 250.88 72.24 250.32 71.96C249.76 71.4 249.48 70.56 250.04 70C249.48 70.28 248.64 70.28 248.08 70C247.52 69.72 247.52 68.6 248.08 68.32C247.24 68.32 246.4 68.04 246.4 67.48C246.12 66.64 246.68 66.08 247.52 65.52C252.56 61.6 257.6 57.96 262.92 54.6C263.2 54.32 263.76 54.04 264.32 54.04C265.16 54.04 266 54.6 266 55.44C266.28 56.56 265.44 57.68 264.6 58.52C263.76 59.92 262.64 61.32 261.8 62.72C259.84 65.52 257.88 68.32 256.2 71.12Z" fill="#FFD98D"/>
<path opacity="0.39" d="M255.08 71.12C254.8 71.4 254.52 71.68 254.24 71.68C253.96 71.68 253.96 71.12 253.96 70.84C253.68 71.12 253.68 71.4 253.12 71.68C252.84 71.68 252.28 71.4 252.56 71.12C252.28 71.4 251.72 71.68 251.44 71.4C251.16 71.12 251.44 70.56 251.72 70C255.64 66.08 259.56 61.88 263.2 57.4C263.76 56.84 264.32 56 264.88 55.44C265.44 54.88 265.72 55.44 265.44 56C265.44 56.56 264.88 56.84 264.6 57.12C263.76 58.24 262.92 59.36 262.08 60.48C260.4 62.72 259 65.24 257.32 67.76C256.76 68.6 255.92 70 255.08 71.12Z" fill="white"/>
<path d="M270.2 50.4C270.48 49.84 270.76 49.56 270.76 49C270.76 48.72 270.76 48.72 270.48 48.44C270.2 48.16 269.64 48.44 269.36 48.72C266.84 50.4 264.6 52.36 262.64 54.32C262.36 54.6 262.36 54.6 262.08 54.88C261.8 55.72 262.08 56.56 262.92 57.12C263.48 57.4 264.6 57.68 265.16 57.4C265.72 57.12 266.56 55.72 266.84 55.16C267.96 53.76 269.08 52.08 270.2 50.4Z" fill="#FF3627"/>
<path d="M208.88 73.0799C210 73.6399 211.12 74.1999 212.24 74.7599C212.52 75.0399 213.08 75.0399 213.36 75.3199L223.72 47.8799L213.64 45.3599L203.84 71.1199C205.52 71.9599 207.2 72.2399 208.88 73.0799Z" fill="#6A9E2E"/>
<path d="M207.2 72.24L216.72 46.7601L213.64 44.8L203.84 70.84C204.96 71.4 206.08 71.96 207.2 72.24Z" fill="#5E8729"/>
<path d="M224 45.92C224 46.76 223.72 47.6 223.16 48.44C222.6 49.28 221.2 49 220.92 48.16C220.64 48.72 219.8 49 219.24 48.72C218.68 48.44 218.12 47.88 218.12 47.04C217.84 47.6 217 47.88 216.44 47.88C215.88 47.6 215.32 47.04 215.6 46.48C215.04 46.76 214.2 46.76 213.64 46.2C213.08 45.64 213.36 44.8 213.92 44.24C217 38.92 220.08 33.88 223.44 28.84C223.72 28.56 224 28 224.28 27.72C225.12 27.44 225.96 27.72 226.52 28.28C227.08 29.4 226.8 30.52 226.52 31.64C226.24 33.32 225.96 34.72 225.4 36.4C225.12 39.76 224.56 42.84 224 45.92Z" fill="#FFD98D"/>
<path opacity="0.39" d="M223.16 46.4799C223.16 46.7599 222.88 47.3199 222.6 47.3199C222.32 47.3199 222.04 47.0399 221.76 46.4799C221.76 46.7599 221.76 47.3199 221.48 47.3199C221.2 47.5999 220.64 47.3199 220.64 47.0399C220.36 47.3199 220.08 47.8799 219.8 47.5999C219.24 47.3199 219.52 46.7599 219.52 46.4799C221.48 41.4399 223.44 36.1199 224.84 31.0799C225.12 30.2399 225.4 29.3999 225.68 28.5599C225.96 27.9999 226.24 28.2799 226.52 28.8399C226.52 29.1199 226.24 29.6799 226.24 30.2399C225.96 31.6399 225.68 32.7599 225.4 34.1599C224.84 36.9599 224.28 39.4799 224 42.2799C223.72 43.6799 223.44 45.0799 223.16 46.4799Z" fill="white"/>
<path d="M228.76 22.4C228.76 21.84 229.04 21.28 228.48 21L228.2 20.72C227.92 20.72 227.64 21 227.36 21.28C225.68 23.8 224.56 26.32 223.44 28.84C223.44 29.12 223.16 29.4 223.16 29.68C223.16 30.52 223.72 31.36 224.56 31.36C225.12 31.36 226.24 31.36 226.8 30.8C227.36 30.24 227.36 28.84 227.36 28.28C227.92 26.32 228.48 24.36 228.76 22.4Z" fill="#5E8729"/>
<path d="M172.76 64.96C173.6 64.96 174.72 65.24 175.56 65.24L170.24 42L161.84 45.08L166.6 64.96C168.56 64.96 170.8 64.96 172.76 64.96Z" fill="#A150FF"/>
<path d="M169.68 64.9601L164.92 44.8H161.84L166.6 64.6801C167.44 64.9601 168.56 64.9601 169.68 64.9601Z" fill="#893EFF"/>
<path d="M169.68 40.5999C169.96 41.1599 170.24 41.9999 170.24 42.8399C169.96 43.6799 169.12 44.2399 168.56 43.6799C168.56 44.2399 168.28 44.7999 167.72 45.0799C167.16 45.3599 166.6 45.0799 166.32 44.5199C166.32 45.0799 166.04 45.6399 165.48 45.9199C164.92 46.1999 164.36 45.6399 164.36 45.0799C164.08 45.6399 163.52 45.9199 162.96 45.9199C162.4 45.6399 162.12 45.0799 162.12 44.5199C161.84 39.4799 161.56 34.1599 161.56 29.1199C161.56 28.8399 161.56 28.2799 161.84 27.9999C162.12 27.4399 162.96 27.1599 163.8 27.4399C164.64 27.7199 164.92 28.8399 165.48 29.6799C166.04 31.0799 166.6 32.1999 166.88 33.5999C167.44 35.8399 168.56 38.3599 169.68 40.5999Z" fill="#FFD98D"/>
<path opacity="0.39" d="M169.4 41.44C169.4 41.72 169.68 42 169.4 42.28C169.12 42.56 168.84 42.28 168.56 42C168.56 42.28 168.84 42.56 168.84 42.84C168.84 43.12 168.28 43.12 168.28 43.12C168.28 43.4 168.28 43.96 168 43.96C167.72 43.96 167.44 43.68 167.16 43.12C166.32 38.64 164.92 34.16 163.8 29.68C163.52 29.12 163.24 28.28 163.24 27.44C163.24 26.88 163.52 26.88 163.8 27.16C164.08 27.44 164.08 28 164.08 28.28C164.36 29.4 164.92 30.52 165.2 31.36C166.04 33.6 167.16 35.56 168 37.8C168.28 39.2 168.84 40.32 169.4 41.44Z" fill="white"/>
<path d="M161.84 21.84C161.56 21.56 161.56 21 161 21H160.72C160.44 21 160.44 21.56 160.44 21.84C160.44 24.36 160.72 26.6 161.28 29.12C161.28 29.4 161.28 29.68 161.56 29.68C161.84 30.24 162.68 30.52 163.52 30.24C164.08 29.96 164.64 29.4 164.92 28.84C164.92 28.28 164.36 27.16 164.08 26.6C163.24 24.92 162.68 23.52 161.84 21.84Z" fill="#A150FF"/>
<path d="M210 244.16C213.92 242.76 214.76 236.6 215.88 233.24C217.28 227.64 218.12 222.32 217.28 216.72C215.6 205.8 210 195.72 208.6 184.52C208.04 181.16 203.28 181.72 203.84 185.08C206.08 195.16 210.56 204.4 212.8 214.48C213.36 217.28 213.92 219.8 213.92 222.6C213.92 225.12 213.36 227.92 213.08 230.44C212.8 232.68 212.52 235.2 212.24 237.72C211.96 238.84 211.96 239.68 211.4 240.52C211.12 241.64 210.28 242.76 209.72 243.88C209.72 243.88 209.72 244.16 210 244.16Z" fill="#ED7115"/>
<path d="M76.72 238.56C75.04 235.76 74.2 232.68 73.64 229.32C69.16 206.64 68.88 183.4 68.6 160.44C68.32 142.8 68.04 124.88 72.24 107.52C75.04 96.32 80.08 84.84 90.16 79.24C96.32 75.88 103.6 75.32 110.6 74.48C116.2 73.92 121.8 73.64 127.4 73.08C116.76 71.12 105.84 69.72 94.92 68.88C90.72 68.6 86.52 68.32 82.6 69.72C75.6 72.24 71.4 79.8 68.88 86.8C64.4 98.84 62.44 111.44 60.48 124.04C59.36 131.32 58.24 138.6 58.24 145.88C58.24 153.44 59.64 161 60.48 168.56C63 189.56 62.16 211.4 68.04 231.56C69.16 235.48 70.84 239.68 74.48 241.64C77.84 243.6 82.32 242.76 85.68 245C82.32 243.32 78.96 242.2 76.72 238.56Z" fill="#FF931D"/>
<path d="M180.04 259.28C179.48 259.28 178.64 259.28 178.08 259.28L80.6399 247.52C73.0799 246.68 66.9199 240.8 65.7999 232.96C62.7199 210.28 57.3999 168.28 57.3999 139.44C57.3999 112.28 66.3599 88.2001 71.6799 76.1601C74.7599 69.7201 81.4799 65.5201 88.7599 66.3601L152.88 72.2401L189.84 75.3201C194.88 75.8801 199.64 78.4001 202.44 82.6001C205.24 86.8001 206.08 92.1201 204.68 97.1601C199.64 113.4 193.2 138.04 191.24 161.84C189.28 187.04 193.2 217.84 196.84 239.12C197.68 244.44 196 249.76 192.36 253.68C189 257.32 184.8 259.28 180.04 259.28ZM87.0799 71.6801C82.5999 71.6801 78.3999 74.4801 76.4399 78.6801C71.1199 90.1601 62.4399 113.68 62.4399 139.72C62.4399 169.12 68.3199 214.2 70.8399 232.4C71.6799 237.72 75.8799 241.64 80.9199 242.48L178.36 254.24C182 254.8 185.64 253.4 188.16 250.6C190.68 247.8 191.8 244.16 191.24 240.52C187.6 218.96 183.68 187.88 185.64 161.84C187.6 137.48 194.04 112.56 199.36 95.7601C200.48 92.4001 199.92 88.7601 197.96 85.6801C196 82.6001 192.92 80.9201 189.28 80.6401L152.32 77.5601L88.1999 71.6801C87.9199 71.6801 87.6399 71.6801 87.0799 71.6801Z" fill="#FFDB45"/>
<path d="M77.56 89.88C77.28 90.16 77 90.7201 77 91.0001C77 91.5601 77.84 92.1201 78.4 92.1201C78.96 92.1201 79.8 91.8401 80.36 91.5601C84.84 89.6001 89.32 87.3601 93.8 85.1201C94.36 84.8401 95.2 84.2801 95.48 83.7201C96.04 83.1601 96.04 82.3201 95.48 81.7601C95.2 81.4801 94.64 81.2001 94.08 80.9201C88.48 79.8001 80.92 85.4 77.56 89.88Z" fill="#AA4E0F"/>
<path d="M170.8 97.44C171.08 98 171.08 98.28 171.08 98.84C170.8 99.4 169.96 99.96 169.4 99.68C168.84 99.68 168 99.12 167.44 98.84C163.52 95.76 159.6 92.96 155.68 89.6C155.12 89.04 154.56 88.48 154.28 87.92C154 87.36 154 86.24 154.56 85.96C154.84 85.68 155.4 85.68 155.96 85.4C162.68 85.12 168.56 92.12 170.8 97.44Z" fill="#AA4E0F"/>
<path d="M107.52 171.92C111.44 176.4 117.6 179.2 123.2 178.08C127.12 177.24 130.48 175 133.28 172.2C138.04 167.72 141.68 162.4 143.92 156.24C141.68 168.56 139.16 180.88 134.4 192.36C132.44 197.12 130.48 201.88 126 204.4C122.64 206.08 114.8 207.2 110.88 202.16C99.6798 187.32 98.5598 167.16 96.3198 151.76C97.1598 155.12 104.72 169.12 107.52 171.92Z" fill="#413E49"/>
<path d="M133.28 172.2C130.48 175 127.12 177.24 123.2 178.08C117.32 179.2 111.44 176.12 107.52 171.92C106.4 170.8 105 168.56 103.32 165.76C103.32 166.04 103.32 166.32 103.32 166.6C103.88 170.24 104.44 173.88 105 177.52C105.56 180.32 105.84 183.12 107.8 185.08C110.32 188.16 114.8 188.72 118.72 188.72C122.08 188.72 125.16 188.44 128.52 188.16C130.48 187.88 132.72 187.32 133.56 185.36C133.84 184.8 133.84 184.24 133.84 183.68C134.4 179.2 134.96 175 135.24 170.52C134.68 170.8 133.84 171.64 133.28 172.2Z" fill="white"/>
<path d="M93.2399 151.76C93.5199 151.48 93.7999 150.92 94.0799 150.64C94.3599 150.36 94.6399 150.08 94.9199 149.8C95.7599 149.24 96.5999 149.24 97.4399 149.52C97.4399 149.24 97.7199 148.96 97.7199 148.68C97.4399 148.4 97.1599 148.4 97.1599 148.68C97.1599 148.96 97.1599 149.24 97.4399 149.52C97.9999 149.52 98.2799 148.96 97.7199 148.68C96.5999 148.12 95.4799 148.4 94.6399 148.96C94.0799 149.24 93.7999 149.52 93.5199 150.08C93.2399 150.64 92.9599 150.92 93.2399 151.76Z" fill="#413E49"/>
<path d="M143.08 154.28C143.36 154.28 143.64 154.28 143.92 154.28C144.2 154.28 144.48 154.28 144.76 154.56C145.32 154.84 145.88 155.12 146.16 155.68C146.44 156.24 146.72 156.52 146.72 157.08C146.72 157.36 146.72 157.92 146.72 158.2C146.72 158.48 146.44 159.04 146.72 159.32C146.72 159.6 147 159.6 147.28 159.32C147.56 159.04 147.56 158.48 147.56 158.2C147.56 157.64 147.56 157.36 147.56 156.8C147.56 155.96 147.28 155.4 146.72 154.84C146.16 154.28 145.6 153.72 145.04 153.72C144.76 153.72 144.2 153.44 143.92 153.44C143.64 153.44 143.08 153.44 143.08 153.72C142.52 154 142.8 154.28 143.08 154.28Z" fill="#413E49"/>
<path d="M15.6799 143.08C14.8399 141.96 13.9999 140 13.9999 138.6C13.9999 137.2 14.2799 135.8 13.9999 134.4C13.9999 133.84 13.7199 133.28 13.1599 133.28C12.5999 133.28 12.0399 133.84 11.7599 134.68C11.1999 136.64 10.6399 138.88 10.6399 140.84C8.95989 140.28 6.99989 140.84 5.59989 141.96C5.03989 142.52 4.75989 143.08 4.75989 143.64C4.75989 144.2 5.03989 145.04 5.59989 145.32C4.47989 145.32 3.63989 146.16 3.63989 147.28C3.63989 148.12 4.19989 149.24 5.03989 149.52C4.19989 150.08 3.63989 151.2 4.19989 152.04C4.47989 152.88 5.31989 153.72 6.43989 154C7.55989 154.28 8.39989 154.28 9.51989 154.28C13.4399 154.28 17.3599 153.16 20.9999 153.72C22.1199 153.72 23.2399 154 24.0799 153.44C24.9199 152.88 24.9199 151.76 25.1999 150.92C25.1999 150.08 25.1999 149.24 24.6399 148.4C24.3599 147.84 23.7999 147.84 23.2399 147.56C20.1599 146.72 17.9199 145.6 15.6799 143.08Z" fill="#ED7115"/>
<path d="M220.08 168C230.44 182.84 245.56 194.32 262.64 199.92C262.64 198.52 262.64 197.4 262.64 196C254.24 192.08 245.84 187.32 239.12 180.88C232.4 174.44 226.8 166.32 225.12 157.08C224.56 154 224.28 150.92 223.72 147.84C223.72 147.28 223.44 146.72 223.16 146.44C222.04 145.32 220.08 146.72 219.52 148.4C214.76 155.68 215.04 161 220.08 168Z" fill="#ED7115"/>
<path d="M259.56 193.76C260.96 193.76 262.08 193.48 263.48 193.2C264.88 192.92 266.28 192.36 267.68 191.8C268.24 191.52 269.08 191.52 269.36 192.08C269.64 192.36 269.36 192.92 268.8 193.2C268.52 193.76 267.96 194.04 267.68 194.6C269.64 194.6 271.32 194.32 273.28 194.32C273.84 194.32 274.12 194.32 274.68 194.32C275.24 194.32 275.52 194.6 275.52 195.16C275.52 195.44 275.52 196 274.96 196.28C275.52 196 276.36 196.28 276.64 196.84C276.92 197.4 276.64 198.24 276.36 198.52C275.8 199.08 275.24 199.08 274.68 199.08C275.24 199.08 275.8 199.36 275.8 199.64V199.92C275.52 200.48 274.96 200.76 274.68 200.76C271.32 201.88 267.68 201.6 264.04 200.76C260.68 199.92 257.32 198.24 254.52 196.28C253.4 195.44 252.56 194.88 251.72 193.76C251.44 193.48 251.16 192.92 251.44 192.64C251.72 192.36 252 192.36 252.28 192.36C254.8 192.08 257.04 193.76 259.56 193.76Z" fill="#ED7115"/>
<path d="M81.2 199.08L79.52 194.04L74.48 192.36L78.68 189.28V183.96L82.88 187.04L87.92 185.36L86.24 190.4L89.6 194.6H84.28L81.2 199.08Z" fill="#FFDD4D"/>
<path d="M120.12 227.08L115.92 224.28L111.16 226.24L112.28 221.48L108.92 217.56L114.24 217.28L116.76 212.8L118.72 217.56L123.76 218.68L119.84 222.04L120.12 227.08Z" fill="#FFDD4D"/>
<path d="M89.3198 238L87.9198 234.92L84.2798 234.36L86.7998 232.12L86.2398 228.76L89.3198 230.16L92.3998 228.76L91.8398 232.12L94.3598 234.36L90.7198 234.92L89.3198 238Z" fill="#FFDD4D"/>
<path d="M167.16 231.84L171.08 226.52L168.84 220.36L175 222.32L180.04 218.4L180.32 224.84L185.64 228.48L179.48 230.44L177.8 236.88L173.88 231.56L167.16 231.84Z" fill="#FFDD4D"/>
<path d="M166.04 197.68L161.84 194.32L156.52 196L158.2 190.96L154.84 186.48H160.44L163.52 182L165.2 187.32L170.52 188.72L166.04 192.08V197.68Z" fill="#FFDD4D"/>
<path d="M168.56 148.4L170.24 144.76L168.28 141.68L171.92 141.96L174.16 139.16L175 142.8L178.64 144.2L175.28 146.16L175 149.8L172.2 147.28L168.56 148.4Z" fill="#FFDD4D"/>
<path d="M83.72 156.52L78.4 154.56L73.64 157.64L73.92 151.76L69.72 148.4L75.04 147L77 141.68L80.08 146.44L85.68 146.72L82.04 151.2L83.72 156.52Z" fill="#FFDD4D"/>
<path d="M122.36 101.64L121.52 96.8799L117.04 95.2L121.24 92.6799L121.8 88.2L125.16 91.2799L129.92 90.16L127.68 94.6399L130.2 98.56L125.44 98L122.36 101.64Z" fill="#FFDD4D"/>
<path d="M182.84 99.3999L179.76 95.4799L174.72 96.0399L177.24 91.8399L175.56 87.3599L180.32 88.4799L183.96 85.3999L184.24 90.1599L188.44 92.6799L183.96 94.6399L182.84 99.3999Z" fill="#FFDD4D"/>
<path d="M80.9199 43.96C82.5999 39.2 85.9599 35.28 89.8799 32.48C93.7999 29.4 98.2799 27.44 103.04 25.76C113.96 22.12 125.72 20.72 136.92 22.12C141.4 35 142.24 49 143.08 62.72C138.32 61.32 133.56 61.32 128.8 61.04C120.68 60.76 112.28 60.48 104.16 61.04C101.36 61.04 98.8399 61.6 96.8799 59.64C94.6399 57.4 92.9599 54.32 90.7199 52.08C87.6399 48.72 84.5599 46.2 80.9199 43.96Z" fill="#97FFFF"/>
<path d="M123.76 39.4799C123.76 39.1999 124.04 39.1999 124.04 38.9199C124.32 38.9199 124.6 38.9199 124.6 38.9199C145.6 40.8799 165.2 50.6799 183.4 61.5999C181.72 63.5599 180.32 65.7999 179.2 68.0399C172.2 66.6399 165.2 65.5199 158.2 64.3999C151.2 63.2799 143.92 62.4399 136.64 61.8799C130.48 61.3199 124.32 61.0399 118.16 61.3199C114.8 61.3199 115.36 59.6399 116.2 57.1199C117.04 54.3199 118.16 51.5199 119.28 48.7199C121.24 45.3599 122.36 42.2799 123.76 39.4799Z" fill="#80D2FF"/>
<path d="M220.36 79.2399C215.88 72.2399 206.92 69.9999 198.8 68.5999C162.96 62.1599 127.96 58.2399 91.8399 60.7599L85.1199 64.1199C128.24 60.4799 161.56 67.1999 197.12 72.5199C203.56 73.3599 212.24 76.7199 215.88 82.8799C221.76 93.2399 214.2 113.12 211.68 122.64C209.44 131.32 206.08 139.72 204.12 148.68C201.6 161.56 202.44 175 206.64 187.32C208.32 182 207.2 176.4 206.92 171.08C205.24 144.76 222.04 120.68 223.16 94.3599C223.72 88.7599 223.16 83.4399 220.36 79.2399Z" fill="#ED7115"/>
<path d="M210.56 180.32L204.4 180.6C202.72 180.6 201.32 182.28 201.6 183.96L202.44 196.56C202.44 198.24 204.12 199.64 205.8 199.64L211.96 199.08C213.64 199.08 215.04 197.4 214.76 195.72L213.92 183.12C213.64 181.44 212.24 180.04 210.56 180.32ZM212.8 195.44C212.8 196.56 212.24 197.4 211.12 197.4L206.08 197.68C204.96 197.68 204.12 196.84 204.12 196V194.88C204.12 193.76 204.68 192.92 205.8 192.92L210.84 192.64C211.96 192.64 212.8 193.48 212.8 194.32V195.44Z" fill="#63636B"/>
<path d="M204.12 217.84C203.84 218.4 203.56 218.68 203.56 219.24C203.56 219.8 203.84 220.36 204.4 220.64C205.52 221.48 206.92 221.76 208.32 221.76C209.16 221.76 210.28 221.48 210.84 220.92C211.4 220.36 211.4 219.8 211.68 219.24C212.52 216.16 212.24 213.08 211.96 210C211.68 208.32 211.68 206.92 211.4 205.24C211.4 204.4 211.12 203.56 210.84 202.72C210.56 201.88 209.72 201.32 208.88 201.04C208.04 200.76 206.92 201.32 206.92 202.44C206.92 202.72 206.92 202.72 206.64 202.72C206.64 205.24 206.92 207.76 206.64 210.56C206.08 213.08 205.52 215.6 204.12 217.84Z" fill="#FFDD4D"/>
<path d="M210.28 204.4L208.32 204.68C206.92 204.68 206.08 203.84 205.8 202.44L205.52 196.84C205.52 195.44 206.36 194.6 207.76 194.32L209.72 194.04C211.12 194.04 211.96 194.88 212.24 196.28L212.52 201.88C212.52 203.28 211.4 204.4 210.28 204.4Z" fill="#85858E"/>
<path opacity="0.49" d="M206.36 195.72C205.8 196.28 205.8 197.4 205.8 198.24C205.8 199.36 206.08 200.2 206.08 201.32C206.08 202.16 206.36 202.72 206.92 203.28C206.92 203.28 207.2 203.56 207.2 203.28C207.2 202.44 207.2 201.88 207.2 201.04C207.2 200.2 206.92 199.64 207.2 198.8C207.48 197.96 207.76 197.4 208.6 197.12C208.88 197.12 209.44 197.12 209.72 196.84C210.84 196.28 210 195.16 209.16 194.88C208.32 194.88 207.2 195.16 206.36 195.72Z" fill="white"/>
<path d="M84.8399 107.52C82.3199 112 82.0399 117.32 82.3199 122.64C82.5999 128.24 83.4399 133.84 86.5199 138.6C89.3199 143.08 94.9199 146.16 99.9599 144.76C102.48 143.92 104.72 142.24 106.4 140C108.08 137.76 109.2 135.24 110.04 132.44C111.72 127.12 112.56 121.24 112.28 115.64C112.28 113.12 112 110.88 111.16 108.64C109.2 103.32 103.6 100.52 98.5599 100.8C96.0399 101.08 93.5199 100.8 91.2799 101.64C88.4799 102.76 86.2399 105 84.8399 107.52Z" fill="#FFF3E9"/>
<path d="M112.56 115.36C112.56 112.84 112.28 110.6 111.44 108.36C110.6 106.4 109.48 104.72 108.08 103.6C108.36 104.16 108.64 104.44 108.64 105C109.48 107.24 109.76 109.48 109.76 112C110.04 117.6 109.2 123.48 107.52 128.8C106.68 131.6 105.56 134.12 103.88 136.36C102.2 138.6 99.96 140.56 97.44 141.12C93.52 142.24 89.6 140.56 86.52 138.04C86.52 138.04 86.52 138.32 86.8 138.32C89.6 142.8 95.2 145.88 100.24 144.48C102.76 143.64 105 141.96 106.68 139.72C108.36 137.48 109.48 134.96 110.32 132.16C112 126.84 112.84 121.24 112.56 115.36Z" fill="#FFE7C0"/>
<path d="M82.3199 117.88C90.4399 112 98.8399 112.84 105.56 117.04C108.08 118.44 109.76 121.52 111.16 123.48C111.44 121.8 112 115.64 111.16 113.96C110.32 112.56 108.92 111.72 107.52 110.88C104.72 109.76 101.92 109.2 98.8399 109.2C95.7599 109.2 92.9599 109.48 90.1599 110.04C88.7599 110.32 87.3599 110.88 85.9599 111.44C84.8399 112 83.1599 112.56 82.3199 113.68C82.0399 114.24 82.0399 114.52 82.3199 115.08C82.3199 116.2 82.3199 117.04 82.3199 117.88Z" fill="#FFE7C0"/>
<path d="M88.4799 117.04C87.6399 119 87.3599 121.24 87.3599 123.48C87.3599 126.56 87.9199 129.64 89.5999 131.88C91.2799 134.12 94.3599 135.52 96.8799 134.4C97.7199 134.12 98.2799 133.28 99.1199 132.72C102.2 129.36 103.6 124.6 102.48 120.12C101.92 117.88 101.08 115.92 99.3999 114.52C96.0399 111.72 90.4399 112.84 88.4799 117.04Z" fill="#413E49"/>
<path d="M89.8799 121.24C89.8799 121.8 89.8799 122.64 90.4399 122.92C90.7199 123.2 90.9999 123.2 91.2799 123.2C92.3999 123.2 93.5199 122.36 94.0799 121.52C94.9199 120.4 95.7599 119 96.0399 117.6C96.5999 115.36 94.3599 113.68 92.3999 114.8C90.7199 115.92 89.8799 119.28 89.8799 121.24Z" fill="white"/>
<path d="M83.44 108.64C85.12 105.56 87.64 102.48 90.72 100.8C93.52 99.4001 96.6 98.5601 99.68 98.5601C102.48 98.5601 105.56 98.8401 108.08 100.52C110.6 101.92 112 104.44 112.84 107.24C113.68 110.04 113.68 112.84 113.68 115.64C113.68 117.6 113.68 118.16 113.4 120.12C110.6 117.88 108.92 114.24 101.08 111.44C93.52 108.92 83.16 109.76 81.48 120.12C81.76 119.28 81.48 116.2 81.76 115.08C82.04 112.84 82.32 110.88 83.44 108.64Z" fill="#FF931D"/>
<path d="M112.84 107.24C112 104.44 110.32 101.92 108.08 100.52C106.96 99.6801 105.56 99.4001 104.44 99.1201C106.68 100.8 108.08 103.04 108.64 105.56C109.48 108.36 109.48 111.16 109.48 113.96C109.48 115.92 109.48 114.52 109.48 116.48C110.88 117.32 112.28 119.56 113.68 120.4C113.68 118.44 113.96 117.88 113.96 115.92C113.68 112.84 113.68 110.04 112.84 107.24Z" fill="#FF7915"/>
<path opacity="0.3" d="M87.92 104.72C85.68 106.68 84.28 108.92 83.72 111.44C83.72 111.72 83.72 112.28 84 112.28C84.28 112.28 84.28 112 84.56 112C87.64 108.08 91 103.88 95.76 101.36C96.04 101.08 96.6 100.8 96.6 100.52C94.92 99.9601 93.24 101.08 92.12 101.92C90.44 102.76 89.04 103.6 87.92 104.72Z" fill="white"/>
<path d="M142.52 111.44C140 115.92 139.44 121.52 139.44 126.84C139.44 132.44 140.28 138.6 143.08 143.36C145.88 148.12 151.48 151.48 156.52 150.36C159.32 149.8 161.56 147.84 163.24 145.6C164.92 143.36 166.32 140.56 167.16 138.04C169.12 132.44 170.24 126.84 170.24 120.96C170.24 118.44 169.96 115.92 169.12 113.68C167.16 108.08 161.84 105 156.24 105.28C153.72 105.56 151.2 105 148.68 105.84C146.44 106.68 143.92 108.92 142.52 111.44Z" fill="#FFF3E9"/>
<path d="M170.52 120.68C170.52 118.16 170.24 115.64 169.4 113.4C168.56 111.44 167.44 109.76 166.04 108.36C166.32 108.92 166.6 109.2 166.6 109.76C167.44 112 167.72 114.52 167.72 117.04C167.72 122.92 166.6 128.8 164.64 134.12C163.52 136.92 162.4 139.44 160.72 141.68C159.04 143.92 156.52 145.6 154 146.44C150.08 147.28 145.88 145.6 143.08 142.8C143.08 142.8 143.08 143.08 143.36 143.08C146.16 147.84 151.76 151.2 156.8 150.08C159.6 149.52 161.84 147.56 163.52 145.32C165.2 143.08 166.6 140.28 167.44 137.76C169.4 132.44 170.52 126.56 170.52 120.68Z" fill="#FFE7C0"/>
<path d="M139.44 122.08C148.12 116.2 156.52 117.6 163.24 122.08C165.76 123.76 167.44 126.84 168.56 128.8C168.84 126.84 169.68 120.68 168.84 119C168.28 117.6 166.6 116.48 165.2 115.92C162.4 114.52 159.32 114.24 156.24 113.96C153.16 113.68 150.08 113.96 147.28 114.52C145.88 114.8 144.2 115.36 142.8 115.92C141.68 116.48 139.72 117.04 139.16 117.88C138.88 118.44 138.88 118.72 138.88 119.28C139.44 120.4 139.44 121.24 139.44 122.08Z" fill="#FFE7C0"/>
<path d="M145.6 121.24C144.48 123.2 144.2 125.72 144.2 127.96C144.2 131.04 144.48 134.12 146.16 136.64C147.84 139.16 150.92 140.56 153.72 139.44C154.56 139.16 155.4 138.6 155.96 137.76C159.32 134.4 160.72 129.64 159.88 124.88C159.6 122.64 158.48 120.4 157.08 119C153.44 116.2 147.84 117.04 145.6 121.24Z" fill="#413E49"/>
<path d="M147 125.72C147 126.28 147 127.12 147.28 127.4C147.56 127.68 147.84 127.68 148.12 127.68C149.24 127.68 150.36 126.84 151.2 126C152.32 124.88 153.16 123.48 153.44 122.08C154 119.56 152.04 117.88 149.8 119.28C148.12 120.12 147.28 123.76 147 125.72Z" fill="white"/>
<path d="M140.84 112.56C142.52 109.2 145.32 106.4 148.68 104.72C151.48 103.32 154.84 102.76 157.92 102.76C161 102.76 164.08 103.32 166.32 105C168.84 106.68 170.24 109.2 171.08 112C171.92 114.8 171.92 117.6 171.64 120.68C171.64 122.92 171.36 123.2 171.36 125.44C168.56 123.2 166.88 119.28 159.04 116.2C151.48 113.4 140.56 113.68 138.6 124.32C138.88 123.48 138.6 120.12 138.88 119.28C139.44 116.76 139.72 114.8 140.84 112.56Z" fill="#FF931D"/>
<path d="M171.08 112.28C170.24 109.48 168.84 106.96 166.32 105.28C165.2 104.44 163.8 103.88 162.4 103.6C164.64 105.28 166.04 107.8 166.6 110.32C167.44 113.12 167.44 115.92 167.16 119C167.16 120.96 167.16 119.56 166.88 121.52C168.28 122.64 169.68 124.6 171.08 125.72C171.36 123.48 171.36 123.2 171.36 120.96C171.92 117.88 171.64 115.08 171.08 112.28Z" fill="#FF7915"/>
<path opacity="0.3" d="M145.6 108.64C143.36 110.6 141.68 112.84 141.12 115.36C141.12 115.64 141.12 116.2 141.4 116.2C141.68 116.2 141.68 115.92 141.96 115.92C145.32 112 148.68 107.8 154 105.56C154.56 105.28 154.84 105 155.12 104.72C153.44 104.16 151.76 105.28 150.36 105.84C148.4 106.68 147 107.52 145.6 108.64Z" fill="white"/>
<path d="M143.92 245.28L141.96 241.64L138.04 241.08L141.12 238.28L140.28 234.08L143.92 236.04L147.56 234.08L146.72 238.28L149.8 241.08L145.6 241.64L143.92 245.28Z" fill="#FFDD4D"/>
</svg>
