<svg width="32" height="32" viewBox="0 0 32 32" fill="none" xmlns="http://www.w3.org/2000/svg">
<rect x="0.5" y="0.5" width="31" height="31" rx="7.5" stroke="#EDEDED"/>
<path d="M17.732 25.77L18.274 24.854L16.984 24.09L16.441 25.006L17.732 25.77ZM13.726 24.854L14.268 25.77L15.558 25.006L15.017 24.09L13.726 24.854ZM16.441 25.006C16.3943 25.0808 16.3293 25.1425 16.2521 25.1853C16.175 25.228 16.0882 25.2505 16 25.2505C15.9118 25.2505 15.825 25.228 15.7479 25.1853C15.6707 25.1425 15.6057 25.0808 15.559 25.006L14.268 25.77C15.041 27.077 16.958 27.077 17.732 25.77L16.441 25.006ZM14.5 6.75H17.5V5.25H14.5V6.75ZM25.25 14.5V15.5H26.75V14.5H25.25ZM6.75 15.5V14.5H5.25V15.5H6.75ZM5.25 15.5C5.25 16.655 5.25 17.558 5.3 18.287C5.35 19.022 5.453 19.634 5.688 20.2L7.074 19.626C6.927 19.274 6.841 18.844 6.796 18.185C6.75 17.519 6.75 16.675 6.75 15.5H5.25ZM11.803 22.242C10.547 22.22 9.889 22.14 9.373 21.926L8.8 23.312C9.605 23.646 10.521 23.721 11.777 23.743L11.803 22.242ZM5.688 20.2C5.97697 20.8977 6.40052 21.5316 6.93448 22.0655C7.46844 22.5995 8.10234 23.023 8.8 23.312L9.373 21.926C8.33168 21.4947 7.50535 20.6673 7.074 19.626L5.688 20.2ZM25.25 15.5C25.25 16.675 25.25 17.519 25.204 18.185C25.159 18.844 25.073 19.274 24.927 19.626L26.312 20.2C26.547 19.634 26.65 19.022 26.701 18.287C26.751 17.558 26.75 16.655 26.75 15.5H25.25ZM20.223 23.741C21.479 23.72 22.395 23.646 23.2 23.312L22.626 21.926C22.111 22.14 21.453 22.22 20.198 22.242L20.223 23.741ZM24.927 19.626C24.4957 20.6673 23.6683 21.4947 22.627 21.926L23.2 23.312C23.8977 23.023 24.5316 22.5995 25.0655 22.0655C25.5995 21.5316 26.023 20.8977 26.312 20.2L24.927 19.626ZM17.5 6.75C19.151 6.75 20.337 6.75 21.262 6.839C22.176 6.926 22.757 7.092 23.221 7.376L24.004 6.097C23.265 5.645 22.427 5.443 21.404 5.345C20.392 5.249 19.122 5.25 17.5 5.25V6.75ZM26.75 14.5C26.75 12.878 26.75 11.609 26.654 10.596C26.557 9.573 26.355 8.734 25.903 7.996L24.623 8.779C24.908 9.243 25.074 9.824 25.161 10.739C25.249 11.663 25.25 12.849 25.25 14.5H26.75ZM23.22 7.376C23.7922 7.7263 24.2733 8.20707 24.624 8.779L25.903 7.996C25.4288 7.22198 24.778 6.57123 24.004 6.097L23.22 7.376ZM14.5 5.25C12.878 5.25 11.609 5.25 10.596 5.345C9.573 5.443 8.734 5.645 7.996 6.097L8.779 7.377C9.243 7.092 9.824 6.926 10.739 6.839C11.663 6.751 12.849 6.75 14.5 6.75V5.25ZM6.75 14.5C6.75 12.849 6.75 11.663 6.839 10.738C6.926 9.824 7.092 9.243 7.376 8.779L6.097 7.997C5.645 8.735 5.443 9.573 5.345 10.596C5.25 11.61 5.25 12.878 5.25 14.5H6.75ZM7.996 6.097C7.22198 6.57123 6.57123 7.22298 6.097 7.997L7.377 8.779C7.72714 8.2073 8.20755 7.72655 8.779 7.376L7.996 6.097ZM15.016 24.09C14.814 23.747 14.636 23.444 14.462 23.206C14.283 22.945 14.0505 22.7252 13.78 22.561L13.026 23.858C13.073 23.886 13.138 23.936 13.25 24.09C13.371 24.256 13.508 24.486 13.726 24.854L15.016 24.09ZM11.777 23.741C12.217 23.749 12.494 23.755 12.706 23.778C12.904 23.8 12.981 23.832 13.026 23.858L13.78 22.561C13.5 22.4059 13.1901 22.3125 12.871 22.287C12.573 22.254 12.215 22.249 11.803 22.242L11.777 23.741ZM18.274 24.854C18.492 24.487 18.629 24.256 18.75 24.09C18.862 23.936 18.927 23.886 18.974 23.858L18.22 22.561C17.93 22.731 17.72 22.956 17.538 23.206C17.365 23.444 17.186 23.746 16.983 24.09L18.274 24.854ZM20.198 22.242C19.786 22.249 19.427 22.254 19.129 22.287C18.818 22.322 18.513 22.391 18.22 22.561L18.974 23.858C19.019 23.832 19.096 23.8 19.294 23.778C19.506 23.755 19.784 23.748 20.224 23.741L20.198 22.242Z" fill="#252525"/>
<path d="M12 13H20M12 16.5H17.5" stroke="#252525" stroke-width="1.5" stroke-linecap="round"/>
</svg>
