<svg width="32" height="32" viewBox="0 0 32 32" fill="none" xmlns="http://www.w3.org/2000/svg">
<rect width="32" height="32" rx="8" fill="#EBFFFD"/>
<path d="M7 16C7 11.0295 11.0295 7 16 7V8C11.5815 8 8 11.5815 8 16C8 20.4185 11.5815 24 16 24C20.4185 24 24 20.4185 24 16C24 15.2005 23.883 14.429 23.665 13.7005L24.6225 13.413C24.8736 14.2524 25.0008 15.1239 25 16C25 20.9705 20.9705 25 16 25C11.0295 25 7 20.9705 7 16Z" fill="#00C0B0"/>
<path d="M13.2649 10.976C13.151 11.0428 13.0681 11.1519 13.0344 11.2795C13.0006 11.4072 13.0187 11.543 13.0848 11.6573C13.1508 11.7717 13.2593 11.8553 13.3868 11.8899C13.5142 11.9245 13.6501 11.9073 13.7649 11.842L14.2329 11.5715L14.0074 13.4465C13.9963 13.5386 14.0111 13.6321 14.0501 13.7163C14.0891 13.8005 14.1507 13.8722 14.2281 13.9234C14.3056 13.9746 14.3957 14.0032 14.4885 14.006C14.5812 14.0089 14.673 13.9858 14.7534 13.9395L16.2544 13.073C16.3117 13.0404 16.362 12.9968 16.4024 12.9447C16.4428 12.8926 16.4725 12.833 16.4898 12.7693C16.5071 12.7057 16.5116 12.6393 16.5031 12.5739C16.4946 12.5085 16.4732 12.4454 16.4403 12.3883C16.4073 12.3312 16.3634 12.2812 16.311 12.2412C16.2586 12.2011 16.1988 12.1718 16.1351 12.155C16.0713 12.1381 16.0049 12.134 15.9395 12.143C15.8742 12.1519 15.8113 12.1737 15.7544 12.207L15.1194 12.5735L15.3454 10.6985C15.3565 10.6064 15.3417 10.5129 15.3027 10.4287C15.2637 10.3445 15.2021 10.2728 15.1246 10.2216C15.0472 10.1704 14.9571 10.1418 14.8643 10.139C14.7715 10.1361 14.6798 10.1592 14.5994 10.2055L13.2649 10.976ZM16.9084 8.647C16.8914 8.58357 16.887 8.51741 16.8956 8.4523C16.9041 8.38719 16.9254 8.3244 16.9583 8.26753C16.9911 8.21065 17.0348 8.16079 17.0869 8.12081C17.139 8.08083 17.1985 8.0515 17.2619 8.0345L19.1939 7.517C19.2836 7.49297 19.3782 7.49439 19.4671 7.52108C19.556 7.54778 19.6357 7.5987 19.6973 7.66815C19.7589 7.73759 19.8 7.82282 19.8159 7.91428C19.8318 8.00575 19.8219 8.09983 19.7874 8.186L18.7629 10.7385L19.9704 10.415C20.0971 10.3847 20.2306 10.405 20.3426 10.4716C20.4545 10.5382 20.536 10.6459 20.5698 10.7717C20.6035 10.8975 20.5868 11.0315 20.5233 11.1453C20.4597 11.259 20.3543 11.3434 20.2294 11.3805L18.0559 11.963C17.9662 11.987 17.8716 11.9856 17.7827 11.9589C17.6938 11.9322 17.6141 11.8813 17.5525 11.8119C17.4909 11.7424 17.4498 11.6572 17.4339 11.5657C17.418 11.4743 17.4279 11.3802 17.4624 11.294L18.4869 8.742L17.5209 9.0005C17.4575 9.01751 17.3913 9.02187 17.3262 9.01331C17.2611 9.00475 17.1983 8.98345 17.1414 8.95062C17.0845 8.9178 17.0347 8.87409 16.9947 8.82199C16.9547 8.7699 16.9254 8.71043 16.9084 8.647ZM22.2779 7C22.1453 7 22.0181 7.05268 21.9243 7.14645C21.8306 7.24021 21.7779 7.36739 21.7779 7.5C21.7779 7.63261 21.8306 7.75979 21.9243 7.85355C22.0181 7.94732 22.1453 8 22.2779 8H23.5979L21.5759 11.235C21.5286 11.3107 21.5024 11.3977 21.5001 11.4869C21.4977 11.5761 21.5193 11.6643 21.5626 11.7424C21.6058 11.8204 21.6692 11.8855 21.7461 11.9308C21.823 11.9761 21.9106 12 21.9999 12H24.4999C24.6325 12 24.7597 11.9473 24.8534 11.8536C24.9472 11.7598 24.9999 11.6326 24.9999 11.5C24.9999 11.3674 24.9472 11.2402 24.8534 11.1464C24.7597 11.0527 24.6325 11 24.4999 11H22.9019L24.9239 7.765C24.9712 7.68931 24.9974 7.60235 24.9997 7.51312C25.0021 7.4239 24.9805 7.33568 24.9372 7.25762C24.8939 7.17955 24.8306 7.11449 24.7537 7.06919C24.6768 7.02389 24.5891 7 24.4999 7H22.2779ZM10.4439 17.553C10.4819 17.9245 10.8154 18.2015 11.2019 18.3245C11.6059 18.4525 12.1294 18.442 12.6854 18.201C12.9345 18.0966 13.1585 17.9403 13.3423 17.7424C13.5262 17.5445 13.6656 17.3096 13.7514 17.0535C13.8964 16.6195 13.8764 16.1435 13.6754 15.841C13.6521 15.806 13.6204 15.7774 13.5832 15.7579C13.546 15.7384 13.5045 15.7286 13.4625 15.7294C13.4204 15.7302 13.3793 15.7416 13.3429 15.7625C13.3064 15.7834 13.2758 15.8132 13.2539 15.849C12.6069 16.9045 11.6819 17.369 10.7164 17.279C10.6796 17.2755 10.6425 17.2802 10.6077 17.2927C10.573 17.3053 10.5414 17.3254 10.5154 17.3516C10.4893 17.3778 10.4694 17.4094 10.457 17.4443C10.4447 17.4791 10.4402 17.5162 10.4439 17.553ZM20.1399 14.955C20.2929 15.2955 20.1429 15.702 19.8699 16.002C19.5839 16.315 19.1249 16.567 18.5234 16.637C18.2554 16.6712 17.9831 16.6478 17.7248 16.5683C17.4666 16.4888 17.2283 16.3551 17.0259 16.176C16.6839 15.8725 16.4634 15.451 16.4859 15.088C16.4885 15.0461 16.5017 15.0054 16.5241 14.9699C16.5466 14.9344 16.5777 14.9051 16.6144 14.8848C16.6512 14.8645 16.6925 14.8537 16.7346 14.8536C16.7766 14.8535 16.818 14.8639 16.8549 14.884C17.9429 15.475 18.9764 15.4145 19.7674 14.8535C19.7975 14.8322 19.832 14.8178 19.8683 14.8113C19.9047 14.8049 19.942 14.8066 19.9776 14.8163C20.0132 14.826 20.0462 14.8435 20.0743 14.8675C20.1024 14.8914 20.1248 14.9213 20.1399 14.955ZM20.2239 19.9275C19.0984 18.3855 17.4304 17.57 15.8704 17.988C14.3104 18.4065 13.2734 19.946 13.0699 21.8445C13.0124 22.379 13.5314 22.756 14.0504 22.617L19.7604 21.087C20.2799 20.9475 20.5404 20.362 20.2239 19.9275Z" fill="#00C0B0"/>
</svg>
