<svg width="240" height="245" viewBox="0 0 240 245" fill="none" xmlns="http://www.w3.org/2000/svg">
<path d="M216.797 119.283C223.983 111.116 228.443 100.475 230.921 89.8332C231.912 85.8736 232.655 81.914 235.381 78.9443C235.381 92.0605 232.655 105.424 226.956 117.303C221.009 129.924 211.345 141.803 198.213 146.01C194.248 147.247 189.54 147.742 186.319 145.268C178.39 139.328 188.301 134.626 193.257 133.389C202.425 130.667 210.107 126.707 216.797 119.283Z" fill="#4390FF"/>
<path d="M209.116 34.3989L205.151 56.4242L191.523 52.9595L199.452 32.1716L209.116 34.3989Z" fill="#4D96FF"/>
<path d="M19.0615 40.0908L43.097 234.853C43.097 234.853 43.5926 238.071 46.8138 240.545C50.0351 243.02 54.7431 245 54.7431 245L50.5307 41.3282L19.0615 40.0908Z" fill="#4390FF"/>
<path d="M227.205 77.7071C226.709 76.9646 226.213 76.4697 226.213 75.4798C225.966 74.7374 226.461 73.7475 227.205 73.5C227.948 73.2525 228.939 73.9949 229.187 74.7374C229.682 75.4798 229.93 76.2222 230.674 76.7172C230.674 73.7475 230.921 70.5303 231.417 67.5606C231.665 66.8182 231.913 65.8283 232.656 65.8283C233.151 65.8283 233.895 66.0757 234.143 66.8182C234.39 67.3131 234.39 68.0555 234.39 68.5505C234.886 67.8081 234.638 66.8182 234.886 65.8283C235.134 64.8384 236.125 64.0959 236.868 64.5909C237.364 64.8384 237.364 65.5808 237.364 66.0757C237.364 67.0656 237.364 68.0555 237.364 68.798C237.364 68.303 237.364 68.0555 237.612 67.8081C237.859 67.5606 238.107 67.3131 238.603 67.3131C238.851 67.3131 239.098 67.5606 239.098 67.8081C240.337 69.5404 240.09 72.0151 239.594 73.9949C238.355 80.6768 236.125 87.3586 232.904 93.298C231.913 95.2778 231.417 93.298 231.169 92.0606C230.921 90.3283 231.169 88.5959 230.921 86.8636C230.178 83.6464 228.939 80.4293 227.205 77.7071Z" fill="#4390FF"/>
<path d="M30.7075 147.247C22.2827 154.177 16.3358 163.828 11.8756 173.975C10.3889 177.687 8.90216 181.399 5.68091 183.874C7.66322 170.757 12.8668 158.384 20.3004 147.495C28.2297 135.864 39.6279 125.965 53.2563 123.985C57.4687 123.242 62.1767 123.737 64.9024 126.707C71.5927 133.884 61.1855 136.853 56.2298 137.348C46.8138 138.338 38.389 141.061 30.7075 147.247Z" fill="#4390FF"/>
<path d="M13.6105 186.596C13.8583 187.338 14.3539 188.081 14.3539 188.823C14.3539 189.566 13.8583 190.556 13.1149 190.556C12.3716 190.556 11.6282 189.813 11.1326 189.071C10.8848 188.328 10.637 187.338 10.1415 186.844C9.64589 189.813 8.90253 192.783 7.91137 195.753C7.66358 196.495 7.16801 197.237 6.42464 197.237C5.92906 197.237 5.43349 196.742 5.1857 196.248C4.93791 195.753 5.1857 195.01 5.1857 194.515C4.69012 195.258 4.69012 196.248 4.44233 197.237C4.19455 198.227 2.9556 198.722 2.21224 198.227C1.71666 197.732 1.96445 197.237 1.96445 196.742C2.21224 195.753 2.21224 194.763 2.46003 194.02C2.46003 194.268 2.21224 194.763 1.96445 195.01C1.71666 195.258 1.22108 195.505 0.973294 195.258C0.725506 195.258 0.725505 195.01 0.477717 194.763C-0.513437 192.783 0.229929 190.556 0.973294 188.576C3.20339 182.141 6.67243 175.955 10.8848 170.51C12.3716 168.778 12.3716 170.758 12.3716 171.995C12.3716 173.727 11.876 175.46 11.876 176.945C11.6282 180.162 12.3716 183.379 13.6105 186.596Z" fill="#4390FF"/>
<path d="M31.4514 52.9595L54.9913 245H195.24L217.541 52.9595H31.4514Z" fill="#5AB1FF"/>
<path d="M31.4515 52.9596C31.4515 52.9596 18.5665 49 19.062 40.3384C19.5576 31.6767 34.4249 30.1919 34.4249 30.1919H207.134L209.364 34.399L205.399 34.8939L193.505 46.2778L214.319 48.0101L217.788 52.9596H31.4515Z" fill="#83C4FF"/>
<path d="M205.399 34.6465H33.6811L32.6899 46.5253L212.337 47.7626C212.337 47.7626 208.372 44.5455 206.39 41.0808C203.664 36.6263 205.399 34.6465 205.399 34.6465Z" fill="#FFECBB"/>
<path d="M33.6813 34.6465C33.6813 34.6465 26.991 33.9041 25.5042 39.1011C23.7697 46.0304 32.6901 46.5253 32.6901 46.5253L33.6813 34.6465Z" fill="#4D96FF"/>
<path d="M36.1589 38.3586C41.3625 38.6061 46.3183 38.6061 51.5218 38.6061C56.7254 38.6061 61.6812 38.6061 66.8847 38.6061C77.044 38.6061 87.4512 38.6061 97.6105 38.6061C117.929 38.6061 138.496 38.8536 158.814 38.6061C164.513 38.6061 170.213 38.3586 176.159 38.3586C181.859 38.3586 187.558 38.3586 193.505 38.3586C193.752 38.3586 193.752 38.1112 193.505 38.1112C183.345 37.8637 172.938 38.1112 162.779 37.8637C152.62 37.6162 142.212 37.6162 132.053 37.6162C111.734 37.6162 91.168 37.6162 70.8493 37.6162C65.1502 37.6162 59.4511 37.6162 53.5041 37.6162C47.805 37.8637 42.1059 37.8637 36.1589 38.3586Z" fill="#FFCB92"/>
<path d="M36.1589 42.5657C41.1147 42.8132 46.3183 42.8132 51.274 42.8132C56.2298 42.8132 61.4334 42.8132 66.3891 42.8132C76.5485 42.8132 86.46 42.8132 96.6193 42.8132C99.345 42.8132 102.318 42.8132 105.044 42.8132C107.77 42.8132 110.743 42.8132 113.469 42.8132C113.717 42.8132 113.717 42.3182 113.469 42.3182C110.991 42.0708 108.265 42.3182 105.788 42.3182C103.31 42.3182 100.832 42.3182 98.3539 42.3182C93.3981 42.3182 88.1945 42.3182 83.2388 42.3182C73.0794 42.3182 63.1679 42.3182 53.0086 42.3182C47.5572 42.3182 41.8581 42.0708 36.1589 42.5657Z" fill="#FFCB92"/>
<path d="M50.0357 40.5859C54.9915 40.8334 59.9472 40.5859 65.1508 40.5859C70.1066 40.5859 75.0623 40.5859 80.2659 40.5859C90.1774 40.5859 100.337 40.5859 110.248 40.5859C130.071 40.5859 150.142 40.5859 169.965 40.5859C175.664 40.5859 181.116 40.5859 186.815 40.5859C192.514 40.5859 197.965 40.5859 203.665 40.5859C203.912 40.5859 203.912 40.0909 203.665 40.0909C193.753 39.8435 183.594 40.0909 173.682 40.0909C163.771 40.0909 153.611 40.0909 143.7 40.0909C123.877 40.0909 103.806 40.0909 83.9827 40.0909C78.2836 40.0909 72.8322 40.0909 67.1331 40.0909C61.1862 40.3384 55.487 40.3384 50.0357 40.5859C49.7879 40.5859 49.7879 40.5859 50.0357 40.5859Z" fill="#FFCB92"/>
<path d="M45.327 45.2878C65.6456 45.5353 86.2121 45.5353 106.531 45.5353C126.849 45.5353 147.168 45.5353 167.487 45.5353C178.885 45.5353 190.283 45.5353 201.929 45.5353C202.425 45.5353 202.425 44.7929 201.929 44.7929C181.611 44.5454 161.044 44.7929 140.726 44.7929C120.407 44.7929 100.088 44.7929 79.7696 44.7929C68.1235 45.0403 56.7252 45.0403 45.327 45.2878C45.0792 45.2878 45.0792 45.2878 45.327 45.2878Z" fill="#FFCB92"/>
<path d="M118.425 40.0909L113.965 24.5L165.753 14.3535L171.204 40.0909H118.425Z" fill="#FFC043"/>
<path d="M154.354 40.5859C153.611 33.6566 154.107 26.2323 156.337 19.5505C158.567 12.8687 163.027 6.68182 168.974 2.9697C168.478 6.43434 168.231 9.89899 168.478 13.3636C170.213 8.90909 174.673 6.18687 178.886 3.71212C181.859 1.9798 184.832 0.247475 188.301 0C183.346 5.93939 180.868 13.6111 179.133 21.2828C177.647 27.4697 176.408 34.399 178.638 40.3384L154.354 40.5859Z" fill="#E86A43"/>
<path d="M43.3459 42.5656L48.3017 20.0454L89.6824 31.4292L86.9567 42.5656H43.3459Z" fill="#7FC133"/>
<path d="M56.4784 75.2323C55.4872 76.4697 54.7439 77.9546 54.4961 79.6869C54.4961 79.9344 54.4961 80.1818 54.4961 80.4293C54.7439 80.9242 55.4872 80.6768 55.9828 80.4293C62.6731 76.2222 69.3634 72.2626 76.0537 68.0556C76.7971 67.5606 77.5404 67.0657 78.036 66.3232C78.5316 65.5808 78.7794 64.5909 78.2838 63.8485C78.036 63.3535 77.5404 63.1061 76.7971 62.8586C72.3369 61.1263 69.6112 63.8485 66.1422 66.0758C62.4253 68.303 59.2041 71.5202 56.4784 75.2323Z" fill="#413E49"/>
<path d="M187.558 73.7475C188.55 74.9848 189.293 76.4697 189.541 78.202C189.541 78.4495 189.541 78.697 189.541 78.9444C189.293 79.4394 188.55 79.1919 188.054 78.9444C181.364 74.7374 174.673 70.7778 167.983 66.5707C167.24 66.0758 166.496 65.5808 166.001 64.8384C165.505 64.096 165.257 63.1061 165.753 62.3636C166.001 61.8687 166.496 61.6212 167.24 61.3737C171.7 59.6414 174.426 62.3636 177.895 64.5909C181.612 67.0657 185.081 70.0353 187.558 73.7475Z" fill="#413E49"/>
<path d="M123.381 152.939C123.133 152.939 123.133 152.939 123.381 152.939C123.133 152.939 122.885 152.939 122.885 152.939C111.239 153.187 99.5931 147.495 92.4072 138.586C93.3984 142.793 94.6373 146.752 95.6285 150.959C97.363 157.394 99.0975 163.828 102.319 169.52C105.54 175.212 110.744 180.161 116.938 181.894C118.921 182.389 121.151 182.636 123.133 182.636C125.115 182.884 127.345 182.636 129.328 181.894C135.522 180.161 140.726 175.212 143.947 169.52C147.168 163.828 148.903 157.394 150.638 150.959C151.629 147 152.868 142.793 153.859 138.586C146.673 147.495 134.779 153.187 123.381 152.939Z" fill="#413E49"/>
<path d="M123.134 152.939C122.886 152.939 122.638 152.939 122.638 152.939C113.718 153.187 104.797 149.722 97.8594 144.278C98.1072 146.01 98.1072 147.742 98.1072 149.475C98.1072 149.97 98.1072 150.712 98.355 151.207C98.6027 151.95 99.0983 152.692 99.8417 153.434C104.054 158.136 110.249 160.364 116.444 161.354C126.603 162.838 137.258 160.364 145.93 154.424C146.426 154.177 146.921 153.682 147.417 152.939C147.665 152.197 147.665 151.207 147.665 150.465C147.417 148.732 147.169 146.753 146.922 145.02C139.983 150.217 131.559 153.187 123.134 152.939Z" fill="white"/>
<path d="M139.487 175.212C139.487 174.965 139.239 174.717 138.991 174.222C136.761 169.52 131.31 166.55 126.354 167.045C124.124 167.293 121.894 168.283 121.398 170.263C118.177 167.788 113.469 167.788 110.248 170.263C108.018 171.747 107.274 173.727 107.026 175.707C109.752 178.429 112.973 180.656 116.69 181.646C118.672 182.141 120.903 182.389 122.885 182.389C124.867 182.636 127.097 182.389 129.08 181.646C133.044 180.656 136.513 178.429 139.487 175.212Z" fill="#FF624D"/>
<path d="M89.9299 140.318C89.6821 140.071 89.6821 139.328 89.6821 139.081C89.6821 138.586 89.6821 138.338 89.6821 137.843C89.9299 137.101 90.1776 136.359 90.6732 135.616C91.1688 135.121 91.9122 134.874 92.6555 134.874C93.3989 134.874 94.1423 135.616 94.6378 135.864C94.8856 136.111 95.1334 135.864 94.8856 135.616C94.3901 134.874 93.8945 134.379 93.1511 134.131C92.4077 133.884 91.6644 133.884 90.921 134.379C89.4343 135.121 88.6909 136.854 88.6909 138.338C88.6909 138.833 88.6909 139.328 88.9387 139.576C89.4343 140.318 89.6821 140.318 89.9299 140.318C90.1776 140.566 90.1776 140.318 89.9299 140.318Z" fill="#413E49"/>
<path d="M151.381 138.091C151.877 137.349 152.62 136.606 153.611 136.111C154.602 135.616 155.594 135.616 156.337 136.359C158.071 137.843 157.08 140.318 156.585 142.298C156.585 142.546 156.833 142.546 156.833 142.298C157.824 140.566 158.567 138.338 157.576 136.606C157.08 135.864 156.585 135.369 155.841 135.121C154.85 134.874 153.859 135.121 153.116 135.616C152.62 135.864 152.372 136.111 152.125 136.606C151.381 137.101 151.381 137.596 151.381 138.091C151.133 138.091 151.133 138.091 151.381 138.091Z" fill="#413E49"/>
<path d="M62.6729 90.3284C61.1861 96.2678 62.4251 102.702 64.1596 108.394C66.1419 114.828 68.8676 121.015 73.5755 125.47C78.2835 129.924 85.7172 131.904 91.1685 128.687C93.8942 126.955 96.1243 124.232 97.3632 121.263C98.6022 118.046 99.0978 114.828 99.3456 111.364C99.8411 104.682 99.0978 97.7526 97.1155 91.0708C96.3721 88.3486 95.3809 85.6263 93.6464 83.3991C89.6818 77.9546 82.4959 75.9748 76.549 78.2021C73.8233 79.192 70.6021 79.687 68.1242 81.4193C65.3985 83.6466 63.4162 86.8637 62.6729 90.3284Z" fill="#3B82FF"/>
<path d="M63.9111 93.5456C62.4244 99.2375 63.6633 105.424 65.3979 111.116C67.3802 117.303 69.8581 123.49 74.566 127.945C79.274 132.152 86.2121 134.131 91.4157 131.162C94.1413 129.677 96.1236 126.955 97.3626 123.985C98.6015 121.015 99.0971 117.551 99.3449 114.334C99.8405 107.652 99.0971 100.97 97.1148 94.783C96.3714 92.0608 95.3803 89.586 93.6458 87.3588C89.6811 81.9143 82.9909 80.182 77.0439 82.1618C74.3183 83.1517 71.3448 83.3992 68.8669 85.379C66.6368 87.3588 64.6545 90.3285 63.9111 93.5456Z" fill="#FFF3E9"/>
<path d="M97.3622 94.7828C96.6189 92.0606 95.6277 89.5859 93.8932 87.3586C92.4064 85.3788 90.6719 83.894 88.6896 82.9041C89.1852 83.399 89.433 83.8939 89.9286 84.3889C91.4153 86.6162 92.4064 89.3384 93.3976 91.8131C95.1321 98.2475 95.8755 104.929 95.6277 111.364C95.3799 114.581 94.8843 118.045 93.6454 121.015C92.4065 123.985 90.4241 126.707 87.6985 128.192C83.7338 130.419 78.7781 129.924 74.5657 127.697L74.8135 127.944C79.5214 132.152 86.4595 134.131 91.6631 131.162C94.3888 129.677 96.3711 126.955 97.61 123.985C98.8489 121.015 99.3445 117.551 99.5923 114.333C99.8401 107.899 99.0967 100.97 97.3622 94.7828Z" fill="#FFE7C0"/>
<path d="M72.3362 104.434C71.8406 106.909 72.0884 109.631 72.8318 112.106C73.5751 115.571 75.0619 118.788 77.7875 121.015C80.2654 123.243 84.23 123.737 86.7079 121.758C87.4513 121.015 88.1947 120.273 88.6902 119.283C91.1681 114.828 91.4159 108.889 88.938 103.939C87.9469 101.712 86.2124 99.4849 83.9823 98.495C79.2743 96.2678 73.3274 99.2375 72.3362 104.434Z" fill="#413E49"/>
<path d="M75.0626 108.641C75.0626 109.384 75.3104 110.126 76.0538 110.374C76.3015 110.621 76.7971 110.621 77.2927 110.374C78.5316 110.126 79.5228 108.889 80.0184 107.651C80.7617 106.167 81.2573 104.434 81.2573 102.455C81.0095 99.7323 78.2839 98.4949 76.5493 100.475C74.8148 102.455 74.8148 106.414 75.0626 108.641Z" fill="white"/>
<path opacity="0.3" d="M66.3892 107.651C66.6369 111.364 67.8759 114.828 70.106 117.55C70.3538 117.798 70.8494 118.293 71.0971 117.798C71.3449 117.55 71.0971 117.303 71.0971 117.056C69.3626 110.621 67.6281 103.939 68.867 97.505C68.867 97.0101 69.1148 96.2677 68.6193 95.7727C66.8847 96.7626 66.6369 99.2373 66.3892 100.97C66.3892 103.444 66.3892 105.672 66.3892 107.651Z" fill="white"/>
<path d="M71.3452 92.0608C73.8231 90.576 76.7965 89.8335 79.77 89.5861C82.7435 89.3386 85.7169 89.3386 88.6904 90.081C91.6639 90.8234 94.3895 92.3083 96.3718 94.2881C95.6285 90.5759 92.9028 87.3588 89.4338 85.6265C85.9647 83.8941 82.0001 83.1517 78.2833 83.3992C76.301 83.3992 74.5664 83.8941 72.5841 84.6366C69.1151 86.1214 66.3894 89.0911 64.9027 92.3083C64.1593 93.7931 63.6637 95.5254 63.416 97.0103C63.1682 98.0002 62.6726 100.475 63.6637 101.217C64.4071 101.96 64.9027 99.485 65.3983 98.7426C66.1416 97.5052 66.885 96.0204 67.6284 95.0305C68.6195 94.0406 69.8585 92.8032 71.3452 92.0608Z" fill="#FFE7C0"/>
<path d="M65.8939 94.7829C68.124 91.0708 70.8497 89.8334 73.8231 88.8435C75.0621 88.596 76.301 88.3486 77.54 88.1011C81.5046 87.6061 85.4692 87.6061 89.4338 88.3486C91.9117 88.8435 95.6285 91.0708 97.1152 93.2981C96.1241 91.5657 94.6374 87.8536 93.6462 85.8738C93.3984 85.1314 92.9028 84.389 92.4073 83.894C91.9117 83.1516 91.1683 82.9041 90.4249 82.4092C88.9382 81.4193 87.2037 80.6769 85.4692 80.1819C83.7347 79.687 81.7524 79.9344 80.0178 79.9344C75.3099 80.4294 70.6019 81.6668 67.1328 84.6364C64.6549 86.8637 63.1682 89.8334 62.6726 93.0506C62.1771 95.7728 61.9293 101.96 63.1682 104.682C63.6638 104.434 64.4072 97.5051 65.8939 94.7829Z" fill="#3B82FF"/>
<path opacity="0.34" d="M65.3976 87.6061C63.6631 90.0809 63.1675 93.2981 63.6631 96.2678C63.9109 93.2981 65.3976 90.5758 67.3799 88.596C69.3622 86.3688 71.8401 84.8839 74.5658 83.894C75.8047 83.3991 77.0437 83.1516 78.0348 82.1617C78.0348 82.1617 78.2826 81.9142 78.2826 81.6667C78.2826 81.1718 77.787 81.1718 77.2915 80.9243C72.8313 80.9243 67.8755 83.894 65.3976 87.6061Z" fill="white"/>
<path d="M153.611 83.894C150.142 88.8435 148.903 95.2778 148.408 101.465C147.912 108.146 148.16 115.076 150.885 121.015C153.611 126.955 159.806 131.409 166 130.419C169.222 129.924 172.195 128.192 174.425 125.717C176.655 123.242 178.638 120.273 179.877 117.303C182.85 111.116 184.585 104.434 185.328 97.7525C185.576 95.0303 185.576 92.0606 184.832 89.3384C183.098 82.6566 177.151 78.4495 170.708 78.202C167.735 78.202 164.762 77.4596 161.788 78.202C158.815 78.9445 155.593 81.1717 153.611 83.894Z" fill="#3B82FF"/>
<path d="M153.611 87.6061C150.142 92.3081 149.151 98.7425 148.655 104.682C148.159 111.116 148.407 117.798 151.133 123.49C153.859 129.182 159.558 133.636 165.752 132.647C168.974 132.152 171.699 130.419 173.929 128.192C176.16 125.965 177.894 122.995 179.381 120.025C182.107 114.086 184.089 107.652 184.584 100.97C184.832 98.2475 184.832 95.2778 184.337 92.8031C182.85 86.3687 176.903 82.1617 170.708 81.9142C167.735 81.9142 165.009 81.1718 162.036 81.9142C158.319 82.6566 155.593 84.6364 153.611 87.6061Z" fill="#FFF3E9"/>
<path d="M184.337 100.722C184.584 98 184.584 95.0303 184.089 92.5555C183.593 90.0808 182.354 88.101 180.868 86.3687C181.115 86.8636 181.363 87.606 181.363 88.101C182.107 90.8232 181.859 93.5454 181.611 96.2676C181.115 102.949 179.133 109.384 176.407 115.323C174.921 118.293 173.186 121.263 170.956 123.49C168.726 125.717 165.753 127.697 162.779 127.944C158.319 128.687 153.859 126.212 150.885 122.747C150.885 122.995 150.885 122.995 151.133 123.242C153.859 128.934 159.558 133.389 165.753 132.399C168.974 131.904 171.699 130.172 173.93 127.944C176.16 125.717 177.894 122.747 179.381 119.778C181.859 113.838 183.593 107.404 184.337 100.722Z" fill="#FFE7C0"/>
<path d="M157.576 100.722C156.089 102.949 155.594 105.424 155.346 108.146C154.85 111.611 155.098 115.323 156.585 118.293C158.071 121.263 161.54 123.242 164.762 122.252C165.753 122.005 166.744 121.263 167.487 120.768C171.452 117.55 173.682 112.106 173.434 106.662C173.186 104.187 172.443 101.465 170.709 99.7322C166.992 95.7726 160.301 96.2676 157.576 100.722Z" fill="#413E49"/>
<path d="M158.567 105.672C158.319 106.414 158.319 107.157 158.815 107.652C159.063 107.899 159.558 108.147 159.806 108.147C161.045 108.394 162.284 107.652 163.523 106.662C164.762 105.424 166.001 103.94 166.496 102.455C167.24 99.7324 165.257 97.7526 162.779 98.7425C160.302 99.7324 159.063 103.445 158.567 105.672Z" fill="white"/>
<path opacity="0.3" d="M150.886 101.712C149.647 105.177 149.647 108.889 150.638 112.354C150.638 112.849 151.133 113.343 151.381 113.096C151.629 113.096 151.629 112.849 151.629 112.601C152.372 106.167 153.116 99.2374 156.833 93.793C157.08 93.298 157.576 92.8031 157.328 92.3081C155.346 92.5556 154.355 94.7829 153.364 96.2677C152.372 97.7526 151.381 99.7323 150.886 101.712Z" fill="white"/>
<path d="M161.045 88.8435C164.018 88.3486 166.992 88.8435 169.717 89.8334C172.443 90.5758 175.416 91.8132 177.647 93.5455C180.124 95.2779 182.107 97.5051 183.346 100.227C183.841 96.5152 182.602 92.5556 180.124 89.586C177.647 86.6163 174.177 84.6365 170.461 83.3991C168.726 82.9041 166.744 82.4092 164.762 82.4092C161.045 82.4092 157.328 84.1415 154.85 86.8637C153.611 88.1011 152.62 89.3385 151.877 90.8233C151.381 91.5658 149.894 93.793 150.39 94.7829C150.885 95.7728 152.372 93.5455 152.868 93.0506C153.859 92.0607 155.098 91.0708 156.337 90.3284C157.823 89.5859 159.31 89.091 161.045 88.8435Z" fill="#FFE7C0"/>
<path d="M155.099 89.3384C158.568 86.6161 161.541 86.3687 164.515 86.6162C165.754 86.6162 166.993 86.8636 168.232 87.3586C172.196 88.3485 175.913 89.8333 179.382 91.8131C181.612 93.0505 184.09 96.5151 184.833 99.2374C184.586 97.2576 184.586 93.0505 184.338 91.0707C184.338 90.3283 184.09 89.5859 183.842 88.8434C183.594 88.101 183.099 87.3586 182.355 86.8636C181.117 85.3788 180.125 84.1414 178.639 83.1515C177.152 82.1616 175.417 81.4192 173.683 80.9242C169.223 79.6869 164.267 78.9444 159.807 80.6768C156.833 81.9141 154.355 84.1414 152.621 86.6162C151.134 88.8434 148.656 94.7828 148.656 97.505C149.4 97.505 152.621 91.3182 155.099 89.3384Z" fill="#3B82FF"/>
<path opacity="0.34" d="M157.081 82.6567C154.603 84.389 152.869 87.1112 152.125 90.0809C153.364 87.6062 155.842 85.6264 158.32 84.389C161.046 83.1516 163.772 82.6567 166.745 82.6567C167.984 82.6567 169.471 82.9042 170.462 82.1617C170.71 82.1617 170.71 81.9142 170.71 81.9142C170.957 81.6668 170.462 81.1718 170.214 80.9244C166.497 78.9446 160.798 79.9345 157.081 82.6567Z" fill="white"/>
</svg>
