<svg width="120" height="32" viewBox="0 0 120 32" fill="none" xmlns="http://www.w3.org/2000/svg">
<path d="M53.1767 22.6326C52.9291 22.9588 52.7603 23.1821 52.5858 23.4053C52.0681 24.0693 51.4715 24.6073 50.6611 24.9164C49.4061 25.3973 48.3425 24.676 47.8754 23.8689C47.4702 23.1706 47.1325 22.438 47.155 21.5908C47.1606 21.4191 47.1043 21.2531 47.0762 21.0814C47.0537 20.9096 47.0031 20.7379 47.0143 20.5662C47.1325 19.2211 47.1325 17.853 47.5715 16.5594C47.7459 16.0443 48.0048 15.552 48.2862 15.0883C48.5901 14.5846 49.0684 14.2584 49.6256 14.0695C50.3853 13.8119 51.3927 14.1782 51.7642 14.8995C52.13 15.615 52.4958 16.3362 52.4676 17.1833C52.462 17.3837 52.5126 17.584 52.5408 17.7843C52.5633 17.9274 52.6196 18.0705 52.6083 18.2079C52.5126 19.513 52.2594 20.778 51.5222 21.8884C51.2295 22.3292 50.7962 22.6097 50.3178 22.8157C50.0871 22.913 49.8394 22.9875 49.6143 23.0676C49.6143 23.5885 49.7944 23.8346 50.1827 23.8804C50.5767 23.9262 50.9087 23.7831 51.2014 23.5312C52.3382 22.5467 52.9798 21.3389 52.991 19.7706C52.9966 18.9177 53.0867 18.0476 53.3005 17.2062C53.5369 16.3018 53.9759 15.4833 54.4599 14.7106C55.0845 13.7146 56.7391 13.3998 57.7352 14.018C57.9716 14.1611 58.2023 14.3728 58.343 14.6075C58.9283 15.5692 59.356 16.5766 59.4686 17.7386C59.5361 18.4312 59.5811 19.1123 59.598 19.8049C59.6037 19.9137 59.6374 20.0224 59.6656 20.1827C59.795 20.1541 59.9076 20.1541 59.992 20.1026C60.6504 19.6847 60.718 19.0379 60.5998 18.351C60.3747 17.0574 60.5041 15.7581 60.4985 14.4644C60.4985 14.4129 60.5379 14.3614 60.5885 14.2526C61.0556 14.1153 61.5452 14.1038 62.0405 14.287C62.3331 14.3957 62.5076 14.5961 62.5076 14.9338C62.5076 15.1513 62.5357 15.3688 62.5526 15.5806C62.789 15.5978 62.8171 15.4318 62.9015 15.323C63.3124 14.8021 63.7626 14.3614 64.421 14.121C65.2539 13.8119 66.312 14.1553 66.8072 15.0883C67.0717 15.5806 67.2462 16.1129 67.2631 16.651C67.3081 17.8931 67.3587 19.1467 67.2406 20.3773C67.1618 21.2416 67.128 22.1002 67.1111 22.9646C67.1055 23.1649 67.1336 23.3595 67.1505 23.5427C67.6232 23.743 67.8146 23.7316 68.0397 23.371C68.3717 22.8386 68.7038 22.2891 68.9458 21.711C69.2047 21.0756 69.2947 20.3888 69.3847 19.6962C69.5817 18.1392 69.4917 16.5823 69.5254 15.0254C69.5311 14.8823 69.5254 14.7335 69.5479 14.5961C69.5817 14.3728 69.7168 14.2355 69.9363 14.2011C70.3977 14.1267 70.8423 14.2011 71.2644 14.4015C71.3826 14.4587 71.4727 14.5904 71.5514 14.7048C71.7315 14.9853 71.7766 15.3173 71.6921 15.6264C71.5008 16.3133 71.5852 17.0059 71.5514 17.6928C71.5233 18.2652 71.5514 18.8376 71.4276 19.4157C71.3432 19.8278 71.3488 20.2915 71.4276 20.7093C71.5233 21.1958 71.5233 21.6824 71.5627 22.1689C71.5852 22.4837 71.664 22.7928 71.7203 23.1019C71.7597 23.3194 71.8947 23.4511 72.0861 23.5541C72.4744 23.7602 72.6882 23.7316 72.9978 23.4053C73.0766 23.3252 73.1722 23.2393 73.2116 23.1363C73.4705 22.4666 73.7857 21.8083 73.9432 21.11C74.0952 20.446 74.0839 19.7362 74.1684 19.0551C74.3541 17.5268 74.2528 15.9985 74.2978 14.4702C74.3034 14.2183 74.2528 13.9378 74.5623 13.7203C74.8437 13.7203 75.1701 13.8119 75.4853 13.9207C75.913 14.0638 76.1156 14.3957 76.1606 14.8308C76.1775 15.0025 76.1662 15.1799 76.1662 15.3516C76.1662 16.2789 76.1718 17.2005 76.155 18.1278C76.1493 18.5285 76.0818 18.9291 76.0537 19.3298C76.0312 19.5874 76.0199 19.8507 76.0199 20.1083C76.0086 21.7854 76.003 23.4625 75.9974 25.1397C75.9974 25.6319 75.9918 26.1185 75.8398 26.5936C75.6597 27.1488 75.6653 27.7326 75.6541 28.305C75.6428 28.9461 75.5078 29.5643 75.2095 30.1367C74.5623 31.3788 73.4874 31.9341 72.1592 31.997C71.4839 32.0314 70.8648 31.7566 70.3527 31.3273C69.9081 30.9552 69.7168 30.3829 69.5423 29.8276C69.3228 29.1293 69.351 28.4024 69.351 27.6811C69.351 27.2518 69.5536 26.9656 69.9306 26.8111C70.1389 26.7252 70.364 26.668 70.5835 26.6565C71.2475 26.6165 71.377 26.7481 71.3713 27.4407C71.3657 27.7555 71.3094 28.0704 71.2926 28.3852C71.2644 28.8431 71.2307 29.3067 71.2363 29.7647C71.2419 30.1539 71.4445 30.4802 71.6696 30.7835C71.7484 30.8866 71.9004 30.9495 72.0298 30.9781C72.193 31.0125 72.3675 31.001 72.5363 30.9953C72.8233 30.9896 73.0203 30.8579 73.1047 30.566C73.2679 29.9822 73.4818 29.4155 73.5943 28.8202C73.8082 27.664 74.0051 26.4963 73.977 25.3057C73.9714 25.0252 74.0558 24.739 74.0839 24.4528C74.1008 24.2868 74.0896 24.1208 74.0896 23.8861C73.9264 23.9434 73.8138 23.9491 73.735 24.012C73.5774 24.138 73.4424 24.2868 73.3017 24.4242C72.6263 25.0939 71.7878 25.1855 70.9211 25.0366C70.5216 24.968 70.2008 24.7104 70.0151 24.3154C69.8406 23.9548 69.6549 23.5999 69.4579 23.2164C69.064 23.6457 68.7207 24.0578 68.338 24.4356C67.8427 24.9222 67.2462 25.1397 66.5483 25.0767C66.0925 25.0309 65.7548 24.842 65.5297 24.4127C65.2596 23.8861 65.1752 23.3137 65.1301 22.747C65.0851 22.2376 65.1752 21.7167 65.2089 21.2016C65.2258 20.9726 65.2539 20.7436 65.2539 20.5147C65.2652 19.9366 65.2371 19.3584 65.2708 18.7803C65.3215 17.9675 65.1414 17.1719 65.0851 16.3705C65.0513 15.9012 64.7474 15.6035 64.3423 15.5463C63.9483 15.4947 63.5769 15.7123 63.4249 16.153C63.166 16.8857 62.9409 17.6298 62.7102 18.3682C62.6933 18.4197 62.7046 18.4884 62.6821 18.5399C62.2994 19.3241 62.3725 20.1712 62.3669 21.007C62.3669 21.6709 62.3613 22.3349 62.3782 22.9989C62.3838 23.3137 62.4288 23.6285 62.4794 23.9376C62.5188 24.1723 62.5245 24.3956 62.4232 24.6131C62.3444 24.7791 62.2262 24.8993 62.0349 24.8993C61.8097 24.905 61.579 24.9107 61.3539 24.8993C60.7686 24.8706 60.521 24.636 60.4985 24.0578C60.4816 23.5083 60.5041 22.9588 60.4928 22.4093C60.4872 22.0716 60.5322 21.7282 60.4478 21.3676C59.7725 21.5049 59.3504 21.8541 59.1253 22.4837C58.9508 22.9703 58.7201 23.4339 58.495 23.9033C57.7634 25.4144 55.6811 25.6262 54.578 24.5215C54.2348 24.178 53.8915 23.8403 53.6776 23.3767C53.5594 23.1477 53.3906 22.9531 53.1767 22.6326ZM55.8499 16.7082C55.6923 17.1261 55.5516 17.4752 55.4391 17.8301C55.304 18.2537 55.2815 18.6945 55.4222 19.1066C55.7149 19.9766 56.3227 20.5605 57.1725 20.881C57.5326 21.0184 57.7746 20.8753 57.8647 20.4803C57.8872 20.3945 57.8984 20.3086 57.9041 20.2228C57.966 19.1238 57.9097 18.0248 57.6958 16.9544C57.5776 16.3419 57.3188 15.7409 57.0318 15.1799C56.6997 14.5274 55.8274 14.5045 55.4166 15.1112C55.2421 15.3631 55.0677 15.6378 55.062 16.0271C55.304 16.2331 55.5573 16.4564 55.8499 16.7082ZM50.2559 15.0426C49.8282 15.2772 49.6369 15.615 49.5637 16.0271C49.3386 17.2692 49.1191 18.5113 48.9052 19.7591C48.8715 19.9537 48.8377 20.1827 48.8996 20.3601C49.0628 20.841 49.0178 21.3275 49.0347 21.814C49.0403 21.9514 49.0797 22.0888 49.1078 22.2262C49.4905 22.3578 49.7381 22.146 49.9801 21.9571C50.7399 21.3676 51.0044 20.509 51.0663 19.6046C51.1338 18.6544 51.1226 17.6985 51.0776 16.7483C51.0438 16.1129 50.8918 15.4833 50.2559 15.0426ZM55.1633 20.9726C55.1014 21.0527 55.0395 21.0928 55.0395 21.1386C55.0114 21.8026 55.1521 22.4494 55.3322 23.0848C55.4166 23.3824 55.5798 23.6686 55.7486 23.9319C56.0356 24.3784 56.5084 24.4471 56.9079 24.1036C57.0374 23.9949 57.1443 23.8518 57.2287 23.7087C57.4482 23.308 57.6452 22.8959 57.6958 22.4208C57.3919 21.9571 56.8348 22.0029 56.4352 21.7511C56.03 21.4935 55.6136 21.2474 55.1633 20.9726Z" fill="#64436E"/>
<path d="M38.2239 20.99C38.1676 21.0987 38.1451 21.1216 38.1451 21.1502C38.0776 22.358 37.9988 23.5657 37.9538 24.7735C37.9369 25.323 37.9144 25.8668 37.7905 26.4048C37.723 26.7082 37.5486 26.9143 37.3234 26.9315C37.0308 26.9544 36.6706 26.7082 36.6143 26.422C36.5862 26.2846 36.5862 26.1358 36.5806 25.9927C36.5749 25.6436 36.5918 25.3001 36.5749 24.951C36.5524 24.5503 36.4905 24.1496 36.468 23.7489C36.4399 23.291 36.4399 22.8274 36.4286 22.3637C36.423 21.9917 36.4174 21.6196 36.4117 21.259C35.9897 21.0128 35.5845 21.1273 35.2018 21.1044C34.8922 21.0873 34.6502 20.99 34.4758 20.7324C34.3576 20.5607 34.3745 20.2974 34.5489 20.1943C34.7403 20.0798 34.9541 19.9997 35.168 19.9253C35.2693 19.8909 35.3931 19.9024 35.5057 19.9024C36.3723 19.9367 36.4455 19.7135 36.4286 18.9637C36.4174 18.5 36.4117 18.0364 36.4286 17.5785C36.4399 17.2007 36.2598 16.9832 35.9334 16.8572C35.6689 16.7542 35.3987 16.6626 35.1399 16.5424C33.7329 15.8956 32.9957 14.7565 32.658 13.2511C32.3541 11.906 32.6017 10.6238 32.9225 9.33591C32.9619 9.16991 33.0351 9.00964 33.0745 8.84364C33.3559 7.59009 34.1888 6.72577 35.1061 5.94158C36.2035 5.00285 37.4698 4.34459 38.8204 3.88094C39.4845 3.65198 40.1936 3.56612 40.8858 3.42302C41.1335 3.37151 41.3867 3.34289 41.64 3.30855C42.1239 3.23413 42.5967 3.21696 43.0638 3.40585C43.4352 3.54895 43.8179 3.65771 44.195 3.78364C45.737 4.29307 46.9413 5.27187 47.8136 6.63991C48.3595 7.49278 48.6578 8.44869 48.6916 9.49046C48.7366 10.7154 48.6184 11.906 48.1682 13.0508C47.7799 14.0525 47.2396 14.9626 46.6093 15.8212C45.0335 17.9677 42.9512 19.4044 40.475 20.263C39.9122 20.4576 39.3382 20.6122 38.7698 20.7896C38.5953 20.8297 38.4152 20.9155 38.2239 20.99ZM38.2183 19.5303C38.5559 19.4559 38.8092 19.4273 39.0455 19.3472C39.5014 19.1983 39.9572 19.0266 40.4018 18.8492C41.4711 18.4199 42.4222 17.8017 43.2495 17.0003C44.4707 15.8212 45.2811 14.3902 45.6807 12.7188C45.8214 12.1292 45.8833 11.5282 46.0184 10.9443C46.2379 9.98844 46.0521 9.10695 45.7651 8.2369C45.5006 7.43554 44.9829 6.77728 44.3863 6.18199C43.5703 5.3749 42.5911 4.9685 41.4711 4.97423C40.1598 4.98567 38.9049 5.30049 37.6724 5.76986C35.9671 6.41667 34.8191 7.61871 34.1269 9.29012C33.6035 10.5551 33.5303 11.8487 33.958 13.171C34.2338 14.0296 34.8191 14.5734 35.5901 14.9397C35.8265 15.0542 36.0797 15.0828 36.3161 14.934C36.4174 14.3959 36.4624 12.8447 36.3611 12.3525C36.1697 11.408 36.2992 10.4521 36.2598 9.5019C36.2485 9.28439 36.333 9.07833 36.5074 8.9753C36.952 8.72344 37.3966 8.47159 37.8693 8.28269C38.1676 8.16249 38.4152 8.38572 38.449 8.72916C38.4659 8.87226 38.4603 9.01536 38.4603 9.16419C38.4546 9.91403 38.4096 10.6581 38.3364 11.4023C38.2408 12.4326 38.3083 13.4801 38.3083 14.5218C38.3083 14.602 38.359 14.6821 38.3927 14.7737C38.781 14.8882 39.0399 14.6535 39.2932 14.4303C39.7884 13.9952 40.2668 13.5488 40.7676 13.1252C40.8802 13.0279 41.0547 12.9993 41.2122 12.9306C41.4374 13.3084 41.4767 13.6747 41.5612 14.0353C41.6625 14.4589 41.5949 14.8309 41.4374 15.203C41.2629 15.6208 40.959 15.9185 40.5594 16.1074C40.2274 16.2677 39.8953 16.4279 39.552 16.571C39.2369 16.7084 38.9161 16.8172 38.6066 16.9545C38.359 17.0633 38.1564 17.2407 38.1451 17.5269C38.1395 18.1737 38.0776 18.8034 38.2183 19.5303Z" fill="#64436E"/>
<path d="M17.3166 7.04051C17.1309 8.31123 16.6469 9.4732 16.0503 10.5894C15.7971 11.0702 15.4932 11.5224 15.2005 11.9803C15.1443 12.0662 15.0486 12.1291 14.9473 12.2207C14.5871 11.9345 14.5646 11.4938 14.3451 11.1675C14.2157 11.1446 14.0862 11.1217 13.9118 11.0931C13.9062 10.8012 13.8893 10.5207 13.8893 10.2345C13.8893 8.82067 13.8893 7.40684 13.8893 5.99874C13.8893 5.76978 13.9005 5.5351 13.8555 5.31186C13.8274 5.16304 13.7261 5.02566 13.6135 4.80243C13.5178 4.97987 13.4278 5.06573 13.4165 5.16304C13.3884 5.42062 13.3884 5.6782 13.3828 5.9415C13.3659 6.42804 13.3997 6.91458 13.2533 7.40112C13.1914 7.61291 13.2083 7.85904 13.2139 8.088C13.2252 8.69474 13.1745 9.29004 12.9832 9.87388C12.9326 9.87961 12.8481 9.91395 12.8313 9.89106C12.2178 8.97522 11.7957 7.98497 11.6832 6.87451C11.6607 6.64555 11.7451 6.39942 11.52 6.02736C11.5143 6.41659 11.5087 6.64555 11.5031 6.86879C11.4806 7.29236 11.5481 7.72739 11.4468 8.12807C11.2386 8.22537 11.1429 8.11662 11.0641 7.99641C10.7321 7.45264 10.4957 6.87451 10.3663 6.24487C10.2368 5.62096 10.4169 5.02566 10.6139 4.47616C10.794 3.97245 11.1317 3.52598 11.4468 3.07951C11.6888 2.73607 11.7226 2.75896 12.3022 2.87917C12.4261 2.73034 12.5836 2.56435 12.7074 2.38118C13.1689 1.6943 13.6248 0.995975 14.0862 0.303372C14.1594 0.194616 14.2607 0.103032 14.3508 0C15.0936 0.772739 15.4257 1.63706 15.6845 3.51453C15.8759 2.87917 15.6845 2.31249 15.8534 1.75726C16.2529 1.77444 16.5625 1.92898 16.8495 2.18084C17.643 2.87344 18.1945 3.73777 18.5941 4.70512C18.7179 4.99704 18.8417 5.28897 18.9374 5.58661C19.0331 5.88426 19.1175 6.19336 19.1681 6.50245C19.3032 7.32671 19.0331 8.03076 18.5153 8.65467C18.3521 8.84929 18.127 9.00956 18.1608 9.31293V9.30721C17.8963 9.3759 17.8456 9.62775 17.7387 9.83382C17.7105 9.91968 17.6768 10.0055 17.6486 10.0914C17.4854 10.2631 17.446 10.4692 17.4742 10.6981L17.4798 10.6924C17.3053 10.7783 17.401 10.8641 17.4798 10.9443C17.4291 11.0645 17.3841 11.1847 17.3335 11.3106C17.1646 11.3564 17.0352 11.4423 16.962 11.6197C16.8213 11.9631 16.6581 12.3009 16.4949 12.6328C16.4499 12.7187 16.3655 12.7874 16.2586 12.9133C16.0391 12.5928 16.0897 12.3066 16.1685 12.049C16.3317 11.5338 16.5118 11.013 16.7369 10.5264C17.159 9.61058 17.3447 8.62605 17.6149 7.6587C17.6655 7.46981 17.6317 7.25802 17.6317 7.05768C17.6768 6.11322 17.6824 5.16876 17.4629 4.2472C17.3898 3.93238 17.3898 3.56605 17.0521 3.30847C17.0239 3.42295 16.9677 3.51453 16.9902 3.57177C17.3278 4.47616 17.3278 5.41489 17.3053 6.35935C17.311 6.58259 17.3166 6.81155 17.3166 7.04051ZM15.6902 5.99302C15.7858 5.63813 15.8309 5.28897 15.6902 4.81388C15.572 5.29469 15.6001 5.64385 15.6902 5.99302Z" fill="#64436E"/>
<path d="M1.96982 23.5314C1.64903 23.9321 1.32825 24.3385 1.00184 24.7335C0.889281 24.8651 0.737331 24.9452 0.506592 24.8079C0.529103 24.7106 0.534731 24.6018 0.568497 24.5045C1.15941 23.0048 1.75033 21.5051 2.36376 20.0169C2.60575 19.433 2.85338 18.832 3.2023 18.3169C3.80447 17.4182 4.5586 16.6741 5.72355 16.5882C6.39888 16.302 7.06296 16.5882 7.73266 16.634C7.9015 16.6455 7.97466 16.9374 7.84522 17.0519C7.54132 17.3037 7.22616 17.5613 6.89975 17.7845C6.06684 18.3512 5.369 19.0667 4.67678 19.7936C4.4573 20.0226 4.26595 20.2687 4.20967 20.6637C4.32223 20.6694 4.44604 20.7095 4.50232 20.6637C4.94691 20.3031 5.38025 19.931 5.80234 19.5532C6.39888 19.0209 6.98417 18.4771 7.58071 17.9448C7.78331 17.7616 7.94089 17.8647 8.07033 18.128C8.01405 18.2253 7.94652 18.3512 7.87336 18.4657C6.97854 19.7994 6.09498 21.1445 5.18891 22.4668C4.37288 23.6631 3.38239 24.6877 2.15553 25.449C1.89103 25.6149 1.60964 25.7523 1.32262 25.884C1.2382 25.9183 1.12002 25.8725 0.96807 25.8611C1.36764 24.991 1.92479 24.2927 2.3525 23.52C2.90403 22.9762 3.02784 22.7758 3.03347 22.3008C2.57762 22.6671 2.2906 23.1136 1.96982 23.5314ZM3.32611 21.963C3.34299 21.9573 3.36551 21.9516 3.38239 21.9401C3.39364 21.9344 3.39364 21.9115 3.39927 21.9001C3.37676 21.9173 3.35425 21.9459 3.32611 21.963C3.30923 21.9745 3.28672 21.9802 3.26983 21.9974C3.25858 22.0031 3.26421 22.026 3.25858 22.0432C3.28109 22.0146 3.3036 21.9859 3.32611 21.963Z" fill="#64436E"/>
<path d="M76.6392 19.9825C76.6786 18.3798 77.1006 16.8973 77.9054 15.535C78.3613 14.7622 78.9578 14.1269 79.8414 13.8063C80.3479 13.6232 80.7925 13.7491 81.2371 13.9094C81.6366 14.0525 82.0081 14.2757 82.3682 14.4989C83.2012 15.0255 83.5838 15.8384 83.6626 16.8C83.6964 17.172 83.6795 17.5498 83.6683 17.9276C83.6457 18.6717 83.1505 19.0953 82.4414 19.0037C82.1206 18.9637 81.9349 18.7232 81.9912 18.397C82.0531 18.0306 82.1319 17.6643 82.2275 17.3037C82.4695 16.405 82.1037 15.6552 81.6254 14.9626C81.3552 14.5676 80.5505 14.5447 80.1509 14.871C79.5431 15.369 79.0872 15.9929 78.8171 16.7427C78.4851 17.6643 78.153 18.5801 78.1924 19.5933C78.2037 19.8451 78.1136 20.1027 78.0799 20.3546C77.9448 21.3162 78.1136 22.1805 78.834 22.8903C79.7907 23.8405 81.721 23.8176 82.6215 22.5984C82.734 22.4496 82.796 22.2378 82.8185 22.0489C82.8466 21.8028 82.9085 21.591 83.1055 21.4479C83.2124 21.3735 83.3587 21.3105 83.4882 21.3162C83.6739 21.3277 83.7808 21.4879 83.8089 21.6711C83.8765 22.1519 83.7302 22.5869 83.4488 22.9647C82.2895 24.5102 80.1734 24.6876 78.8396 24.0351C77.6916 23.4742 77.0106 22.6213 76.8361 21.3448C76.7742 20.8869 76.7011 20.4347 76.6392 19.9825Z" fill="#E36E9A"/>
<path d="M104.997 18.5743C105.358 17.8245 105.386 17.1032 105.346 16.382C105.318 15.844 105.149 15.3746 104.739 15.0025C104.345 14.6419 103.911 14.5618 103.41 14.7908C103.09 14.9396 102.848 15.1743 102.651 15.4662C101.947 16.5022 101.486 17.6299 101.396 18.9063C101.351 19.5646 101.216 20.2114 101.125 20.8639C101.114 20.9498 101.075 21.0471 101.103 21.1215C101.289 21.6309 101.435 22.169 101.694 22.6383C101.902 23.0161 102.319 23.2222 102.718 23.3653C103.731 23.7373 104.671 23.5771 105.521 22.9016C105.825 22.6612 106.005 22.335 106.022 21.9343C106.033 21.6595 106.112 21.4306 106.331 21.2531C106.506 21.1158 106.765 21.1616 106.81 21.3791C106.939 21.9858 106.939 22.5811 106.511 23.0963C106.213 23.4569 105.853 23.7488 105.448 23.9491C104.322 24.4986 103.14 24.5902 101.998 24.0464C100.687 23.4225 99.9493 22.3464 99.893 20.8467C99.8705 20.24 99.8592 19.6332 99.8986 19.0265C100.011 17.2979 100.642 15.7867 101.835 14.5332C102.048 14.3099 102.302 14.0981 102.577 13.9665C103.033 13.749 103.5 13.5715 104.035 13.7891C104.587 14.018 105.166 14.1668 105.645 14.5503C106.432 15.1857 106.765 16.0558 106.86 17.0346C106.894 17.3494 106.888 17.6699 106.855 17.9847C106.81 18.414 106.613 18.7632 106.179 18.8949C105.971 18.9578 105.723 18.9979 105.521 18.9521C105.346 18.9292 105.211 18.7403 104.997 18.5743Z" fill="#E36E9A"/>
<path d="M6.31993 13.8463C6.26928 13.5143 5.96538 13.417 5.75715 13.2339C5.52078 13.0335 5.25628 12.8561 5.03117 12.6386C4.65973 12.2722 4.37272 11.8315 4.26579 11.3163C4.0857 10.4348 3.82119 9.59339 3.3372 8.78059C3.50604 8.67755 3.6411 8.59169 3.78743 8.50583C3.8437 8.05364 3.21902 7.96206 3.25279 7.52131C3.32032 7.50414 3.3766 7.46407 3.42162 7.48124C4.0463 7.67013 4.66536 7.86475 5.28442 8.06509C5.55455 8.15095 5.81343 8.27687 6.07793 8.37418C7.74376 8.96948 9.15633 9.954 10.31 11.3163C10.3607 11.3793 10.3832 11.4651 10.4113 11.5453C10.417 11.5624 10.3944 11.5968 10.3663 11.6655C9.48837 11.5109 8.73425 10.95 7.86757 10.7783C7.74376 11.0015 7.87882 11.0816 7.98575 11.1618C8.8862 11.8143 9.74725 12.5184 10.5464 13.2911C10.6533 13.3941 10.7096 13.5544 10.8559 13.7948C10.597 13.7605 10.4563 13.7662 10.3438 13.7204C9.61218 13.4113 8.88057 13.1022 8.15458 12.7759C7.40046 12.4382 6.6576 12.0833 5.91473 11.7342C5.81343 11.6884 5.71213 11.614 5.6052 11.6025C5.5039 11.5911 5.34632 11.5968 5.3013 11.6598C5.19437 11.8029 5.3013 11.946 5.42511 12.0089C6.05542 12.3352 6.69699 12.65 7.33293 12.9648C7.71562 13.1537 8.09831 13.3369 8.47537 13.5315C8.53727 13.5601 8.59918 13.6918 8.5823 13.7433C8.5429 13.8349 8.4416 13.9551 8.36844 13.9551C8.03077 13.9493 7.69311 13.9265 7.36107 13.8692C7.10219 13.8291 6.85457 13.7776 6.64634 13.9837C6.53378 13.9322 6.42686 13.8921 6.31993 13.8463ZM6.39872 10.1658C6.36495 10.1257 6.33681 10.0685 6.29742 10.0513C6.26928 10.0399 6.21863 10.0857 6.17361 10.1028C6.19612 10.12 6.213 10.1429 6.23551 10.1486C6.29179 10.1601 6.34807 10.1658 6.39872 10.1658C6.6576 10.5779 7.0628 10.7038 7.47362 10.8183C7.59743 10.5894 7.48488 10.4692 7.36107 10.4291C7.05154 10.3203 6.72513 10.2517 6.39872 10.1658Z" fill="#64436E"/>
<path d="M97.2425 17.5613C97.3213 17.4125 97.4226 17.298 97.4451 17.1721C97.5351 16.6913 97.6027 16.2105 97.6646 15.7239C97.7321 15.1859 97.7771 14.6421 97.8447 14.0983C97.8953 13.7148 98.278 13.5316 98.6157 13.7262C98.9196 13.898 99.0828 14.1784 98.9984 14.5219C98.8858 14.9741 98.8689 15.432 98.8239 15.8899C98.7676 16.4566 98.6326 17.0175 98.5481 17.5842C98.5087 17.8704 98.5087 18.1566 98.5031 18.4485C98.4862 18.9351 98.4637 19.4159 98.3849 19.9082C98.2555 20.6923 98.3568 21.4594 98.9871 22.0489C99.049 22.1062 99.0828 22.1863 99.1278 22.255C99.1165 22.5698 98.9139 22.6499 98.6663 22.6385C98.5313 22.6328 98.3906 22.5755 98.2611 22.5183C98.0022 22.4038 97.749 22.2779 97.4676 22.1405C97.3551 22.2264 97.2312 22.2951 97.1356 22.3924C96.691 22.856 96.1282 22.8904 95.5542 22.8102C95.1433 22.753 94.7832 22.5412 94.6143 22.1462C94.4567 21.7799 94.3104 21.3907 94.2654 21.0014C94.1472 19.9425 94.3667 18.9351 94.9238 18.025C95.0702 17.7846 95.2615 17.5556 95.481 17.3839C95.813 17.1206 96.1845 17.029 96.5897 17.2694C96.7866 17.3839 97.0061 17.4526 97.2425 17.5613ZM97.3494 19.3529C97.2763 19.0896 97.2031 18.7576 97.0962 18.4371C97.0399 18.2596 96.8823 18.1795 96.7022 18.1509C96.3252 18.0936 96.0494 18.2425 95.8412 18.563C95.5598 19.0038 95.4866 19.5132 95.3572 20.0112C95.2052 20.5836 95.3291 21.0873 95.526 21.5967C95.6667 21.9631 96.1113 22.0947 96.4377 21.86C96.5728 21.7627 96.7022 21.6311 96.7754 21.4823C97.1018 20.8469 97.2425 20.1486 97.3494 19.3529Z" fill="#E36E9A"/>
<path d="M13.6528 13.0679C14.0693 13.1423 14.4857 13.1938 14.8966 13.2911C15.7801 13.4972 16.3879 14.2069 16.4555 15.1056C16.4836 15.5063 16.4667 15.9127 16.4611 16.3134C16.4555 16.7369 16.2472 17.0918 16.0165 17.4124C15.8477 17.6528 15.5606 17.7558 15.2736 17.7787C14.7559 17.8245 14.2606 17.836 13.8892 17.3494C13.7823 17.212 13.5628 17.1262 13.3771 17.0918C12.7299 16.9774 12.3809 16.5881 12.2684 15.9585C12.1727 15.4262 12.1052 14.8824 12.032 14.3443C11.9983 14.0753 12.0883 13.8349 12.2234 13.6059C12.4091 13.2854 12.668 13.0908 13.0507 13.1079C13.2476 13.1194 13.4446 13.1079 13.6472 13.1079C13.6472 13.1022 13.6472 13.085 13.6528 13.0679Z" fill="#E36E9A"/>
<path d="M90.8325 22.003C90.8663 21.734 90.8775 21.505 90.9338 21.2875C91.0408 20.8868 91.0407 20.4919 90.9451 20.0912C90.8044 19.4902 90.8156 18.8949 90.9394 18.2939C90.9845 18.0706 91.0182 17.836 91.007 17.607C90.9732 16.7026 91.2715 15.8497 91.4234 14.974C91.4797 14.6534 91.6879 14.3329 91.8962 14.0638C92.3802 13.4399 93.3425 13.5258 93.6577 14.2527C93.9334 14.9053 94.1417 15.5921 93.9672 16.342C93.8378 16.8972 93.8434 17.4868 93.7308 18.0477C93.5226 19.0723 93.2074 20.0511 92.5265 20.8697C92.2563 21.1959 92.1157 21.5565 92.3745 21.9744C92.4871 22.1576 92.6222 22.272 92.8304 22.335C93.0724 22.4037 93.3256 22.4781 93.5451 22.604C93.6352 22.6556 93.6914 22.8387 93.6914 22.9646C93.6914 23.0276 93.5451 23.1421 93.4494 23.1535C92.7291 23.2623 92.0706 23.1306 91.6485 22.4724C91.4628 22.1862 91.1927 22.1518 90.8325 22.003ZM91.8005 18.8548C91.823 18.8548 91.8455 18.8605 91.868 18.8605C91.868 19.2669 91.8568 19.6676 91.8737 20.074C91.8793 20.1713 91.9581 20.2973 92.0369 20.3431C92.1832 20.4289 92.3014 20.3202 92.3858 20.1942C92.8079 19.536 93.1399 18.8319 93.2131 18.0477C93.275 17.3322 93.2412 16.6053 93.2243 15.8841C93.2187 15.6608 93.1399 15.4376 93.0555 15.2258C92.9711 15.014 92.7009 15.0026 92.5771 15.1857C92.2957 15.5979 92.1269 16.0615 92.0594 16.5481C91.9356 17.3093 91.8793 18.0878 91.8005 18.8548Z" fill="#E36E9A"/>
<path d="M85.7448 18.7861C85.8011 18.6945 85.8743 18.6143 85.908 18.5228C86.0206 18.2366 86.2345 18.0591 86.499 17.9332C86.9098 17.7386 87.315 17.9389 87.3994 18.3854C87.4275 18.5228 87.4163 18.6716 87.4163 18.8147C87.4163 19.2497 87.4275 19.679 87.4107 20.114C87.3769 20.8982 87.4219 21.6652 87.9003 22.3178C87.5682 22.6498 87.4557 22.6841 87.2475 22.5296C86.9154 22.2834 86.679 21.9572 86.6003 21.545C86.5102 21.0986 86.3639 20.6578 86.4089 20.1827C86.4258 19.9824 86.4089 19.7763 86.3751 19.5817C86.3639 19.5187 86.2682 19.4615 86.2007 19.4272C86.1669 19.41 86.0881 19.4443 86.0487 19.4787C85.7899 19.7362 85.6998 20.0625 85.7054 20.4231C85.7054 20.9726 85.6998 21.5221 85.7054 22.0659C85.7054 22.3578 85.5816 22.5639 85.3509 22.7127C84.9963 22.9474 84.5405 22.7471 84.5461 22.3178C84.5517 21.4019 84.4279 20.4746 84.6474 19.5645C84.6981 19.347 84.6868 19.1066 84.6924 18.8776C84.7037 18.1278 84.7431 17.3722 84.6981 16.6281C84.6474 15.7867 84.9063 14.9739 84.8838 14.1382C84.8782 13.8863 85.0414 13.7089 85.2327 13.5772C85.5873 13.3368 86.015 13.5314 86.0431 13.9607C86.06 14.1897 86.0544 14.4244 86.0206 14.6476C85.8799 15.4662 85.6886 16.279 85.5873 17.0975C85.5254 17.6069 85.5816 18.1278 85.5873 18.6487C85.5929 18.6888 85.666 18.7231 85.7448 18.7861Z" fill="#E36E9A"/>
<path d="M110.085 17.5898C110.378 17.5211 110.614 17.4467 110.867 17.5841C111.143 17.7386 111.312 17.9275 111.306 18.2595C111.295 19.038 111.295 19.8222 111.289 20.6006C111.289 20.7723 111.301 20.9498 111.289 21.1215C111.267 21.5222 111.357 21.8656 111.717 22.0946C111.768 22.1232 111.818 22.1575 111.858 22.1976C112.027 22.3751 111.965 22.7013 111.728 22.7528C111.514 22.7986 111.239 22.8559 111.07 22.7586C110.518 22.438 110.107 22.4895 109.663 22.9818C109.286 23.3997 108.335 23.2337 107.975 22.7586C107.62 22.2949 107.378 21.7798 107.389 21.173C107.395 20.7666 107.378 20.3659 107.389 19.9595C107.417 18.9922 107.761 18.1679 108.458 17.4982C108.695 17.2693 108.931 17.0975 109.28 17.1147C109.612 17.1319 109.629 17.1262 110.085 17.5898ZM108.245 20.8639C108.245 21.0299 108.222 21.2589 108.25 21.4878C108.301 21.9229 108.622 22.1118 108.982 22.2377C109.213 22.3178 109.584 22.1118 109.747 21.8141C109.832 21.6653 109.899 21.505 109.944 21.339C110.029 21.007 110.051 20.6521 110.175 20.3373C110.411 19.7363 110.158 19.204 110.012 18.6602C109.933 18.374 109.702 18.2881 109.404 18.3225C109.123 18.3568 108.937 18.5285 108.807 18.7575C108.453 19.3871 108.166 20.0397 108.245 20.8639Z" fill="#E36E9A"/>
<path d="M25.7358 11.2133C25.899 11.1733 26.0735 11.1675 26.2142 11.0874C26.6081 10.8699 26.9852 10.6238 27.351 10.4062C27.5817 10.4978 27.5479 10.6581 27.4804 10.7726C27.2553 11.1675 26.9964 11.551 26.7657 11.9403C25.8202 13.5373 24.3964 14.539 22.7531 15.2602C22.1565 15.5178 21.5262 15.678 20.8678 15.7238C20.3331 15.7639 19.8154 15.9356 19.2695 15.8669C19.1682 15.8555 19.0669 15.8211 18.853 15.7754C19.1006 15.5636 19.247 15.4033 19.4214 15.2945C20.8453 14.413 22.2747 13.5373 23.6985 12.6615C24.0362 12.4554 24.4076 12.2952 24.599 11.9059C24.7284 11.8773 24.8579 11.8487 24.9929 11.8144C25.218 11.717 25.3925 11.5854 25.3362 11.2935C25.4713 11.2706 25.6007 11.242 25.7358 11.2133Z" fill="#64436E"/>
<path d="M13.5798 29.0722C13.6305 28.4426 13.7036 27.813 13.7318 27.1833C13.7599 26.5766 13.8556 25.9756 13.8781 25.3803C13.9344 24.0294 14.3565 22.7873 14.7223 21.5166C14.863 21.0357 15.1669 20.7095 15.5496 20.4633C15.9773 20.1886 16.45 19.9825 17.0297 19.9253C17.0409 20.0684 17.0972 20.2058 17.0578 20.3145C16.5119 21.8943 15.9604 23.4684 15.4032 25.0425C15.1556 25.7466 14.9024 26.4506 14.6491 27.1547C14.5816 27.3379 14.5985 27.4924 14.7448 27.6241C14.6885 27.7328 14.6322 27.8473 14.5816 27.9561C14.227 28.1449 14.2214 28.1621 14.4071 28.4712C14.3508 28.6429 14.2946 28.8147 14.2383 28.9864C14.1201 29.015 14.0075 29.0493 13.8894 29.078C13.7937 29.0722 13.6868 29.0722 13.5798 29.0722Z" fill="#64436E"/>
<path d="M14.2495 28.9805C14.3058 28.8088 14.3621 28.6371 14.4183 28.4654C14.4746 28.2937 14.5309 28.1219 14.5928 27.9502C14.6491 27.8415 14.7054 27.727 14.756 27.6182C14.8573 27.4465 14.9755 27.2805 15.0543 27.0973C15.7184 25.5347 16.3656 23.972 17.0296 22.4151C17.2041 21.9973 17.2885 21.5336 17.6093 21.1902C17.8963 21.2016 17.9526 21.3505 17.9132 21.5966C17.7556 22.5296 17.6037 23.4626 17.4517 24.4013C17.3223 24.533 17.2491 24.6646 17.4799 24.8535C17.5474 24.6875 17.6037 24.5387 17.6599 24.3956C17.7894 23.9205 18.0201 23.5027 18.2677 23.1134C18.4647 23.1363 18.4985 23.2623 18.476 23.3653C18.3015 24.1438 18.1833 24.9279 17.8907 25.6892C17.4517 26.8283 16.7595 27.8014 16.1067 28.8031C16.0504 28.8947 15.9378 28.9462 15.8647 29.0034C15.6508 28.9691 15.6339 28.8374 15.6339 28.6829C15.6339 28.4368 15.8872 28.2135 15.6621 27.9044C15.5777 27.9617 15.482 28.0075 15.4201 28.0819C15.1781 28.3623 14.9474 28.6543 14.711 28.9347C14.5759 29.0893 14.4127 29.0778 14.2495 28.9805Z" fill="#64436E"/>
<path d="M17.345 11.2991C17.3956 11.1789 17.4406 11.0587 17.4913 10.9328C17.4913 10.8469 17.4913 10.7668 17.4913 10.6809L17.4857 10.6867C17.7276 10.5378 17.6714 10.3032 17.6601 10.0799C17.6883 9.99406 17.722 9.9082 17.7502 9.82234C18.1554 9.75937 18.1554 9.75937 18.1722 9.29573V9.30145C18.3974 9.34152 18.5437 9.20415 18.69 9.06105C19.6411 8.15666 20.761 7.54991 22.0385 7.29233C23.0909 7.08055 24.1546 6.9031 25.2351 7.1893C25.6966 7.31523 26.1862 7.3324 26.6533 7.42398C26.8109 7.4526 26.9516 7.56136 27.2105 7.68156C26.9516 7.77887 26.8109 7.8819 26.6646 7.88763C25.7585 7.89908 24.8637 8.05935 23.9576 8.10514C22.8095 8.16238 21.639 8.3112 20.626 8.98091C20.2264 9.24994 19.8324 9.53614 19.4497 9.82806C19.2021 10.017 19.1458 10.3032 19.1458 10.6008C19.0052 10.6809 18.8701 10.7725 18.7238 10.8469C18.5493 10.9385 18.5155 11.0873 18.5212 11.2591C18.2961 11.3506 18.1779 11.5338 18.0653 11.7341C17.8852 12.049 17.6883 12.3523 17.48 12.6843C17.2493 12.1921 17.238 12.0032 17.345 11.2991Z" fill="#64436E"/>
<path d="M18.5154 11.2647C18.5154 11.093 18.5435 10.9384 18.718 10.8526C18.8643 10.7782 18.9993 10.6866 19.14 10.6064C20.1812 9.79363 21.3011 9.1411 22.6124 8.88924C23.3609 8.74614 24.1037 8.5916 24.8747 8.62594C25.3531 8.64884 25.7921 8.78621 26.2592 8.87207C26.2254 8.98655 26.2198 9.06669 26.1916 9.07813C23.6254 10.1256 21.0591 11.1617 18.4253 12.2321C18.4253 12.0317 18.4141 11.9001 18.4309 11.7741C18.4478 11.5967 18.4872 11.4307 18.5154 11.2647Z" fill="#64436E"/>
<path d="M117.486 21.5681C117.581 22.0661 117.846 22.3752 118.268 22.5641C118.538 22.6843 118.752 22.6327 118.966 22.4381C119.185 22.2378 119.298 21.9859 119.405 21.7169C119.444 21.6196 119.641 21.5108 119.731 21.5337C119.832 21.5624 119.917 21.7226 119.979 21.8428C120.012 21.9115 120.001 22.0145 119.979 22.0947C119.855 22.5526 119.123 23.1479 118.662 23.1708C117.621 23.228 116.883 22.6556 116.608 21.6253C116.247 20.2973 116.534 19.0667 117.092 17.8704C117.249 17.5384 117.497 17.3152 117.829 17.1949C117.986 17.1377 118.178 17.0805 118.324 17.1263C118.87 17.2923 119.315 17.6529 119.742 18.0249C119.799 18.0707 119.821 18.1852 119.821 18.2653C119.81 19.0209 119.68 19.7593 119.241 20.3832C118.971 20.761 118.606 21.0415 118.116 21.0873C117.823 21.1159 117.643 21.2819 117.486 21.5681ZM119.157 19.0495C119.168 18.6145 119.05 18.2539 118.628 18.0593C118.386 17.9505 118.183 17.9963 118.031 18.2138C117.694 18.6946 117.57 19.2613 117.474 19.8223C117.424 20.1199 117.564 20.3832 117.761 20.6007C117.891 20.7381 118.071 20.7782 118.223 20.6751C118.786 20.2859 119.208 19.7994 119.157 19.0495Z" fill="#E36E9A"/>
<path d="M113.895 16.9946C114.373 17.2064 114.362 17.6014 114.39 17.9448C114.537 18.1223 114.677 17.9906 114.807 17.9963C115.375 18.0135 115.656 18.3684 115.448 18.895C115.173 19.5933 115.223 20.3088 115.223 21.03C115.223 21.3334 115.347 21.591 115.516 21.8257C115.628 21.9859 115.758 22.1348 115.87 22.2836C115.747 22.6442 115.465 22.7301 115.201 22.7988C114.981 22.856 114.818 22.6957 114.7 22.5297C114.39 22.1004 114.238 21.6024 114.216 21.0758C114.193 20.5836 114.216 20.097 114.21 19.6048C114.21 19.4445 114.171 19.2842 114.143 19.0896C113.811 19.1526 113.737 19.3815 113.709 19.5933C113.63 20.2459 113.563 20.9041 113.524 21.5624C113.501 21.923 113.428 22.2493 113.192 22.5126C113.124 22.587 112.995 22.627 112.893 22.627C112.691 22.6385 112.522 22.3981 112.578 22.2092C112.606 22.129 112.64 22.0489 112.679 21.9688C113.056 21.2361 113.18 20.4462 113.186 19.6334C113.192 19.0553 113.214 18.4771 113.186 17.899C113.169 17.3896 113.372 17.0862 113.895 16.9946Z" fill="#E36E9A"/>
<path d="M21.1719 22.6726C21.8303 22.8501 22.2974 22.9417 22.7364 23.1019C23.5468 23.3939 24.4078 23.4168 25.2408 23.5026C26.0455 23.5885 26.8559 23.3595 27.7282 23.0733C27.5875 22.9588 27.5256 22.8558 27.4469 22.8444C27.2217 22.8157 26.9966 22.8215 26.7659 22.8215C25.6572 22.8215 24.5542 22.8329 23.4455 22.8272C22.8546 22.8215 22.8546 22.81 22.3593 22.3635C22.5057 22.3464 22.607 22.3235 22.7026 22.3235C23.2429 22.3235 23.7832 22.3177 24.3178 22.3349C25.3421 22.3693 26.3438 22.2033 27.3456 22.0315C28.0378 21.9113 28.7469 21.8713 29.4503 21.8083C29.5798 21.7969 29.7374 21.7625 29.833 21.9514C29.7599 22.1918 29.5122 22.2204 29.3378 22.3406C29.2027 22.4379 28.9945 22.5181 28.9495 22.6497C28.7581 23.2164 28.2573 23.3996 27.8127 23.6114C26.8503 24.0693 25.8261 24.304 24.7624 24.1952C23.5974 24.075 22.4831 23.7659 21.5152 23.0447C21.4476 22.9875 21.3857 22.9016 21.1719 22.6726Z" fill="#64436E"/>
<path d="M12.9607 30.7093C12.8706 30.6235 12.7749 30.5662 12.7299 30.4804C12.3078 29.6504 12.0433 28.7746 12.0377 27.8359C12.0321 27.4295 12.0546 27.0231 12.0264 26.6224C11.9364 25.2772 12.1953 23.9722 12.5949 22.7129C12.8819 21.82 13.2477 20.9213 13.9905 20.2688C14.0524 20.2172 14.1312 20.1829 14.21 20.1486C14.2325 20.1371 14.2663 20.1543 14.3226 20.1657C14.3001 20.7095 14.1144 21.2189 13.9905 21.7398C13.7092 22.9132 13.3884 24.0752 13.1295 25.2544C12.9663 26.0099 12.82 26.7769 12.8537 27.5611C12.8706 27.9961 12.8425 28.4254 12.8594 28.8605C12.8819 29.4615 12.9213 30.0568 12.9607 30.7093Z" fill="#64436E"/>
<path d="M11.509 19.0208C11.4808 19.1124 11.4639 19.2326 11.4077 19.3242C11.2726 19.5417 11.1432 19.7707 10.9743 19.9596C9.81499 21.2131 8.63879 22.4609 7.47384 23.7088C7.39505 23.7889 7.31626 23.8919 7.22059 23.932C7.13054 23.9664 6.98985 23.9606 6.92231 23.9091C6.85478 23.8519 6.81539 23.703 6.83227 23.6115C6.86041 23.4741 6.94482 23.3482 7.01799 23.228C7.7102 22.0431 8.39679 20.8582 9.09464 19.6734C9.24096 19.4272 9.37603 19.1754 9.55049 18.9464C9.70244 18.7461 9.8769 18.5457 10.0795 18.3969C10.5241 18.0649 11.1769 18.2481 11.4414 18.7575C11.4696 18.8262 11.4808 18.9121 11.509 19.0208Z" fill="#64436E"/>
<path d="M27.9025 21.1617C27.2835 21.465 26.7939 21.5566 26.2874 21.6139C25.8371 21.6654 25.3925 21.7627 24.9423 21.757C23.8168 21.7512 22.68 21.7283 21.6219 21.259C21.2111 21.0758 20.8228 20.8297 20.4457 20.5778C19.8379 20.1771 19.6747 19.9539 19.2751 19.164C19.3708 18.998 19.5059 19.0438 19.6353 19.0953C20.5639 19.4445 21.4812 19.8223 22.4154 20.1485C23.3778 20.4862 24.3683 20.6923 25.3869 20.7839C26.006 20.8354 26.6138 20.9384 27.2385 20.9556C27.4017 20.9613 27.5592 21.0529 27.9025 21.1617Z" fill="#64436E"/>
<path d="M25.7359 11.2134C25.6008 11.242 25.4714 11.2706 25.3363 11.2993C25.1169 11.4023 24.9368 11.5282 24.993 11.8201C24.8636 11.8488 24.7285 11.8774 24.5991 11.9117C24.329 11.8659 24.0982 11.9919 23.8787 12.1235C22.393 13.0165 20.9073 13.9151 19.4159 14.8081C19.3934 14.8252 19.3653 14.8367 19.3427 14.8481C19.022 15.0256 18.8081 15.037 18.7462 14.8653C18.6505 14.5963 18.9038 14.5333 19.0332 14.4017C19.6129 13.8064 20.2263 13.2511 20.9354 12.8161C20.9973 12.7761 21.0255 12.673 21.0705 12.6043L21.0648 12.6101C21.38 12.5242 21.38 12.5242 21.4081 12.175C21.5432 12.1464 21.6783 12.1178 21.8077 12.0892C22.1791 12.1407 22.4549 11.9117 22.7532 11.7572C23.693 11.2878 24.6497 10.8757 25.6627 10.5952C25.9047 10.7898 25.8372 11.0016 25.7359 11.2134Z" fill="#64436E"/>
<path d="M3.47217 6.11899C4.61461 5.94155 5.97653 6.01024 6.76442 6.15334C7.96314 6.37657 8.87484 7.09207 9.78091 7.84191C9.85407 7.90488 9.87659 8.03081 9.93849 8.14529C9.81468 8.18535 9.72464 8.24832 9.66273 8.23115C7.71552 7.6244 5.7683 7.01194 3.82672 6.39947C3.73105 6.37085 3.66351 6.27354 3.47217 6.11899Z" fill="#64436E"/>
<path d="M3.79883 25.0309C3.94515 24.7505 4.00143 24.5845 4.10273 24.4528C5.5547 22.6727 6.94476 20.8295 8.55993 18.9177C8.51491 19.2268 8.52054 19.3299 8.48677 19.4157C7.89023 20.9841 7.12485 22.4494 5.96552 23.6744C5.44777 24.2239 4.81183 24.5959 4.17589 24.9737C4.11961 25.008 4.02957 24.9966 3.79883 25.0309Z" fill="#64436E"/>
<path d="M22.1284 19.4559C22.3817 19.3472 22.5392 19.227 22.6912 19.227C23.7717 19.227 24.8298 18.9293 25.9103 19.0209C27.0865 19.1182 28.2121 19.3701 29.1631 20.1257C29.2251 20.1772 29.2757 20.2516 29.3263 20.3145C29.3376 20.3317 29.332 20.3661 29.3376 20.4061C29.2757 20.5836 29.1181 20.5549 28.9831 20.5378C28.2008 20.4347 27.4185 20.3203 26.6306 20.2115C26.2648 20.16 25.9047 20.0913 25.5389 20.0398C24.6159 19.9196 23.6873 19.8108 22.7644 19.6792C22.5843 19.6506 22.4098 19.5533 22.1284 19.4559Z" fill="#64436E"/>
<path d="M88.4576 21.0987C88.4632 20.9556 88.4407 20.801 88.4857 20.6694C88.6827 20.0798 88.6151 19.4788 88.6377 18.8778C88.6433 18.6774 88.6433 18.4714 88.6883 18.2825C88.7671 17.9276 88.9641 17.7845 89.2905 17.8131C89.6281 17.836 89.7801 18.002 89.8082 18.3684C89.8195 18.5401 89.8251 18.7175 89.8026 18.8835C89.7126 19.5017 89.6113 20.1256 89.51 20.7438C89.4312 21.2361 89.5381 21.6539 89.9489 21.963C90.0727 22.0546 90.1628 22.1519 90.129 22.3122C90.0953 22.4953 89.9152 22.6327 89.69 22.6499C89.071 22.7014 88.5758 22.3236 88.4857 21.7054C88.4576 21.5108 88.4801 21.3048 88.4801 21.1044C88.4688 21.0987 88.4632 21.0987 88.4576 21.0987Z" fill="#E36E9A"/>
<path d="M6.32 13.8464C6.42693 13.8922 6.53385 13.9323 6.64078 13.9781C7.27672 14.2757 7.91829 14.5734 8.55986 14.8767C9.07198 15.1172 9.57849 15.3633 10.1638 15.6438C9.73044 16.033 9.30835 16.096 8.86376 16.0215C8.47544 15.9529 8.09275 15.8441 7.72132 15.7124C6.65767 15.3404 5.75722 14.7107 5.02561 13.835C4.97496 13.772 4.93556 13.6862 4.91305 13.606C4.89617 13.5545 4.91868 13.4973 4.92994 13.3828C5.44769 13.3656 5.81913 13.835 6.32 13.8464Z" fill="#64436E"/>
<path d="M3.62429 16.7885C3.56239 16.8801 3.50611 16.9831 3.43295 17.0575C2.61692 17.8589 2.11605 18.8606 1.75587 19.931C1.44071 20.8525 1.18183 21.797 0.877934 22.7243C0.697845 23.2681 0.472734 23.8004 0.258878 24.3327C0.236367 24.3957 0.140695 24.4243 0 24.5331C0.270134 22.5411 0.534639 20.6465 1.42946 18.9178C1.63206 18.5286 1.85154 18.1737 2.1667 17.8703C2.53813 17.5097 2.89268 17.1434 3.26411 16.7828C3.33165 16.7141 3.4442 16.6969 3.53425 16.6511C3.56239 16.6969 3.59615 16.7427 3.62429 16.7885Z" fill="#64436E"/>
<path d="M21.5881 16.2503C22.1903 15.9985 22.7981 15.7581 23.4003 15.5005C24.0362 15.2257 24.5427 14.7564 25.0886 14.35C26.3324 13.4341 27.1653 12.1634 28.0432 10.927C28.167 10.7496 28.2458 10.5263 28.5553 10.4634C28.5328 10.6065 28.5328 10.721 28.4934 10.8183C28.0826 11.7055 27.6268 12.5526 26.9683 13.3025C25.9328 14.4873 24.7059 15.3746 23.3102 16.05C22.7644 16.3133 22.1903 16.4507 21.5825 16.4392C21.5825 16.3763 21.5881 16.3133 21.5881 16.2503Z" fill="#64436E"/>
<path d="M6.7478 7.75024C8.01405 7.99638 9.20714 8.4314 10.2483 9.21558C10.9743 9.75936 11.4583 10.5092 11.6665 11.4079C11.7171 11.6368 11.931 11.8715 11.7284 12.1634C11.6609 12.1176 11.5708 12.0948 11.537 12.0375C10.6816 10.5092 9.43788 9.41592 7.89587 8.64891C7.51318 8.46002 7.13612 8.25968 6.75343 8.07079C6.75343 7.96203 6.7478 7.859 6.7478 7.75024Z" fill="#64436E"/>
<path d="M28.5331 17.2063C28.3699 17.2349 28.2742 17.2807 28.2123 17.2578C27.2612 16.8915 26.3213 16.5137 25.314 16.113C25.4096 15.9127 25.449 15.7409 25.5503 15.6322C26.1469 14.9911 27.3681 15.0483 27.8577 15.844C28.0997 16.2561 28.4092 16.6396 28.5331 17.2063Z" fill="#64436E"/>
<path d="M10.2537 26.3935C9.82041 25.6493 9.54465 24.9396 9.76413 24.0924C9.95548 23.3597 10.2087 22.6729 10.5914 22.026C10.6364 21.9516 10.7715 21.9345 10.8672 21.8887C10.9009 21.986 10.9797 22.089 10.9685 22.1863C10.9291 22.587 10.8615 22.982 10.8053 23.3769C10.6927 24.2012 10.5802 25.0197 10.4563 25.8439C10.4282 26.0328 10.3269 26.2103 10.2537 26.3935Z" fill="#64436E"/>
<path d="M21.8133 12.0778C21.6782 12.1064 21.5431 12.135 21.4137 12.1636C21.2392 12.2552 21.0366 12.3296 21.0704 12.5986L21.076 12.5929C20.7384 12.5242 20.4795 12.7017 20.215 12.8677C19.8323 13.1081 19.4609 13.3656 19.0725 13.5889C18.8924 13.6919 18.7067 13.8751 18.4028 13.7034C18.4535 13.5603 18.476 13.3943 18.5604 13.2626C18.808 12.8734 19.1513 12.5872 19.5396 12.3353C20.3782 11.7858 21.2617 11.3794 22.2804 11.3394C22.2804 11.408 22.2804 11.4825 22.2747 11.5511C22.1115 11.7286 21.9652 11.906 21.8133 12.0778Z" fill="#64436E"/>
<path d="M26.3492 17.2635C25.3699 17.1948 24.447 17.4638 23.5071 17.687C22.9331 17.8244 22.3534 17.9675 21.7794 18.0935C21.4699 18.1621 21.1604 18.1564 20.8508 17.8759C21.0816 17.7958 21.2785 17.7099 21.4811 17.6584C22.0833 17.5039 22.6855 17.3551 23.2877 17.212C23.8898 17.0689 24.492 16.9143 25.1054 16.7941C25.5331 16.7082 25.9496 16.817 26.3604 16.9429C26.3492 17.0517 26.3492 17.1547 26.3492 17.2635Z" fill="#64436E"/>
<path d="M26.5404 18.2938C25.6963 18.3625 24.8521 18.4255 24.0079 18.4942C23.811 18.5114 23.614 18.5342 23.4227 18.58C23.0906 18.6659 22.7586 18.6602 22.3083 18.6029C22.4716 18.477 22.5447 18.3854 22.6348 18.3625C23.2651 18.1965 23.8954 18.042 24.5313 17.8932C25.156 17.7443 25.7694 17.7844 26.366 18.0248C26.4335 18.0534 26.4842 18.1278 26.5348 18.1908C26.5517 18.2023 26.5404 18.2423 26.5404 18.2938Z" fill="#64436E"/>
<path d="M11.655 22.4895C11.7169 21.4936 11.6213 20.4861 11.9758 19.5073C12.4485 19.3413 12.668 19.4444 12.6905 19.9023C12.7018 20.1255 12.6737 20.3659 12.5949 20.572C12.3641 21.2131 12.0996 21.8484 11.8464 22.4838C11.7845 22.4838 11.7226 22.4838 11.655 22.4895Z" fill="#64436E"/>
<path d="M90.1458 16.6512C90.1571 17.069 89.9657 17.2636 89.5268 17.2808C89.0146 17.298 88.8064 17.1205 88.8008 16.6798C88.8008 16.2791 89.1553 15.9299 89.5605 15.9299C89.8082 15.9299 90.1908 16.2848 90.1458 16.6512Z" fill="#E36E9A"/>
<path d="M17.3167 7.0405C17.3167 6.81154 17.3167 6.58258 17.3223 6.35362C17.3448 5.40916 17.3448 4.47043 17.0071 3.56604C16.9846 3.5088 17.0409 3.41721 17.069 3.30273C17.4067 3.55459 17.4011 3.92665 17.4799 4.24147C17.705 5.16303 17.6937 6.10749 17.6487 7.05195C17.5362 7.04622 17.4236 7.04622 17.3167 7.0405Z" fill="#64436E"/>
<path d="M11.3399 25.0881C11.3399 25.6663 11.3455 26.2387 11.3455 26.8168C11.3455 26.9599 11.3568 27.1144 11.3174 27.2461C11.2892 27.3377 11.1879 27.4521 11.1091 27.4693C10.9459 27.4922 10.8615 27.3606 10.8503 27.2003C10.839 27.0858 10.8334 26.9713 10.8503 26.8568C10.9122 26.376 10.9797 25.8952 11.0529 25.4144C11.0697 25.3056 11.1373 25.2026 11.1823 25.0939C11.2386 25.0881 11.2892 25.0881 11.3399 25.0881Z" fill="#64436E"/>
<path d="M11.34 25.0883C11.2893 25.0883 11.233 25.0883 11.1824 25.0883C11.2499 24.3899 11.3006 23.6916 11.3906 22.999C11.4131 22.8216 11.5651 22.6556 11.6551 22.4839C11.717 22.4781 11.7845 22.4781 11.8465 22.4724C11.7958 22.7472 11.7339 23.0219 11.6945 23.2967C11.6213 23.7947 11.5707 24.2984 11.4919 24.7964C11.4806 24.9051 11.3962 24.991 11.34 25.0883Z" fill="#64436E"/>
<path d="M21.5882 16.2505C21.5825 16.3135 21.5825 16.3764 21.5769 16.4394C21.3687 16.6626 21.1098 16.7542 20.8172 16.7599C20.5076 16.7656 20.1981 16.7599 19.7141 16.7599C19.9617 16.5997 20.0574 16.4909 20.17 16.4737C20.6427 16.3821 21.1154 16.3192 21.5882 16.2505Z" fill="#E3E2F1"/>
<path d="M1.96973 23.5312C2.29051 23.1134 2.57753 22.6669 3.02775 22.312C3.02212 22.7871 2.89831 22.9932 2.34679 23.5312C2.22298 23.5312 2.09354 23.5312 1.96973 23.5312Z" fill="#64436E"/>
<path d="M6.74763 7.75034C6.74763 7.85909 6.75325 7.96212 6.75325 8.07088C6.03853 7.87054 5.87532 7.78468 5.62207 7.47559C6.03853 7.50993 6.40433 7.56145 6.74763 7.75034Z" fill="#E1E0F0"/>
<path d="M26.3494 17.2637C26.3494 17.1549 26.355 17.0519 26.355 16.9431C26.6814 17.0175 27.0303 17.0404 27.3511 17.4468C26.929 17.3667 26.642 17.3152 26.3494 17.2637Z" fill="#E3E2F1"/>
<path d="M22.2634 11.5567C22.2634 11.488 22.2634 11.4136 22.2691 11.3449C22.3985 11.156 22.5392 10.9958 22.7981 11.0931C22.6461 11.4022 22.6461 11.4022 22.2634 11.5567Z" fill="#E1E0F0"/>
<path d="M13.5798 29.072C13.6868 29.072 13.7937 29.0777 13.895 29.0777C13.8894 29.301 13.9231 29.5414 13.5967 29.6845C13.5967 29.4498 13.5911 29.2609 13.5798 29.072Z" fill="#64436E"/>
<path d="M11.5088 6.86316C11.5144 6.63992 11.5144 6.41096 11.5257 6.02173C11.7508 6.39379 11.6664 6.63992 11.6889 6.86888C11.6326 6.86888 11.5707 6.86316 11.5088 6.86316Z" fill="#64436E"/>
<path d="M17.6601 24.3958C17.6038 24.5389 17.5475 24.6877 17.48 24.8537C17.2492 24.6648 17.3224 24.5331 17.4518 24.4015C17.5194 24.3958 17.5869 24.3958 17.6601 24.3958Z" fill="#64436E"/>
<path d="M3.33154 21.9686C3.35405 21.9457 3.37657 21.9228 3.39908 21.8999C3.39345 21.9171 3.39345 21.9342 3.38219 21.94C3.37094 21.9514 3.34843 21.9571 3.33154 21.9686Z" fill="#64436E"/>
<path d="M3.32608 21.9629C3.30357 21.9858 3.28106 22.0144 3.25854 22.0373C3.26417 22.0201 3.25854 22.003 3.2698 21.9915C3.29231 21.9801 3.31482 21.9743 3.32608 21.9629Z" fill="#64436E"/>
<path d="M6.39868 10.1658C6.71947 10.2516 7.04588 10.3203 7.36103 10.4234C7.47922 10.4634 7.5974 10.5836 7.47359 10.8126C7.06276 10.7038 6.65756 10.5779 6.39868 10.1658Z" fill="#64436E"/>
<path d="M6.39893 10.1716C6.34828 10.1659 6.292 10.1601 6.24135 10.1487C6.21884 10.143 6.19633 10.1201 6.17944 10.1029C6.21884 10.0857 6.26949 10.0399 6.30325 10.0514C6.34265 10.0685 6.36516 10.1258 6.39893 10.1716Z" fill="#64436E"/>
</svg>
