<svg width="181" height="133" viewBox="0 0 181 133" fill="none" xmlns="http://www.w3.org/2000/svg">
<g clip-path="url(#clip0_243_4482)">
<path fill-rule="evenodd" clip-rule="evenodd" d="M73.2028 101.871C71.4316 99.9821 58.7625 91.1445 56.3754 90.1323C54.3105 89.3014 51.7168 88.9162 50.2503 91.0027C48.9575 93.0612 48.8895 95.6382 49.7267 97.8827C50.6715 100.973 52.4064 103.72 54.7205 105.887C55.9609 107.033 57.3609 108.003 58.9119 108.811C61.744 110.233 64.9278 110.918 68.1674 110.753C70.5696 110.762 72.9771 109.817 74.4766 107.902C75.9431 105.816 74.6927 103.519 73.2028 101.871ZM130.3 51.5279C129.82 41.0807 123.857 30.8264 115.205 24.7914L114.833 24.5319C106.364 18.6239 95.0609 16.5541 85.1478 19.3345C78.4204 21.2898 73.4732 24.63 68.5751 31.5989L67.3344 33.3641C63.6769 38.5679 60.2315 40.7354 54.614 42.0844C50.4856 43.0852 47.3964 45.9116 44.8476 49.538C42.3017 53.1602 41.0836 57.4349 41.5147 61.8962C42.2914 67.4257 45.2084 72.6446 49.4611 76.1647C55.4741 81.4661 61.8126 86.3044 68.4427 90.9293C75.0687 95.5514 81.9363 99.6456 88.8615 103.649C93.6321 106.424 99.5525 107.369 105.038 106.208C109.393 105.086 113.005 102.481 115.551 98.8585C118.1 95.2321 119.713 91.3763 119.241 87.1663C118.687 81.5124 119.462 77.4822 123.12 72.2784L124.361 70.5132C129.13 63.7279 130.635 58.273 130.3 51.5279ZM117.36 43.1499C118.323 42.0394 119.972 41.9064 121.067 42.8391C124.457 45.9176 125.557 50.8565 123.793 55.1328L123.651 55.4992C123.057 56.7587 121.586 57.3458 120.311 56.881C119.659 56.5488 119.13 55.9886 118.902 55.295C118.674 54.6015 118.725 53.8372 119.057 53.1554L119.094 53.06C119.927 50.9082 119.359 48.444 117.672 46.9256C116.557 45.9561 116.428 44.2725 117.36 43.1499Z" fill="#64436E"/>
<path d="M37.6512 23.1023C37.6172 23.1023 37.5836 23.0956 37.5522 23.0825C37.5209 23.0694 37.4924 23.0503 37.4684 23.0261C37.4444 23.002 37.4254 22.9733 37.4124 22.9418C37.3994 22.9103 37.3928 22.8765 37.3928 22.8424V15.5095C37.3918 15.4747 37.3977 15.4401 37.4103 15.4077C37.4228 15.3753 37.4417 15.3457 37.4658 15.3208C37.4899 15.2958 37.5187 15.276 37.5506 15.2625C37.5824 15.2489 37.6167 15.2419 37.6513 15.2419C37.6859 15.2419 37.7201 15.2489 37.752 15.2625C37.7838 15.276 37.8127 15.2958 37.8368 15.3208C37.8609 15.3457 37.8798 15.3753 37.8923 15.4077C37.9048 15.4401 37.9108 15.4747 37.9097 15.5095V22.8424C37.9098 22.8765 37.9031 22.9103 37.8901 22.9419C37.8771 22.9734 37.8581 23.0021 37.8341 23.0262C37.81 23.0504 37.7815 23.0695 37.7501 23.0826C37.7188 23.0956 37.6851 23.1023 37.6512 23.1023Z" fill="#E36E9A"/>
<path d="M40.0315 19.436H35.2711C35.2025 19.436 35.1367 19.4086 35.0882 19.3599C35.0398 19.3111 35.0125 19.245 35.0125 19.1761C35.0125 19.1071 35.0398 19.041 35.0882 18.9923C35.1367 18.9435 35.2025 18.9161 35.2711 18.9161H40.0315C40.1001 18.9161 40.1658 18.9435 40.2143 18.9923C40.2628 19.041 40.29 19.1071 40.29 19.1761C40.29 19.245 40.2628 19.3111 40.2143 19.3599C40.1658 19.4086 40.1001 19.436 40.0315 19.436Z" fill="#E36E9A"/>
<path d="M3.13871 51.1697C3.10477 51.1697 3.07115 51.1629 3.03979 51.1499C3.00843 51.1368 2.97994 51.1177 2.95595 51.0935C2.93196 51.0694 2.91293 51.0407 2.89996 51.0092C2.88699 50.9777 2.88033 50.9439 2.88036 50.9097V43.5769C2.87934 43.5421 2.88528 43.5075 2.89781 43.4751C2.91034 43.4427 2.92922 43.4131 2.95332 43.3882C2.97742 43.3632 3.00625 43.3434 3.03812 43.3299C3.06998 43.3163 3.10423 43.3093 3.13882 43.3093C3.17342 43.3093 3.20766 43.3163 3.23953 43.3299C3.27139 43.3434 3.30023 43.3632 3.32433 43.3882C3.34843 43.4131 3.3673 43.4427 3.37984 43.4751C3.39237 43.5075 3.3983 43.5421 3.39728 43.5769V50.9097C3.39731 50.9439 3.39065 50.9777 3.37766 51.0092C3.36468 51.0408 3.34563 51.0695 3.32162 51.0936C3.2976 51.1177 3.26908 51.1369 3.2377 51.1499C3.20631 51.163 3.17268 51.1697 3.13871 51.1697Z" fill="#E36E9A"/>
<path d="M5.51896 47.5034H0.758574C0.689996 47.5034 0.624226 47.476 0.575734 47.4272C0.527242 47.3785 0.5 47.3124 0.5 47.2434C0.5 47.1745 0.527242 47.1084 0.575734 47.0597C0.624226 47.0109 0.689996 46.9835 0.758574 46.9835H5.51896C5.58754 46.9835 5.65331 47.0109 5.7018 47.0597C5.75029 47.1084 5.77754 47.1745 5.77754 47.2434C5.77754 47.3124 5.75029 47.3785 5.7018 47.4272C5.65331 47.476 5.58754 47.5034 5.51896 47.5034Z" fill="#E36E9A"/>
<path d="M6.67552 110.312C6.64157 110.312 6.60796 110.305 6.5766 110.292C6.54524 110.279 6.51675 110.26 6.49275 110.236C6.46876 110.212 6.44974 110.183 6.43677 110.151C6.4238 110.12 6.41714 110.086 6.41716 110.052V102.719C6.41615 102.684 6.42208 102.65 6.43461 102.617C6.44714 102.585 6.46602 102.555 6.49012 102.53C6.51422 102.505 6.54306 102.486 6.57492 102.472C6.60679 102.459 6.64103 102.452 6.67563 102.452C6.71022 102.452 6.74447 102.459 6.77633 102.472C6.8082 102.486 6.83703 102.505 6.86113 102.53C6.88523 102.555 6.90411 102.585 6.91664 102.617C6.92917 102.65 6.93511 102.684 6.93409 102.719V110.052C6.93412 110.086 6.92745 110.12 6.91447 110.151C6.90148 110.183 6.88244 110.212 6.85842 110.236C6.8344 110.26 6.80589 110.279 6.7745 110.292C6.74312 110.305 6.70948 110.312 6.67552 110.312Z" fill="#E36E9A"/>
<path d="M9.05577 106.646H4.29538C4.2268 106.646 4.16103 106.618 4.11254 106.569C4.06405 106.521 4.0368 106.455 4.0368 106.386C4.0368 106.317 4.06405 106.251 4.11254 106.202C4.16103 106.153 4.2268 106.126 4.29538 106.126H9.05577C9.12434 106.126 9.19011 106.153 9.23861 106.202C9.2871 106.251 9.31434 106.317 9.31434 106.386C9.31434 106.455 9.2871 106.521 9.23861 106.569C9.19011 106.618 9.12434 106.646 9.05577 106.646Z" fill="#E36E9A"/>
<path d="M160.806 53.418C160.737 53.418 160.672 53.3906 160.623 53.3419C160.575 53.2931 160.547 53.227 160.547 53.1581V42.0038C160.547 41.9349 160.575 41.8688 160.623 41.82C160.672 41.7713 160.737 41.7439 160.806 41.7439C160.875 41.7439 160.94 41.7713 160.989 41.82C161.037 41.8688 161.065 41.9349 161.065 42.0038V53.1581C161.065 53.227 161.037 53.2931 160.989 53.3418C160.94 53.3906 160.875 53.418 160.806 53.418Z" fill="#E36E9A"/>
<path d="M164.427 47.8409H157.186C157.117 47.8409 157.052 47.8135 157.003 47.7648C156.955 47.716 156.927 47.6499 156.927 47.581C156.927 47.512 156.955 47.4459 157.003 47.3972C157.052 47.3484 157.117 47.321 157.186 47.321H164.427C164.496 47.321 164.562 47.3484 164.61 47.3972C164.659 47.4459 164.686 47.512 164.686 47.581C164.686 47.6499 164.659 47.716 164.61 47.7648C164.562 47.8135 164.496 47.8409 164.427 47.8409Z" fill="#E36E9A"/>
<path d="M27.342 83.8237C27.2734 83.8237 27.2077 83.7963 27.1592 83.7475C27.1107 83.6988 27.0834 83.6327 27.0834 83.5637V72.4095C27.0834 72.3405 27.1107 72.2744 27.1592 72.2257C27.2077 72.1769 27.2734 72.1495 27.342 72.1495C27.4106 72.1495 27.4764 72.1769 27.5248 72.2257C27.5733 72.2744 27.6006 72.3405 27.6006 72.4095V83.5637C27.6005 83.6327 27.5733 83.6987 27.5248 83.7475C27.4763 83.7962 27.4106 83.8236 27.342 83.8237Z" fill="#E36E9A"/>
<path d="M30.9633 78.2465H23.7219C23.6534 78.2465 23.5876 78.2192 23.5391 78.1704C23.4906 78.1217 23.4634 78.0556 23.4634 77.9866C23.4634 77.9177 23.4906 77.8516 23.5391 77.8028C23.5876 77.7541 23.6534 77.7267 23.7219 77.7267H30.9633C31.0319 77.7267 31.0977 77.7541 31.1462 77.8028C31.1947 77.8516 31.2219 77.9177 31.2219 77.9866C31.2219 78.0556 31.1947 78.1217 31.1462 78.1704C31.0977 78.2192 31.0319 78.2465 30.9633 78.2465Z" fill="#E36E9A"/>
<path d="M38.1867 129.362C38.1182 129.362 38.0524 129.335 38.0039 129.286C37.9554 129.237 37.9282 129.171 37.9282 129.102V117.948C37.9282 117.879 37.9554 117.813 38.0039 117.764C38.0524 117.715 38.1182 117.688 38.1867 117.688C38.2553 117.688 38.3211 117.715 38.3696 117.764C38.4181 117.813 38.4453 117.879 38.4453 117.948V129.102C38.4452 129.171 38.418 129.237 38.3695 129.286C38.321 129.335 38.2553 129.362 38.1867 129.362Z" fill="#E36E9A"/>
<path d="M41.8081 123.785H34.5667C34.4982 123.785 34.4324 123.757 34.3839 123.709C34.3354 123.66 34.3082 123.594 34.3082 123.525C34.3082 123.456 34.3354 123.39 34.3839 123.341C34.4324 123.292 34.4982 123.265 34.5667 123.265H41.8081C41.8767 123.265 41.9425 123.292 41.991 123.341C42.0395 123.39 42.0667 123.456 42.0667 123.525C42.0667 123.594 42.0395 123.66 41.991 123.709C41.9425 123.757 41.8767 123.785 41.8081 123.785Z" fill="#E36E9A"/>
<path d="M145.95 104.559C145.882 104.559 145.816 104.531 145.767 104.483C145.719 104.434 145.692 104.368 145.692 104.299V93.1446C145.692 93.0756 145.719 93.0095 145.767 92.9608C145.816 92.912 145.882 92.8846 145.95 92.8846C146.019 92.8846 146.085 92.912 146.133 92.9608C146.182 93.0095 146.209 93.0756 146.209 93.1446V104.299C146.209 104.368 146.181 104.434 146.133 104.483C146.085 104.531 146.019 104.559 145.95 104.559Z" fill="#E36E9A"/>
<path d="M149.572 98.9816H142.33C142.262 98.9816 142.196 98.9543 142.147 98.9055C142.099 98.8568 142.072 98.7907 142.072 98.7217C142.072 98.6528 142.099 98.5867 142.147 98.5379C142.196 98.4892 142.262 98.4618 142.33 98.4618H149.572C149.64 98.4618 149.706 98.4892 149.754 98.5379C149.803 98.5867 149.83 98.6528 149.83 98.7217C149.83 98.7907 149.803 98.8568 149.754 98.9055C149.706 98.9543 149.64 98.9816 149.572 98.9816Z" fill="#E36E9A"/>
<path d="M105.099 129.362C105.03 129.362 104.964 129.335 104.916 129.286C104.867 129.237 104.84 129.171 104.84 129.102V117.948C104.84 117.879 104.867 117.813 104.916 117.764C104.964 117.715 105.03 117.688 105.099 117.688C105.167 117.688 105.233 117.715 105.281 117.764C105.33 117.813 105.357 117.879 105.357 117.948V129.102C105.357 129.171 105.33 129.237 105.281 129.286C105.233 129.335 105.167 129.362 105.099 129.362Z" fill="#E36E9A"/>
<path d="M108.72 123.785H101.479C101.41 123.785 101.344 123.757 101.296 123.709C101.247 123.66 101.22 123.594 101.22 123.525C101.22 123.456 101.247 123.39 101.296 123.341C101.344 123.292 101.41 123.265 101.479 123.265H108.72C108.789 123.265 108.854 123.292 108.903 123.341C108.951 123.39 108.979 123.456 108.979 123.525C108.979 123.594 108.951 123.66 108.903 123.709C108.854 123.757 108.789 123.785 108.72 123.785Z" fill="#E36E9A"/>
<path d="M178.431 18.1542C178.397 18.1542 178.363 18.1475 178.332 18.1345C178.301 18.1214 178.272 18.1023 178.248 18.0781C178.224 18.054 178.205 18.0253 178.192 17.9938C178.179 17.9622 178.172 17.9284 178.172 17.8943V12.3171C178.172 12.2482 178.2 12.1821 178.248 12.1333C178.297 12.0846 178.362 12.0572 178.431 12.0572C178.5 12.0572 178.565 12.0846 178.614 12.1333C178.662 12.1821 178.689 12.2482 178.689 12.3171V17.8943C178.69 17.9284 178.683 17.9622 178.67 17.9938C178.657 18.0253 178.638 18.054 178.614 18.0781C178.59 18.1023 178.561 18.1214 178.53 18.1345C178.499 18.1475 178.465 18.1542 178.431 18.1542Z" fill="#E36E9A"/>
<path d="M180.241 15.3657H176.621C176.587 15.3657 176.553 15.359 176.522 15.3459C176.49 15.3329 176.462 15.3137 176.438 15.2896C176.414 15.2655 176.395 15.2368 176.382 15.2053C176.369 15.1737 176.362 15.1399 176.362 15.1058C176.362 15.0717 176.369 15.0379 176.382 15.0063C176.395 14.9748 176.414 14.9462 176.438 14.922C176.462 14.8979 176.49 14.8787 176.522 14.8657C176.553 14.8526 176.587 14.8459 176.621 14.8459H180.241C180.31 14.8459 180.376 14.8733 180.424 14.922C180.473 14.9708 180.5 15.0369 180.5 15.1058C180.5 15.1747 180.473 15.2409 180.424 15.2896C180.376 15.3383 180.31 15.3657 180.241 15.3657Z" fill="#E36E9A"/>
</g>
<defs>
<clipPath id="clip0_243_4482">
<rect width="180" height="132.188" fill="white" transform="translate(0.5)"/>
</clipPath>
</defs>
</svg>
