<svg width="40" height="41" viewBox="0 0 40 41" fill="none" xmlns="http://www.w3.org/2000/svg">
<g opacity="0.5">
<path d="M19.5833 32.1668H19.1667C15.2222 32.1668 11.875 30.7918 9.125 28.0418C6.375 25.2918 5 21.9446 5 18.0002C5 14.0557 6.375 10.7085 9.125 7.9585C11.875 5.2085 15.2222 3.8335 19.1667 3.8335C21.1389 3.8335 22.9794 4.20127 24.6883 4.93683C26.3972 5.67238 27.8972 6.68627 29.1883 7.9785C30.4794 9.27072 31.4928 10.7707 32.2283 12.4785C32.9639 14.1863 33.3322 16.0268 33.3333 18.0002C33.3333 21.7224 32.2844 25.1807 30.1867 28.3752C28.0889 31.5696 25.4433 34.0696 22.25 35.8752C21.9722 36.0141 21.6944 36.0907 21.4167 36.1052C21.1389 36.1196 20.8889 36.0568 20.6667 35.9168C20.4444 35.7779 20.25 35.5974 20.0833 35.3752C19.9167 35.1529 19.8194 34.8891 19.7917 34.5835L19.5833 32.1668ZM19.125 27.1252C19.5972 27.1252 20 26.9585 20.3333 26.6252C20.6667 26.2918 20.8333 25.8891 20.8333 25.4168C20.8333 24.9446 20.6667 24.5418 20.3333 24.2085C20 23.8752 19.5972 23.7085 19.125 23.7085C18.6528 23.7085 18.25 23.8752 17.9167 24.2085C17.5833 24.5418 17.4167 24.9446 17.4167 25.4168C17.4167 25.8891 17.5833 26.2918 17.9167 26.6252C18.25 26.9585 18.6528 27.1252 19.125 27.1252ZM15.5 14.4585C15.8056 14.5974 16.1111 14.6046 16.4167 14.4802C16.7222 14.3557 16.9722 14.1541 17.1667 13.8752C17.4167 13.5418 17.7083 13.2846 18.0417 13.1035C18.375 12.9224 18.75 12.8324 19.1667 12.8335C19.8333 12.8335 20.375 13.0207 20.7917 13.3952C21.2083 13.7696 21.4167 14.2491 21.4167 14.8335C21.4167 15.1946 21.3128 15.5557 21.105 15.9168C20.8972 16.2779 20.5289 16.7224 20 17.2502C19.3056 17.8613 18.7917 18.4379 18.4583 18.9802C18.125 19.5224 17.9583 20.0707 17.9583 20.6252C17.9583 20.9585 18.0767 21.2435 18.3133 21.4802C18.55 21.7168 18.8344 21.8346 19.1667 21.8335C19.5 21.8335 19.7778 21.7085 20 21.4585C20.2222 21.2085 20.3889 20.9168 20.5 20.5835C20.6389 20.1113 20.8889 19.6807 21.25 19.2918C21.6111 18.9029 21.9444 18.5557 22.25 18.2502C22.8333 17.6668 23.2711 17.0835 23.5633 16.5002C23.8556 15.9168 24.0011 15.3335 24 14.7502C24 13.4724 23.5622 12.4446 22.6867 11.6668C21.8111 10.8891 20.6378 10.5002 19.1667 10.5002C18.2778 10.5002 17.4583 10.7157 16.7083 11.1468C15.9583 11.5779 15.3472 12.1679 14.875 12.9168C14.7083 13.2224 14.6872 13.5213 14.8117 13.8135C14.9361 14.1057 15.1656 14.3207 15.5 14.4585Z" fill="#00C0B0"/>
</g>
</svg>
