<svg width="40" height="41" viewBox="0 0 40 41" fill="none" xmlns="http://www.w3.org/2000/svg">
<g opacity="0.5">
<path d="M19.5833 32.1666H19.1667C15.2222 32.1666 11.875 30.7916 9.125 28.0416C6.375 25.2916 5 21.9444 5 17.9999C5 14.0555 6.375 10.7083 9.125 7.95825C11.875 5.20825 15.2222 3.83325 19.1667 3.83325C21.1389 3.83325 22.9794 4.20103 24.6883 4.93659C26.3972 5.67214 27.8972 6.68603 29.1883 7.97825C30.4794 9.27047 31.4928 10.7705 32.2283 12.4783C32.9639 14.186 33.3322 16.0266 33.3333 17.9999C33.3333 21.7221 32.2844 25.1805 30.1867 28.3749C28.0889 31.5694 25.4433 34.0694 22.25 35.8749C21.9722 36.0138 21.6944 36.0905 21.4167 36.1049C21.1389 36.1194 20.8889 36.0566 20.6667 35.9166C20.4444 35.7777 20.25 35.5971 20.0833 35.3749C19.9167 35.1527 19.8194 34.8888 19.7917 34.5833L19.5833 32.1666ZM19.125 27.1249C19.5972 27.1249 20 26.9583 20.3333 26.6249C20.6667 26.2916 20.8333 25.8888 20.8333 25.4166C20.8333 24.9444 20.6667 24.5416 20.3333 24.2083C20 23.8749 19.5972 23.7083 19.125 23.7083C18.6528 23.7083 18.25 23.8749 17.9167 24.2083C17.5833 24.5416 17.4167 24.9444 17.4167 25.4166C17.4167 25.8888 17.5833 26.2916 17.9167 26.6249C18.25 26.9583 18.6528 27.1249 19.125 27.1249ZM15.5 14.4583C15.8056 14.5971 16.1111 14.6044 16.4167 14.4799C16.7222 14.3555 16.9722 14.1538 17.1667 13.8749C17.4167 13.5416 17.7083 13.2844 18.0417 13.1033C18.375 12.9221 18.75 12.8321 19.1667 12.8333C19.8333 12.8333 20.375 13.0205 20.7917 13.3949C21.2083 13.7694 21.4167 14.2488 21.4167 14.8333C21.4167 15.1944 21.3128 15.5555 21.105 15.9166C20.8972 16.2777 20.5289 16.7221 20 17.2499C19.3056 17.861 18.7917 18.4377 18.4583 18.9799C18.125 19.5221 17.9583 20.0705 17.9583 20.6249C17.9583 20.9583 18.0767 21.2433 18.3133 21.4799C18.55 21.7166 18.8344 21.8344 19.1667 21.8333C19.5 21.8333 19.7778 21.7083 20 21.4583C20.2222 21.2083 20.3889 20.9166 20.5 20.5833C20.6389 20.111 20.8889 19.6805 21.25 19.2916C21.6111 18.9027 21.9444 18.5555 22.25 18.2499C22.8333 17.6666 23.2711 17.0833 23.5633 16.4999C23.8556 15.9166 24.0011 15.3333 24 14.7499C24 13.4721 23.5622 12.4444 22.6867 11.6666C21.8111 10.8888 20.6378 10.4999 19.1667 10.4999C18.2778 10.4999 17.4583 10.7155 16.7083 11.1466C15.9583 11.5777 15.3472 12.1677 14.875 12.9166C14.7083 13.2221 14.6872 13.521 14.8117 13.8133C14.9361 14.1055 15.1656 14.3205 15.5 14.4583Z" fill="#64436E"/>
</g>
</svg>
