<svg width="32" height="32" viewBox="0 0 32 32" fill="none" xmlns="http://www.w3.org/2000/svg">
    <defs>
        <linearGradient id="paint0_linear_277_11499" x1="0" y1="16" x2="32" y2="16" gradientUnits="userSpaceOnUse">
            <stop stop-color="#9D74AA"/>
            <stop offset="1" stop-color="#E67FA6"/>
        </linearGradient>
        <linearGradient id="paint1_linear_277_11499" x1="15.0559" y1="12.2499" x2="16.9443" y2="12.2499" gradientUnits="userSpaceOnUse">
            <stop stop-color="#9D74AA"/>
            <stop offset="1" stop-color="#E67FA6"/>
        </linearGradient>
        <linearGradient id="paint2_linear_277_11499" x1="6" y1="20.5" x2="26" y2="20.5" gradientUnits="userSpaceOnUse">
            <stop stop-color="#9D74AA"/>
            <stop offset="1" stop-color="#E67FA6"/>
        </linearGradient>
        <linearGradient id="paint3_linear_277_11499" x1="11.001" y1="13" x2="21.4988" y2="13" gradientUnits="userSpaceOnUse">
            <stop stop-color="#9D74AA"/>
            <stop offset="1" stop-color="#E67FA6"/>
        </linearGradient>
    </defs>
    <rect x="0.15" y="0.15" width="31.7" height="31.7" rx="7.85" fill="#F6F2F7"/>
    <rect x="0.15" y="0.15" width="31.7" height="31.7" rx="7.85" stroke="url(#paint0_linear_277_11499)" stroke-width="0.3"/>
    <path d="M16.0001 9.25011L15.5526 9.02661V9.02811L15.5511 9.03011L15.5481 9.03661L15.5376 9.05811C15.4853 9.16989 15.437 9.28346 15.3926 9.39861C15.2823 9.68373 15.196 9.97759 15.1346 10.2771C15.0026 10.9376 14.9591 11.9161 15.6466 12.6036C15.9591 12.9161 16.0026 13.4376 15.8846 14.0271C15.8148 14.3671 15.7057 14.6978 15.5596 15.0126L15.5536 15.0251L15.5526 15.0266L16.0001 15.2501C16.4471 15.4736 16.4476 15.4731 16.4476 15.4731V15.4721L16.4491 15.4701L16.4521 15.4636L16.4626 15.4421L16.4976 15.3671C16.6618 15.0006 16.7852 14.6171 16.8656 14.2236C16.9976 13.5626 17.0411 12.5841 16.3536 11.8966C16.0411 11.5841 15.9976 11.0626 16.1156 10.4731C16.1855 10.1331 16.2945 9.80243 16.4406 9.48761L16.4466 9.47511L16.4476 9.47361L16.0001 9.25011Z" fill="url(#paint1_linear_277_11499)"/>
    <path fill-rule="evenodd" clip-rule="evenodd" d="M6 18.5C6 18.3674 6.05268 18.2402 6.14645 18.1464C6.24021 18.0527 6.36739 18 6.5 18H25.5C25.6326 18 25.7598 18.0527 25.8536 18.1464C25.9473 18.2402 26 18.3674 26 18.5C26 18.6326 25.9473 18.7598 25.8536 18.8536C25.7598 18.9473 25.6326 19 25.5 19H24C24 20.0609 23.5786 21.0783 22.8284 21.8284C22.0783 22.5786 21.0609 23 20 23H12C10.9391 23 9.92172 22.5786 9.17157 21.8284C8.42143 21.0783 8 20.0609 8 19H6.5C6.36739 19 6.24021 18.9473 6.14645 18.8536C6.05268 18.7598 6 18.6326 6 18.5ZM9 19H23C23 19.7956 22.6839 20.5587 22.1213 21.1213C21.5587 21.6839 20.7956 22 20 22H12C11.2044 22 10.4413 21.6839 9.87868 21.1213C9.31607 20.5587 9 19.7956 9 19Z" fill="url(#paint2_linear_277_11499)"/>
    <path d="M11.5849 10.2207L11.9999 10.5007C12.4144 10.7802 12.4149 10.7797 12.4149 10.7797L12.4084 10.7897C12.3645 10.8597 12.3235 10.9314 12.2854 11.0047C12.1909 11.1841 12.1154 11.373 12.0604 11.5682C11.9404 12.0142 11.9834 12.3662 12.2974 12.5982C13.1084 13.1992 13.0654 14.0977 12.9044 14.6932C12.8308 14.9578 12.7294 15.2139 12.6019 15.4572C12.5497 15.5575 12.4933 15.6556 12.4329 15.7512L12.4229 15.7672L12.4204 15.7707L12.4164 15.7767L12.4154 15.7787L12.4149 15.7792C12.4149 15.7792 12.4144 15.7802 11.9999 15.5002C11.5854 15.2202 11.5849 15.2207 11.5849 15.2207L11.5914 15.2112L11.6184 15.1682C11.652 15.1118 11.684 15.0544 11.7144 14.9962C11.7919 14.8472 11.8809 14.6472 11.9394 14.4322C12.0594 13.9862 12.0164 13.6347 11.7024 13.4022C10.8914 12.8012 10.9344 11.9032 11.0954 11.3072C11.1779 11.0012 11.2999 10.7322 11.3979 10.5432C11.4537 10.4362 11.5143 10.3318 11.5794 10.2302L11.5829 10.2242L11.5844 10.2217L11.5849 10.2207ZM20.4999 10.5002C20.0854 10.2202 20.0849 10.2207 20.0849 10.2207V10.2217L20.0829 10.2242L20.0789 10.2302C20.0128 10.3311 19.9524 10.4356 19.8979 10.5432C19.7999 10.7322 19.6779 11.0012 19.5954 11.3072C19.4344 11.9027 19.3914 12.8012 20.2024 13.4022C20.5164 13.6347 20.5594 13.9862 20.4389 14.4322C20.3809 14.6472 20.2919 14.8472 20.2139 14.9962C20.176 15.0695 20.1351 15.1412 20.0914 15.2112L20.0854 15.2212L20.4999 15.5002C20.9144 15.7802 20.9149 15.7792 20.9149 15.7792V15.7787L20.9169 15.7767L20.9209 15.7707L20.9284 15.7582L20.9334 15.7512C20.9938 15.6556 21.0502 15.5575 21.1024 15.4572C21.2295 15.2138 21.3307 14.9577 21.4044 14.6932C21.5654 14.0977 21.6084 13.1992 20.7974 12.5982C20.4834 12.3657 20.4404 12.0142 20.5609 11.5682C20.6189 11.3532 20.7079 11.1532 20.7859 11.0042C20.8238 10.9309 20.8647 10.8592 20.9084 10.7892L20.9144 10.7797L20.4999 10.5002Z" fill="url(#paint3_linear_277_11499)"/>
</svg>
