<svg width="32" height="32" viewBox="0 0 32 32" fill="none" xmlns="http://www.w3.org/2000/svg">
<rect x="0.15" y="0.15" width="31.7" height="31.7" rx="7.85" fill="#EBEBFF"/>
<rect x="0.15" y="0.15" width="31.7" height="31.7" rx="7.85" stroke="#0000FF" stroke-width="0.3"/>
<path d="M7 16C7 11.0295 11.0295 7 16 7V8C11.5815 8 8 11.5815 8 16C8 20.4185 11.5815 24 16 24C20.4185 24 24 20.4185 24 16C24 15.2005 23.883 14.429 23.665 13.7005L24.6225 13.413C24.8736 14.2524 25.0008 15.1239 25 16C25 20.9705 20.9705 25 16 25C11.0295 25 7 20.9705 7 16Z" fill="#0000FF"/>
<path d="M13.2651 10.976C13.1512 11.0428 13.0684 11.1519 13.0346 11.2795C13.0009 11.4072 13.019 11.543 13.085 11.6573C13.151 11.7717 13.2596 11.8553 13.387 11.8899C13.5144 11.9245 13.6504 11.9073 13.7651 11.842L14.2331 11.5715L14.0076 13.4465C13.9965 13.5386 14.0113 13.6321 14.0503 13.7163C14.0893 13.8005 14.151 13.8722 14.2284 13.9234C14.3058 13.9746 14.396 14.0032 14.4887 14.006C14.5815 14.0089 14.6732 13.9858 14.7536 13.9395L16.2546 13.073C16.312 13.0404 16.3623 12.9968 16.4027 12.9447C16.4431 12.8926 16.4728 12.833 16.49 12.7693C16.5073 12.7057 16.5118 12.6393 16.5033 12.5739C16.4948 12.5085 16.4735 12.4454 16.4405 12.3883C16.4075 12.3312 16.3636 12.2812 16.3112 12.2412C16.2588 12.2011 16.1991 12.1718 16.1353 12.155C16.0716 12.1381 16.0051 12.134 15.9398 12.143C15.8744 12.1519 15.8115 12.1737 15.7546 12.207L15.1196 12.5735L15.3456 10.6985C15.3567 10.6064 15.342 10.5129 15.303 10.4287C15.264 10.3445 15.2023 10.2728 15.1249 10.2216C15.0475 10.1704 14.9573 10.1418 14.8646 10.139C14.7718 10.1361 14.6801 10.1592 14.5996 10.2055L13.2651 10.976ZM16.9086 8.647C16.8916 8.58357 16.8873 8.51741 16.8958 8.4523C16.9044 8.38719 16.9257 8.3244 16.9585 8.26753C16.9913 8.21065 17.035 8.16079 17.0871 8.12081C17.1392 8.08083 17.1987 8.0515 17.2621 8.0345L19.1941 7.517C19.2838 7.49297 19.3784 7.49439 19.4673 7.52108C19.5562 7.54778 19.636 7.5987 19.6976 7.66815C19.7592 7.73759 19.8002 7.82282 19.8161 7.91428C19.832 8.00575 19.8222 8.09983 19.7876 8.186L18.7631 10.7385L19.9706 10.415C20.0973 10.3847 20.2309 10.405 20.3428 10.4716C20.4547 10.5382 20.5363 10.6459 20.57 10.7717C20.6038 10.8975 20.5871 11.0315 20.5235 11.1453C20.4599 11.259 20.3545 11.3434 20.2296 11.3805L18.0561 11.963C17.9665 11.987 17.8719 11.9856 17.783 11.9589C17.694 11.9322 17.6143 11.8813 17.5527 11.8119C17.4911 11.7424 17.45 11.6572 17.4341 11.5657C17.4182 11.4743 17.4281 11.3802 17.4626 11.294L18.4871 8.742L17.5211 9.0005C17.4577 9.01751 17.3916 9.02187 17.3264 9.01331C17.2613 9.00475 17.1985 8.98345 17.1417 8.95062C17.0848 8.9178 17.0349 8.87409 16.9949 8.82199C16.955 8.7699 16.9256 8.71043 16.9086 8.647ZM22.2781 7C22.1455 7 22.0184 7.05268 21.9246 7.14645C21.8308 7.24021 21.7781 7.36739 21.7781 7.5C21.7781 7.63261 21.8308 7.75979 21.9246 7.85355C22.0184 7.94732 22.1455 8 22.2781 8H23.5981L21.5761 11.235C21.5288 11.3107 21.5027 11.3977 21.5003 11.4869C21.498 11.5761 21.5195 11.6643 21.5628 11.7424C21.6061 11.8204 21.6695 11.8855 21.7464 11.9308C21.8233 11.9761 21.9109 12 22.0001 12H24.5001C24.6327 12 24.7599 11.9473 24.8537 11.8536C24.9475 11.7598 25.0001 11.6326 25.0001 11.5C25.0001 11.3674 24.9475 11.2402 24.8537 11.1464C24.7599 11.0527 24.6327 11 24.5001 11H22.9021L24.9241 7.765C24.9714 7.68931 24.9976 7.60235 25 7.51312C25.0023 7.4239 24.9807 7.33568 24.9375 7.25762C24.8942 7.17955 24.8308 7.11449 24.7539 7.06919C24.677 7.02389 24.5894 7 24.5001 7H22.2781ZM10.4441 17.553C10.4821 17.9245 10.8156 18.2015 11.2021 18.3245C11.6061 18.4525 12.1296 18.442 12.6856 18.201C12.9348 18.0966 13.1588 17.9403 13.3426 17.7424C13.5264 17.5445 13.6659 17.3096 13.7516 17.0535C13.8966 16.6195 13.8766 16.1435 13.6756 15.841C13.6524 15.806 13.6207 15.7774 13.5835 15.7579C13.5462 15.7384 13.5047 15.7286 13.4627 15.7294C13.4207 15.7302 13.3796 15.7416 13.3431 15.7625C13.3066 15.7834 13.2761 15.8132 13.2541 15.849C12.6071 16.9045 11.6821 17.369 10.7166 17.279C10.6798 17.2755 10.6427 17.2802 10.608 17.2927C10.5732 17.3053 10.5417 17.3254 10.5156 17.3516C10.4895 17.3778 10.4696 17.4094 10.4573 17.4443C10.4449 17.4791 10.4404 17.5162 10.4441 17.553ZM20.1401 14.955C20.2931 15.2955 20.1431 15.702 19.8701 16.002C19.5841 16.315 19.1251 16.567 18.5236 16.637C18.2556 16.6712 17.9833 16.6478 17.7251 16.5683C17.4668 16.4888 17.2285 16.3551 17.0261 16.176C16.6841 15.8725 16.4636 15.451 16.4861 15.088C16.4888 15.0461 16.5019 15.0054 16.5244 14.9699C16.5469 14.9344 16.5779 14.9051 16.6147 14.8848C16.6515 14.8645 16.6928 14.8537 16.7348 14.8536C16.7768 14.8535 16.8182 14.8639 16.8551 14.884C17.9431 15.475 18.9766 15.4145 19.7676 14.8535C19.7978 14.8322 19.8322 14.8178 19.8686 14.8113C19.9049 14.8049 19.9422 14.8066 19.9778 14.8163C20.0135 14.826 20.0465 14.8435 20.0745 14.8675C20.1026 14.8914 20.125 14.9213 20.1401 14.955ZM20.2241 19.9275C19.0986 18.3855 17.4306 17.57 15.8706 17.988C14.3106 18.4065 13.2736 19.946 13.0701 21.8445C13.0126 22.379 13.5316 22.756 14.0506 22.617L19.7606 21.087C20.2801 20.9475 20.5406 20.362 20.2241 19.9275Z" fill="#0000FF"/>
</svg>
