<svg width="201" height="156" viewBox="0 0 201 156" fill="none" xmlns="http://www.w3.org/2000/svg">
<g filter="url(#filter0_f_243_3305)">
<ellipse cx="98.8939" cy="120.084" rx="71.0987" ry="13.7159" fill="#252525" fill-opacity="0.35"/>
</g>
<path d="M99.675 147.461C140.395 147.461 173.406 114.451 173.406 73.7305C173.406 33.0103 140.395 0 99.675 0C58.9548 0 25.9446 33.0103 25.9446 73.7305C25.9446 114.451 58.9548 147.461 99.675 147.461Z" fill="#FDFDFD"/>
<g filter="url(#filter1_d_243_3305)">
<path d="M161.437 49.8971L98.2549 93.9902L35.073 49.8971L92.911 9.51697C94.4796 8.42375 96.3456 7.83765 98.2575 7.83765C100.169 7.83765 102.035 8.42375 103.604 9.51697L115.141 17.5825L118.162 19.6802L148.578 40.9191L151.782 43.1689L161.437 49.8971Z" fill="#F2F2F2"/>
<path d="M115.056 17.7057L115.055 17.7055L103.518 9.64003C101.975 8.56435 100.139 7.98765 98.2575 7.98765C96.3763 7.98765 94.5403 8.56432 92.9969 9.63996L115.056 17.7057ZM115.056 17.7057L118.076 19.8032L118.076 19.8034L148.492 41.0419L148.492 41.0421L151.696 43.2916L151.696 43.2919L161.175 49.8972L98.2549 93.8073L35.3351 49.8971M115.056 17.7057L35.3351 49.8971M35.3351 49.8971L92.9968 9.64003L35.3351 49.8971Z" stroke="#EDEDED" stroke-width="0.3"/>
</g>
<path d="M87.9815 86.8215L35.073 124.443V49.8972L87.9815 86.8215Z" fill="#64436E"/>
<path d="M108.533 86.8215L161.442 124.443V49.8972L108.533 86.8215Z" fill="#64436E"/>
<path d="M103.585 83.4932L160.967 124.293H35.5429L92.9298 83.4932L92.9299 83.4932C94.4855 82.3854 96.3477 81.7901 98.2575 81.7901C100.167 81.7901 102.029 82.3854 103.585 83.4932L103.585 83.4932Z" fill="#64436E" stroke="#EDEDED" stroke-width="0.3"/>
<g filter="url(#filter2_d_243_3305)">
<path d="M41.7486 36.3892C32.0624 40.9201 21.6538 43.7093 10.9999 44.6288C12.4395 47.9752 22.668 64.7259 53.0315 78.5281C53.8523 78.6544 72.813 69.8339 83.2183 63.7852C82.8647 64.2903 50.8974 52.5275 41.7486 36.3892Z" fill="#E36E9A"/>
</g>
<path d="M42.4982 44.7175C42.0525 44.4082 41.4879 44.3247 40.9717 44.4917L24.0248 49.9745C23.4177 50.171 23.2014 50.9187 23.6099 51.4089C23.9388 51.8036 24.4773 51.9544 24.9634 51.7879L42.3427 45.8352C42.8331 45.6672 42.9241 45.013 42.4982 44.7175Z" fill="#C9DFFF"/>
<path d="M42.2044 51.4703C41.7745 51.0667 41.1576 50.9322 40.5988 51.1203L28.8666 55.0687C28.3493 55.2428 28.1667 55.8811 28.5136 56.3025C28.797 56.6468 29.264 56.7795 29.6862 56.6358L41.9936 52.4452C42.4091 52.3038 42.5244 51.7707 42.2044 51.4703Z" fill="#C9DFFF"/>
<path d="M48.5014 54.814C48.0529 54.4548 47.4496 54.3554 46.9095 54.5516L33.3956 59.4633C32.8652 59.6561 32.7056 60.3289 33.0929 60.7394C33.3892 61.0534 33.8441 61.1606 34.2495 61.0119L48.3334 55.8436C48.7712 55.6829 48.8655 55.1055 48.5014 54.814Z" fill="#C9DFFF"/>
<path d="M53.2261 64.9518C52.8107 64.4926 52.156 64.3356 51.5774 64.5564L43.8542 67.5036C43.38 67.6846 43.209 68.2679 43.5105 68.6763C43.793 69.0589 44.2967 69.2052 44.7403 69.0334L53.0185 65.8272C53.3755 65.689 53.483 65.2357 53.2261 64.9518Z" fill="#C9DFFF"/>
<g filter="url(#filter3_d_243_3305)">
<path d="M153.715 59.7493C165.46 65.2433 178.081 68.6254 191 69.7403C189.254 73.798 176.852 94.1093 140.034 110.845C139.039 110.998 116.048 100.303 103.431 92.9685C103.86 93.581 142.622 79.3179 153.715 59.7493Z" fill="#E36E9A"/>
</g>
<path d="M152.807 69.8481C153.347 69.4731 154.032 69.3719 154.658 69.5744L175.207 76.2226C175.943 76.4608 176.205 77.3675 175.71 77.9619C175.311 78.4405 174.658 78.6233 174.069 78.4214L152.995 71.2034C152.401 70.9998 152.29 70.2064 152.807 69.8481Z" fill="#EDEDED"/>
<path d="M147.053 75.3208C147.574 74.8315 148.323 74.6684 149 74.8964L163.226 79.6841C163.853 79.8952 164.075 80.6692 163.654 81.1802C163.311 81.5976 162.744 81.7586 162.232 81.5843L147.309 76.503C146.805 76.3315 146.665 75.6851 147.053 75.3208Z" fill="#EDEDED"/>
<path d="M141.14 79.8639C141.684 79.4284 142.416 79.3078 143.071 79.5458L159.457 85.5015C160.1 85.7352 160.294 86.5511 159.824 87.0488C159.465 87.4296 158.913 87.5596 158.422 87.3793L141.344 81.1124C140.813 80.9175 140.699 80.2174 141.14 79.8639Z" fill="#EDEDED"/>
<path d="M127.836 88.9527C128.34 88.3959 129.134 88.2055 129.835 88.4732L139.2 92.0469C139.775 92.2663 139.982 92.9737 139.617 93.4688C139.274 93.9328 138.663 94.1102 138.125 93.9019L128.088 90.0142C127.655 89.8466 127.524 89.297 127.836 88.9527Z" fill="#EDEDED"/>
<path d="M133.949 84.099C134.503 83.7513 135.187 83.6793 135.802 83.904L157.379 91.7935C158.069 92.0457 158.236 92.9448 157.683 93.4279C157.317 93.7474 156.806 93.8417 156.351 93.6738L134.092 85.4742C133.492 85.2531 133.407 84.4389 133.949 84.099Z" fill="#EDEDED"/>
<path d="M57.8999 57.0298C57.4427 56.7431 56.8786 56.6837 56.3718 56.869L38.5766 63.3755C38.0078 63.5835 37.8701 64.325 38.3262 64.7234C38.6278 64.9869 39.0493 65.0647 39.4251 64.9262L57.7819 58.164C58.2769 57.9816 58.3468 57.3102 57.8999 57.0298Z" fill="#C9DFFF"/>
<path d="M160.288 17.3546C160.288 18.7974 159.119 19.9671 157.676 19.9671C156.233 19.9671 155.063 18.7974 155.063 17.3546C155.063 15.9118 156.233 14.7422 157.676 14.7422C159.119 14.7422 160.288 15.9118 160.288 17.3546Z" stroke="#E36E9A" stroke-width="2.61276"/>
<circle cx="48.5089" cy="131.561" r="2.61245" stroke="#E36E9A" stroke-width="2.61276"/>
<circle cx="143.12" cy="137.719" r="2.61245" stroke="#E36E9A" stroke-width="2.61276"/>
<path d="M58.2332 23.5324C58.7481 21.3994 61.782 21.3994 62.2969 23.5324L62.578 24.6969C62.762 25.4591 63.3572 26.0543 64.1194 26.2382L65.2839 26.5194C67.4169 27.0342 67.4169 30.0682 65.2839 30.5831L64.1194 30.8642C63.3572 31.0482 62.762 31.6433 62.578 32.4055L62.2969 33.5701C61.782 35.703 58.7481 35.703 58.2332 33.5701L57.9521 32.4055C57.7681 31.6433 57.173 31.0482 56.4107 30.8642L55.2462 30.5831C53.1132 30.0682 53.1132 27.0342 55.2462 26.5194L56.4107 26.2383C57.173 26.0543 57.7681 25.4591 57.9521 24.6969L58.2332 23.5324Z" fill="#64436E"/>
<path d="M170.409 120.908C170.924 118.775 173.958 118.775 174.473 120.908L174.754 122.073C174.938 122.835 175.533 123.43 176.296 123.614L177.46 123.895C179.593 124.41 179.593 127.444 177.46 127.959L176.296 128.24C175.533 128.424 174.938 129.019 174.754 129.781L174.473 130.946C173.958 133.079 170.924 133.079 170.409 130.946L170.128 129.781C169.944 129.019 169.349 128.424 168.587 128.24L167.422 127.959C165.29 127.444 165.29 124.41 167.422 123.895L168.587 123.614C169.349 123.43 169.944 122.835 170.128 122.073L170.409 120.908Z" fill="#64436E"/>
<path d="M26.9591 107.271C28.2831 107.059 29.3401 108.36 28.8617 109.613L27.555 113.034C27.0766 114.287 25.4216 114.552 24.576 113.511L22.2661 110.669C21.4205 109.628 22.0185 108.062 23.3425 107.85L26.9591 107.271Z" fill="#64436E"/>
<path d="M173.625 52.74C173.293 51.4407 174.493 50.27 175.784 50.6328L179.31 51.6237C180.601 51.9864 181.015 53.6105 180.055 54.5471L177.434 57.1053C176.474 58.0419 174.861 57.5884 174.53 56.2891L173.625 52.74Z" fill="#64436E"/>
<defs>
<filter id="filter0_f_243_3305" x="6.02217" y="84.5949" width="185.743" height="70.9779" filterUnits="userSpaceOnUse" color-interpolation-filters="sRGB">
<feFlood flood-opacity="0" result="BackgroundImageFix"/>
<feBlend mode="normal" in="SourceGraphic" in2="BackgroundImageFix" result="shape"/>
<feGaussianBlur stdDeviation="10.8865" result="effect1_foregroundBlur_243_3305"/>
</filter>
<filter id="filter1_d_243_3305" x="31.5893" y="7.83765" width="133.331" height="93.1199" filterUnits="userSpaceOnUse" color-interpolation-filters="sRGB">
<feFlood flood-opacity="0" result="BackgroundImageFix"/>
<feColorMatrix in="SourceAlpha" type="matrix" values="0 0 0 0 0 0 0 0 0 0 0 0 0 0 0 0 0 0 127 0" result="hardAlpha"/>
<feOffset dy="3.48368"/>
<feGaussianBlur stdDeviation="1.74184"/>
<feComposite in2="hardAlpha" operator="out"/>
<feColorMatrix type="matrix" values="0 0 0 0 0 0 0 0 0 0 0 0 0 0 0 0 0 0 0.25 0"/>
<feBlend mode="normal" in2="BackgroundImageFix" result="effect1_dropShadow_243_3305"/>
<feBlend mode="normal" in="SourceGraphic" in2="effect1_dropShadow_243_3305" result="shape"/>
</filter>
<filter id="filter2_d_243_3305" x="0.548963" y="29.4218" width="93.1203" height="63.0425" filterUnits="userSpaceOnUse" color-interpolation-filters="sRGB">
<feFlood flood-opacity="0" result="BackgroundImageFix"/>
<feColorMatrix in="SourceAlpha" type="matrix" values="0 0 0 0 0 0 0 0 0 0 0 0 0 0 0 0 0 0 127 0" result="hardAlpha"/>
<feOffset dy="3.48368"/>
<feGaussianBlur stdDeviation="5.22552"/>
<feComposite in2="hardAlpha" operator="out"/>
<feColorMatrix type="matrix" values="0 0 0 0 0.0196078 0 0 0 0 0.168627 0 0 0 0 0.396078 0 0 0 0.15 0"/>
<feBlend mode="normal" in2="BackgroundImageFix" result="effect1_dropShadow_243_3305"/>
<feBlend mode="normal" in="SourceGraphic" in2="effect1_dropShadow_243_3305" result="shape"/>
</filter>
<filter id="filter3_d_243_3305" x="83.3451" y="58.0074" width="117.18" height="80.7089" filterUnits="userSpaceOnUse" color-interpolation-filters="sRGB">
<feFlood flood-opacity="0" result="BackgroundImageFix"/>
<feColorMatrix in="SourceAlpha" type="matrix" values="0 0 0 0 0 0 0 0 0 0 0 0 0 0 0 0 0 0 127 0" result="hardAlpha"/>
<feOffset dx="-5.28021" dy="13.0638"/>
<feGaussianBlur stdDeviation="7.40282"/>
<feComposite in2="hardAlpha" operator="out"/>
<feColorMatrix type="matrix" values="0 0 0 0 0.021441 0 0 0 0 0.168056 0 0 0 0 0.395833 0 0 0 0.15 0"/>
<feBlend mode="normal" in2="BackgroundImageFix" result="effect1_dropShadow_243_3305"/>
<feBlend mode="normal" in="SourceGraphic" in2="effect1_dropShadow_243_3305" result="shape"/>
</filter>
</defs>
</svg>
