<svg width="32" height="32" viewBox="0 0 32 32" fill="none" xmlns="http://www.w3.org/2000/svg">
<rect x="0.15" y="0.15" width="31.7" height="31.7" rx="7.85" fill="#FCEEF3"/>
<rect x="0.15" y="0.15" width="31.7" height="31.7" rx="7.85" stroke="#E36E9A" stroke-width="0.3"/>
<path d="M25.75 9.25H22V7.9375C22 7.83437 21.9156 7.75 21.8125 7.75H20.5C20.3969 7.75 20.3125 7.83437 20.3125 7.9375V9.25H16.8438V7.9375C16.8438 7.83437 16.7594 7.75 16.6562 7.75H15.3438C15.2406 7.75 15.1562 7.83437 15.1562 7.9375V9.25H11.6875V7.9375C11.6875 7.83437 11.6031 7.75 11.5 7.75H10.1875C10.0844 7.75 10 7.83437 10 7.9375V9.25H6.25C5.83516 9.25 5.5 9.58516 5.5 10V23.5C5.5 23.9148 5.83516 24.25 6.25 24.25H25.75C26.1648 24.25 26.5 23.9148 26.5 23.5V10C26.5 9.58516 26.1648 9.25 25.75 9.25ZM24.8125 22.5625H7.1875V10.9375H10V12.25C10 12.3531 10.0844 12.4375 10.1875 12.4375H11.5C11.6031 12.4375 11.6875 12.3531 11.6875 12.25V10.9375H15.1562V12.25C15.1562 12.3531 15.2406 12.4375 15.3438 12.4375H16.6562C16.7594 12.4375 16.8438 12.3531 16.8438 12.25V10.9375H20.3125V12.25C20.3125 12.3531 20.3969 12.4375 20.5 12.4375H21.8125C21.9156 12.4375 22 12.3531 22 12.25V10.9375H24.8125V22.5625ZM13.75 15.625H9.4375C9.33437 15.625 9.25 15.7094 9.25 15.8125V16.9375C9.25 17.0406 9.33437 17.125 9.4375 17.125H13.75C13.8531 17.125 13.9375 17.0406 13.9375 16.9375V15.8125C13.9375 15.7094 13.8531 15.625 13.75 15.625ZM13.75 18.8125H9.4375C9.33437 18.8125 9.25 18.8969 9.25 19V20.125C9.25 20.2281 9.33437 20.3125 9.4375 20.3125H13.75C13.8531 20.3125 13.9375 20.2281 13.9375 20.125V19C13.9375 18.8969 13.8531 18.8125 13.75 18.8125ZM20.9734 14.6547L18.5453 18.0227L17.3078 16.3094C17.2375 16.2109 17.125 16.1547 17.0055 16.1547H15.7188C15.5664 16.1547 15.4773 16.3281 15.5664 16.4523L18.2406 20.1602C18.2751 20.2081 18.3206 20.2471 18.3731 20.274C18.4257 20.3009 18.4839 20.315 18.543 20.315C18.602 20.315 18.6602 20.3009 18.7128 20.274C18.7654 20.2471 18.8108 20.2081 18.8453 20.1602L22.7125 14.8C22.8016 14.6758 22.7125 14.5023 22.5602 14.5023H21.2734C21.1562 14.5 21.0438 14.5586 20.9734 14.6547Z" fill="#E36E9A"/>
</svg>
