<svg width="32" height="32" viewBox="0 0 32 32" fill="none" xmlns="http://www.w3.org/2000/svg">
<rect x="0.15" y="0.15" width="31.7" height="31.7" rx="7.85" fill="#FFEBEB"/>
<rect x="0.15" y="0.15" width="31.7" height="31.7" rx="7.85" stroke="#CC0000" stroke-width="0.3"/>
<path d="M22.9295 17.5629L21.9845 18.2834L20.3325 17.7049L20.1895 16.7449M17.9395 23.6579L18.7055 23.0919L20.166 23.4179L20.623 24.2194L19.968 24.5364M13.781 12.7329L13.9645 14.0069L13.368 14.2554L12.6855 13.2534M11.263 13.6934L11.398 15.0999L10.771 15.3104L9.90096 14.1469M12.5545 7.99492L12.4615 6.84742L11.327 6.84692L10.3995 7.29742L10.062 7.62592L10.578 8.22242M13.271 9.32892L14.3875 9.90042L14.014 11.3454M19.697 10.7224C19.414 10.2324 18.826 10.2909 18.732 10.5689C18.673 10.7424 18.627 11.1204 18.6555 11.3089C18.6705 11.4054 18.8035 11.4439 18.759 11.5624C18.709 11.6944 18.091 12.1869 17.97 12.2189C17.892 12.2399 17.876 12.1619 17.78 12.2339C17.608 12.3619 17.5555 12.7004 17.4795 12.8899C17.423 13.0299 17.2545 13.0719 17.2235 13.2529C17.209 13.3404 17.299 13.4749 17.282 13.5254C17.252 13.6134 17.161 13.6834 17.1475 13.7774C17.1335 13.8749 17.233 13.9009 17.2455 13.9814C17.2705 14.1469 17.052 14.3874 17.3105 14.4964C17.7785 14.6944 17.76 14.3539 18.0985 14.1569C18.3785 13.9944 18.6905 13.9569 18.968 13.7739C19.177 13.6359 19.288 13.3579 19.4905 13.2239C19.7365 13.0619 19.9055 13.2109 20.0905 13.2079C20.1955 13.2064 20.4585 13.0254 20.563 12.9809C20.746 12.9034 21.124 12.2939 21.1215 12.1339C21.119 11.9679 20.7705 11.6209 20.4385 11.5469M19.697 10.7224C19.7315 10.6249 21.6785 8.07492 21.6785 8.07492C21.6785 8.07492 23.0175 7.43792 23.3555 7.80492C23.6935 8.17192 23.03 9.54442 23.03 9.54442L20.4385 11.5469M19.697 10.7224C19.662 10.8194 20.4385 11.5469 20.4385 11.5469M23.0305 9.56892L21.698 8.09492M21.928 10.3849L21.786 11.7699M20.491 9.59292L19.4145 9.70292M13.205 21.4819L13.6235 21.8869L13.6475 22.5889L10.928 25.3464L9.83696 24.9394M10.13 18.4414L9.78496 17.9329L8.89446 18.0294L6.69946 20.1314L7.02196 21.4299M12.8145 20.4104L13.174 21.4654L9.91196 24.8239L6.81596 21.5294L10.137 18.4704L11.1705 18.8089M16.5245 20.6449C16.5245 19.5976 16.9405 18.5931 17.6811 17.8526C18.4217 17.112 19.4261 16.6959 20.4735 16.6959C21.5208 16.6959 22.5252 17.112 23.2658 17.8526C24.0064 18.5931 24.4225 19.5976 24.4225 20.6449C24.4225 21.6923 24.0064 22.6967 23.2658 23.4373C22.5252 24.1779 21.5208 24.5939 20.4735 24.5939C19.4261 24.5939 18.4217 24.1779 17.6811 23.4373C16.9405 22.6967 16.5245 21.6923 16.5245 20.6449ZM21.5425 22.3624L21.266 20.9579L22.363 19.8329L23.5015 20.6449L22.9415 22.3239L21.5425 22.3624ZM19.501 20.2294L19.0935 18.9114L17.6225 19.0204L17.351 20.6449L18.1555 21.4239L19.501 20.2294ZM7.81696 10.3699C7.7311 10.1369 7.74134 9.87924 7.84542 9.65373C7.9495 9.42822 8.13891 9.25329 8.37196 9.16742L11.755 7.92142C12.24 7.74292 12.7785 7.99142 12.9575 8.47642L14.123 11.6414C14.2088 11.8746 14.1986 12.1322 14.0945 12.3578C13.9905 12.5834 13.8011 12.7585 13.568 12.8444L10.185 14.0899C9.9519 14.1758 9.69428 14.1655 9.46877 14.0615C9.24326 13.9574 9.06833 13.768 8.98246 13.5349L7.81696 10.3699ZM9.99196 22.8099L8.84346 21.6529L10.7245 19.7419L10.722 19.3049L11.727 18.3309L13.328 19.8384L12.3815 20.8734L11.864 20.8834L9.99196 22.8099ZM13.884 19.3574C13.971 19.4329 14.19 19.4259 14.2535 19.4149C14.5715 19.3619 14.896 19.2934 15.107 19.0124C15.2855 18.7744 15.1665 18.5184 15.2415 18.3309C15.326 18.1199 15.5955 18.0794 15.6825 17.8609C15.7525 17.6859 15.532 17.5284 15.6155 17.3334C15.7535 17.0119 15.9955 16.6979 16.0665 16.3454C16.113 16.1139 16.4785 15.6354 16.2105 15.4339C15.7265 15.0714 14.9415 15.9244 14.5795 16.1054C14.4045 16.1929 14.159 16.3839 13.956 16.3839C13.831 16.3839 13.8575 16.0394 13.668 16.1154C13.388 16.2274 13.2905 16.7529 13.1695 16.7769C12.816 16.8479 12.3615 16.7854 12.239 17.2759C12.076 17.9274 12.4755 17.9819 12.7665 18.3694C12.9295 18.5869 13.0215 18.7094 13.2465 18.8779C13.3275 18.9389 13.869 19.3439 13.884 19.3574ZM13.102 17.8429C13.105 17.8159 13.386 17.6404 13.419 17.6219C13.566 17.5374 14.439 16.8774 14.5605 17.1804C14.6405 17.3804 14.0645 18.4604 13.879 18.4854C13.699 18.5094 13.643 18.3764 13.4565 18.1899C13.3395 18.0729 13.0965 17.8934 13.102 17.8424V17.8429Z" stroke="#CC0000" stroke-width="0.5" stroke-linecap="round" stroke-linejoin="round"/>
<path d="M11.8259 9.70361C12.033 9.70361 12.2009 9.53572 12.2009 9.32861C12.2009 9.12151 12.033 8.95361 11.8259 8.95361C11.6188 8.95361 11.4509 9.12151 11.4509 9.32861C11.4509 9.53572 11.6188 9.70361 11.8259 9.70361Z" fill="#CC0000"/>
</svg>
