<svg width="40" height="41" viewBox="0 0 40 41" fill="none" xmlns="http://www.w3.org/2000/svg">
<g opacity="0.5">
<path d="M29.0263 4.87331C29.1649 4.78313 29.2842 4.66636 29.3773 4.52977C29.4704 4.39318 29.5355 4.23948 29.5688 4.07756C29.6021 3.91565 29.603 3.74873 29.5713 3.58647C29.5397 3.42422 29.4762 3.26985 29.3845 3.13231C29.2928 2.99476 29.1747 2.87677 29.0371 2.78517C28.8995 2.69356 28.7451 2.63016 28.5828 2.59863C28.4206 2.5671 28.2537 2.56807 28.0918 2.60149C27.9299 2.63491 27.7762 2.7001 27.6397 2.79331L22.7813 6.03331C21.8965 5.68 20.9524 5.49898 19.9997 5.49997C19.0163 5.49997 18.078 5.68831 17.218 6.03331L12.3597 2.79331C12.0838 2.61376 11.7483 2.55025 11.4259 2.61657C11.1035 2.68289 10.8203 2.87369 10.6377 3.14756C10.4551 3.42142 10.3879 3.75624 10.4507 4.07933C10.5135 4.40243 10.7012 4.68773 10.973 4.87331L14.9063 7.49497C13.7222 8.58872 12.9225 10.0354 12.6263 11.62C13.3679 11.4291 14.1306 11.3327 14.8963 11.3333H25.1047C25.888 11.3333 26.648 11.4333 27.373 11.62C27.0768 10.0354 26.2772 8.58872 25.093 7.49497L29.0263 4.87331ZM2.08301 23.8333C2.08301 23.5018 2.2147 23.1838 2.44912 22.9494C2.68354 22.715 3.00149 22.5833 3.33301 22.5833H8.33301V20.3966C8.33301 19.0033 8.76634 17.7116 9.50634 16.65L5.36801 14.9933C5.06706 14.8653 4.82824 14.6245 4.70278 14.3225C4.57731 14.0206 4.57519 13.6814 4.69687 13.3779C4.81855 13.0743 5.05434 12.8306 5.35366 12.6988C5.65298 12.5671 5.992 12.558 6.29801 12.6733L11.5247 14.7633C12.5432 14.1526 13.7088 13.8311 14.8963 13.8333H25.103C26.3363 13.8333 27.4897 14.1733 28.4747 14.7633L33.7013 12.6733C33.8544 12.6082 34.0189 12.5743 34.1853 12.5737C34.3516 12.573 34.5164 12.6055 34.67 12.6693C34.8236 12.7331 34.963 12.8269 35.0798 12.9453C35.1967 13.0637 35.2888 13.2041 35.3507 13.3585C35.4126 13.5129 35.4431 13.6781 35.4403 13.8444C35.4375 14.0108 35.4016 14.1749 35.3346 14.3271C35.2676 14.4794 35.1709 14.6167 35.0501 14.7311C34.9294 14.8455 34.787 14.9346 34.6313 14.9933L30.493 16.65C31.259 17.749 31.6686 19.057 31.6663 20.3966V22.5833H36.6663C36.9979 22.5833 37.3158 22.715 37.5502 22.9494C37.7846 23.1838 37.9163 23.5018 37.9163 23.8333C37.9163 24.1648 37.7846 24.4828 37.5502 24.7172C37.3158 24.9516 36.9979 25.0833 36.6663 25.0833H31.6663V25.5C31.6695 27.3989 31.2071 29.2696 30.3197 30.9483L34.6313 32.6733C34.9392 32.7966 35.1855 33.0372 35.316 33.3421C35.4465 33.647 35.4505 33.9913 35.3272 34.2991C35.2038 34.607 34.9633 34.8533 34.6584 34.9838C34.3535 35.1143 34.0092 35.1183 33.7013 34.995L28.8813 33.065C26.9484 35.338 24.2166 36.7824 21.2497 37.1V25.5C21.2497 25.1685 21.118 24.8505 20.8836 24.6161C20.6491 24.3817 20.3312 24.25 19.9997 24.25C19.6682 24.25 19.3502 24.3817 19.1158 24.6161C18.8814 24.8505 18.7497 25.1685 18.7497 25.5V37.1C15.7831 36.7827 13.0514 35.339 11.118 33.0666L6.29967 34.9933C6.14723 35.0544 5.98425 35.0848 5.82005 35.0829C5.65584 35.081 5.49362 35.0467 5.34265 34.9821C5.19167 34.9175 5.05491 34.8238 4.94015 34.7063C4.8254 34.5888 4.73491 34.4499 4.67384 34.2975C4.61278 34.145 4.58234 33.982 4.58426 33.8178C4.58618 33.6536 4.62042 33.4914 4.68504 33.3404C4.74965 33.1895 4.84337 33.0527 4.96084 32.9379C5.07831 32.8232 5.21723 32.7327 5.36967 32.6716L9.68301 30.9466C8.79467 29.2687 8.33115 27.3986 8.33301 25.5V25.0833H3.33301C3.00149 25.0833 2.68354 24.9516 2.44912 24.7172C2.2147 24.4828 2.08301 24.1648 2.08301 23.8333Z" fill="#00C0B0"/>
</g>
</svg>
