<svg width="40" height="41" viewBox="0 0 40 41" fill="none" xmlns="http://www.w3.org/2000/svg">
<g opacity="0.5">
<path d="M29.0266 4.87331C29.1651 4.78313 29.2844 4.66636 29.3775 4.52977C29.4706 4.39318 29.5357 4.23948 29.569 4.07756C29.6024 3.91565 29.6032 3.74873 29.5716 3.58647C29.5399 3.42422 29.4764 3.26985 29.3848 3.13231C29.2931 2.99476 29.175 2.87677 29.0374 2.78517C28.8998 2.69356 28.7454 2.63016 28.5831 2.59863C28.4208 2.5671 28.2539 2.56807 28.092 2.60149C27.9301 2.63491 27.7764 2.7001 27.6399 2.79331L22.7816 6.03331C21.8968 5.68 20.9526 5.49898 19.9999 5.49997C19.0166 5.49997 18.0783 5.68831 17.2183 6.03331L12.3599 2.79331C12.0841 2.61376 11.7485 2.55025 11.4261 2.61657C11.1038 2.68289 10.8205 2.87369 10.638 3.14756C10.4554 3.42142 10.3882 3.75624 10.451 4.07933C10.5137 4.40243 10.7014 4.68773 10.9733 4.87331L14.9066 7.49497C13.7224 8.58872 12.9228 10.0354 12.6266 11.62C13.3681 11.4291 14.1309 11.3327 14.8966 11.3333H25.1049C25.8883 11.3333 26.6483 11.4333 27.3733 11.62C27.0771 10.0354 26.2774 8.58872 25.0933 7.49497L29.0266 4.87331ZM2.08325 23.8333C2.08325 23.5018 2.21495 23.1838 2.44937 22.9494C2.68379 22.715 3.00173 22.5833 3.33325 22.5833H8.33325V20.3966C8.33325 19.0033 8.76658 17.7116 9.50659 16.65L5.36825 14.9933C5.06731 14.8653 4.82849 14.6245 4.70302 14.3225C4.57756 14.0206 4.57544 13.6814 4.69712 13.3779C4.81879 13.0743 5.05458 12.8306 5.3539 12.6988C5.65323 12.5671 5.99225 12.558 6.29825 12.6733L11.5249 14.7633C12.5434 14.1526 13.7091 13.8311 14.8966 13.8333H25.1033C26.3366 13.8333 27.4899 14.1733 28.4749 14.7633L33.7016 12.6733C33.8547 12.6082 34.0192 12.5743 34.1855 12.5737C34.3519 12.573 34.5167 12.6055 34.6703 12.6693C34.8239 12.7331 34.9632 12.8269 35.0801 12.9453C35.197 13.0637 35.2891 13.2041 35.3509 13.3585C35.4128 13.5129 35.4433 13.6781 35.4405 13.8444C35.4378 14.0108 35.4018 14.1749 35.3348 14.3271C35.2678 14.4794 35.1711 14.6167 35.0504 14.7311C34.9296 14.8455 34.7872 14.9346 34.6316 14.9933L30.4932 16.65C31.2592 17.749 31.6688 19.057 31.6666 20.3966V22.5833H36.6666C36.9981 22.5833 37.316 22.715 37.5505 22.9494C37.7849 23.1838 37.9166 23.5018 37.9166 23.8333C37.9166 24.1648 37.7849 24.4828 37.5505 24.7172C37.316 24.9516 36.9981 25.0833 36.6666 25.0833H31.6666V25.5C31.6697 27.3989 31.2074 29.2696 30.3199 30.9483L34.6316 32.6733C34.9395 32.7966 35.1857 33.0372 35.3162 33.3421C35.4467 33.647 35.4507 33.9913 35.3274 34.2991C35.2041 34.607 34.9635 34.8533 34.6586 34.9838C34.3537 35.1143 34.0095 35.1183 33.7016 34.995L28.8816 33.065C26.9486 35.338 24.2168 36.7824 21.2499 37.1V25.5C21.2499 25.1685 21.1182 24.8505 20.8838 24.6161C20.6494 24.3817 20.3314 24.25 19.9999 24.25C19.6684 24.25 19.3505 24.3817 19.116 24.6161C18.8816 24.8505 18.7499 25.1685 18.7499 25.5V37.1C15.7833 36.7827 13.0516 35.339 11.1183 33.0666L6.29992 34.9933C6.14748 35.0544 5.9845 35.0848 5.82029 35.0829C5.65608 35.081 5.49386 35.0467 5.34289 34.9821C5.19192 34.9175 5.05515 34.8238 4.9404 34.7063C4.82564 34.5888 4.73515 34.4499 4.67409 34.2975C4.61302 34.145 4.58258 33.982 4.5845 33.8178C4.58642 33.6536 4.62067 33.4914 4.68528 33.3404C4.74989 33.1895 4.84361 33.0527 4.96108 32.9379C5.07855 32.8232 5.21748 32.7327 5.36992 32.6716L9.68325 30.9466C8.79492 29.2687 8.3314 27.3986 8.33325 25.5V25.0833H3.33325C3.00173 25.0833 2.68379 24.9516 2.44937 24.7172C2.21495 24.4828 2.08325 24.1648 2.08325 23.8333Z" fill="#64436E"/>
</g>
</svg>
