<svg width="21" height="22" viewBox="0 0 21 22" fill="none" xmlns="http://www.w3.org/2000/svg">
<path fill-rule="evenodd" clip-rule="evenodd" d="M5.80707 0.25C5.00607 0.25 4.45707 0.25 3.96707 0.383C3.45994 0.522182 2.98775 0.766472 2.58117 1.10001C2.17458 1.43354 1.8427 1.84886 1.60707 2.319C1.38007 2.771 1.27307 3.31 1.11607 4.096L0.496066 7.194C0.386263 7.73708 0.396872 8.29764 0.527144 8.83618C0.657417 9.37472 0.904185 9.87815 1.25007 10.311V13.056C1.25007 14.894 1.25007 16.35 1.40307 17.489C1.56107 18.661 1.89307 19.61 2.64107 20.359C3.38907 21.107 4.33807 21.439 5.51107 21.597C6.65007 21.75 8.10607 21.75 9.94307 21.75H11.0561C12.8941 21.75 14.3501 21.75 15.4891 21.597C16.6611 21.439 17.6101 21.107 18.3591 20.359C19.1071 19.61 19.4391 18.661 19.5971 17.489C19.7501 16.349 19.7501 14.894 19.7501 13.056V10.312C20.0959 9.87895 20.3426 9.37531 20.4727 8.83659C20.6028 8.29787 20.6132 7.73717 20.5031 7.194L19.8831 4.096C19.7271 3.31 19.6191 2.771 19.3931 2.319C19.1573 1.84876 18.8253 1.43337 18.4185 1.09983C18.0118 0.76629 17.5394 0.522057 17.0321 0.383C16.5431 0.25 15.9941 0.25 15.1921 0.25H5.80707ZM16.7681 11.75C17.277 11.7509 17.781 11.6496 18.2501 11.452V13C18.2501 14.907 18.2481 16.262 18.1101 17.29C17.9751 18.295 17.7211 18.875 17.2981 19.298C16.8751 19.721 16.2951 19.975 15.2881 20.11C14.7776 20.1733 14.2643 20.2114 13.7501 20.224V17.468C13.7501 17.028 13.7501 16.648 13.7221 16.338C13.6921 16.008 13.6261 15.682 13.4481 15.375C13.2508 15.0329 12.967 14.7487 12.6251 14.551C12.3181 14.374 11.9921 14.308 11.6621 14.278C11.3521 14.25 10.9721 14.25 10.5321 14.25H10.4671C10.0271 14.25 9.64807 14.25 9.33707 14.278C9.00707 14.308 8.68207 14.374 8.37507 14.551C8.0328 14.7485 7.74861 15.0327 7.55107 15.375C7.37407 15.682 7.30807 16.008 7.27807 16.337C7.25007 16.649 7.25007 17.028 7.25007 17.467V20.224C6.73517 20.2114 6.2212 20.1734 5.71007 20.11C4.70507 19.975 4.12507 19.721 3.70207 19.298C3.27807 18.875 3.02507 18.295 2.89007 17.289C2.75107 16.262 2.75007 14.907 2.75007 13V11.452C3.54917 11.7896 4.43962 11.8442 5.27398 11.6067C6.10834 11.3692 6.83656 10.8538 7.33807 10.146C7.70135 10.6437 8.17717 11.0485 8.7267 11.3272C9.27622 11.606 9.88388 11.7509 10.5001 11.75C11.1163 11.7509 11.7239 11.606 12.2734 11.3272C12.823 11.0485 13.2988 10.6437 13.6621 10.146C14.014 10.642 14.4797 11.0465 15.0201 11.3256C15.5605 11.6046 16.1599 11.7502 16.7681 11.75ZM8.75007 20.248C9.13807 20.25 9.55407 20.25 10.0001 20.25H11.0001C11.4461 20.25 11.8611 20.25 12.2501 20.248V17.5C12.2501 17.019 12.2491 16.708 12.2281 16.473C12.2081 16.248 12.1731 16.166 12.1491 16.125C12.0833 16.0112 11.9888 15.9168 11.8751 15.851C11.8341 15.827 11.7521 15.793 11.5271 15.772C11.1852 15.751 10.8426 15.7436 10.5001 15.75C10.0191 15.75 9.70807 15.75 9.47307 15.772C9.24707 15.792 9.16607 15.827 9.12507 15.851C9.01094 15.9166 8.9161 16.0111 8.85007 16.125C8.82707 16.165 8.79207 16.248 8.77207 16.473C8.75107 16.708 8.75007 17.019 8.75007 17.5V20.248ZM7.17007 1.75H5.91807C4.96407 1.75 4.63307 1.757 4.36507 1.83C4.06084 1.91344 3.77756 2.05992 3.53362 2.25994C3.28967 2.45995 3.09051 2.70903 2.94907 2.991C2.82407 3.24 2.75307 3.562 2.56607 4.498L1.96807 7.488C1.90433 7.79564 1.90403 8.11306 1.96716 8.42082C2.0303 8.72859 2.15556 9.02024 2.33527 9.27795C2.51498 9.53565 2.74537 9.75398 3.01235 9.9196C3.27934 10.0852 3.57729 10.1946 3.88801 10.2411C4.19872 10.2877 4.51566 10.2703 4.81944 10.1901C5.12321 10.11 5.40745 9.96869 5.65475 9.77492C5.90206 9.58115 6.10723 9.33897 6.25774 9.06319C6.40824 8.78741 6.50091 8.48382 6.53007 8.171L6.59907 7.485L6.60307 7.443L7.17007 1.75ZM8.09107 7.625L8.67907 1.75H12.3211L12.9051 7.592C12.9378 7.92627 12.9005 8.26369 12.7955 8.58275C12.6906 8.9018 12.5203 9.19547 12.2955 9.44504C12.0708 9.69461 11.7964 9.89459 11.4901 10.0322C11.1837 10.1699 10.852 10.2422 10.5161 10.2445C10.1803 10.2468 9.84762 10.179 9.53939 10.0456C9.23116 9.91218 8.95412 9.71598 8.72595 9.46951C8.49778 9.22305 8.32347 8.93173 8.21416 8.61415C8.10485 8.29657 8.06292 7.95969 8.09107 7.625ZM16.6351 1.83C16.3671 1.757 16.0361 1.75 15.0821 1.75H13.8281L14.4711 8.17C14.5012 8.48192 14.5945 8.78445 14.7452 9.05916C14.896 9.33387 15.1011 9.57501 15.3481 9.7679C15.5951 9.9608 15.8787 10.1014 16.1818 10.1811C16.4848 10.2609 16.8009 10.2781 17.1109 10.2318C17.4208 10.1854 17.718 10.0765 17.9845 9.91159C18.251 9.74668 18.4811 9.52926 18.6608 9.27256C18.8406 9.01586 18.9662 8.72526 19.03 8.41846C19.0938 8.11166 19.0945 7.79508 19.0321 7.488L18.4351 4.498C18.2471 3.562 18.1761 3.24 18.0521 2.991C17.9105 2.70892 17.7112 2.45978 17.4671 2.25976C17.2229 2.05974 16.9395 1.91332 16.6351 1.83Z" fill="#595959"/>
</svg>
