<svg width="57" height="56" viewBox="0 0 57 56" fill="none" xmlns="http://www.w3.org/2000/svg">
<circle cx="28.5" cy="28" r="28" fill="#D5F6E8"/>
<path d="M28.0001 14.6667C20.6534 14.6667 14.6667 20.6534 14.6667 28C14.6667 35.3467 20.6534 41.3334 28.0001 41.3334C35.3467 41.3334 41.3334 35.3467 41.3334 28C41.3334 20.6534 35.3467 14.6667 28.0001 14.6667ZM34.3734 24.9334L26.8134 32.4934C26.6267 32.68 26.3734 32.7867 26.1067 32.7867C25.8401 32.7867 25.5867 32.68 25.4001 32.4934L21.6267 28.72C21.2401 28.3334 21.2401 27.6934 21.6267 27.3067C22.0134 26.92 22.6534 26.92 23.0401 27.3067L26.1067 30.3734L32.9601 23.52C33.3467 23.1334 33.9867 23.1334 34.3734 23.52C34.7601 23.9067 34.7601 24.5334 34.3734 24.9334Z" fill="#23A26D"/>
</svg>
